<?xml version="1.0" encoding="utf-8"?>
<!-- Generator: Adobe Illustrator 21.0.0, SVG Export Plug-In . SVG Version: 6.00 Build 0)  -->
<svg version="1.1" id="Layer_1" xmlns="http://www.w3.org/2000/svg" xmlns:xlink="http://www.w3.org/1999/xlink" x="0px" y="0px"
	 viewBox="0 0 100.7 45.7" width="469.414645499" height="213.031274075" style="enable-background:new 0 0 100.7 45.7;" xml:space="preserve">
<style type="text/css">
	.st0{fill:#959699;}
	.st1{fill-rule:evenodd;clip-rule:evenodd;fill:#959699;}
	.st2{fill-rule:evenodd;clip-rule:evenodd;fill:#959699;}
	.st3{clip-path:url(#SVGID_2_);fill-rule:evenodd;clip-rule:evenodd;fill:#959699;}
	.st4{clip-path:url(#SVGID_2_);fill:#959699;}
</style>
<polygon class="st0" points="20,11.7 18.4,19.7 9.9,19.7 11.4,11.7 4.7,11.7 0,33 6.9,33 8.8,24.4 17.4,24.4 15.2,32.9 22.3,32.9
	27,11.7 "/>
<polygon class="st1" points="29.4,11.7 36.2,11.7 31.5,32.9 24.6,32.9 "/>
<polygon class="st1" points="43.1,11.7 51,11.7 41.5,21.5 47.1,32.8 38.9,32.8 34.2,21.8 "/>
<polygon class="st2" points="53.9,11.7 60.7,11.7 56.1,32.9 49.1,32.9 "/>
<g>
	<defs>
		<rect id="SVGID_1_" y="0" width="100.7" height="45.7"/>
	</defs>
	<clipPath id="SVGID_2_">
		<use xlink:href="#SVGID_1_"  style="overflow:visible;"/>
	</clipPath>
	<path class="st3" d="M60.1,31.8c3.1-5.1,8.5-10,8.5-10l-5.2-10.1h7.5l2.1,4.5c0,0,2.2-1.8,4.9-3.8c3.7-2.7,6.9-4.4,6.9-4.4
		s-0.4-0.9-1.5-1.9c-1.1-0.9-3.2-3.1-3.2-3.1s6.4,2,10.2,2.1c3.7,0.1,10.3-1.2,10.3-1.2s-2,2-5.5,5.6c-3.5,3.6-5.1,10.8-5.1,10.8
		s0-0.9-0.4-2.4c-0.4-1.5-1.1-2.9-1.1-2.9s-1.1,0.8-4.8,3.2c-3.7,2.4-7.1,5.3-7.1,5.3l4.5,9.2h-7.2l-2.8-5.3c0,0-1.3,0.7-4.5,3.5
		c-5.6,4.7-7.7,7.4-11.4,12.3c-2,2.7-2.4,3.7-0.8-0.5C54.6,42.9,55.6,39.4,60.1,31.8"/>
	<path class="st4" d="M54.4,4.4c0-2.4,2-4.4,4.4-4.4c2.4,0,4.4,2,4.4,4.4c0,2.4-2,4.4-4.4,4.4C56.4,8.8,54.4,6.9,54.4,4.4"/>
</g>
</svg>
