<?xml version="1.0" encoding="utf-8"?>
<!-- Generator: Adobe Illustrator 19.0.0, SVG Export Plug-In . SVG Version: 6.00 Build 0)  -->
<svg version="1.1" id="Layer_1" xmlns="http://www.w3.org/2000/svg" xmlns:xlink="http://www.w3.org/1999/xlink" x="0px" y="0px"
	 viewBox="-219 166 230 60" style="enable-background:new -219 166 230 60;" xml:space="preserve">
<style type="text/css">
	.st0{fill:url(#SVGID_1_);}
	.st1{fill:url(#SVGID_2_);}
	.st2{fill:url(#SVGID_3_);}
	.st3{fill:url(#SVGID_4_);}
	.st4{opacity:0.5;fill:url(#SVGID_5_);enable-background:new    ;}
	.st5{opacity:0.25;fill:url(#SVGID_6_);enable-background:new    ;}
	.st6{opacity:0.25;fill:url(#SVGID_7_);enable-background:new    ;}
	.st7{opacity:0.25;fill:url(#SVGID_8_);enable-background:new    ;}
	.st8{opacity:0.5;fill:url(#SVGID_9_);enable-background:new    ;}
	.st9{opacity:0.25;fill:url(#SVGID_10_);enable-background:new    ;}
	.st10{fill:url(#SVGID_11_);}
	.st11{opacity:0.25;fill:url(#SVGID_12_);enable-background:new    ;}
	.st12{fill:url(#SVGID_13_);}
	.st13{opacity:0.25;fill:url(#SVGID_14_);enable-background:new    ;}
	.st14{opacity:0.25;fill:url(#SVGID_15_);enable-background:new    ;}
	.st15{fill:url(#SVGID_16_);}
	.st16{fill:url(#SVGID_17_);}
	.st17{opacity:0.7;fill:url(#SVGID_18_);enable-background:new    ;}
	.st18{fill:#959699;}
</style>
<g>
	
		<linearGradient id="SVGID_1_" gradientUnits="userSpaceOnUse" x1="-198.4415" y1="-230.7883" x2="-198.4416" y2="-281.3316" gradientTransform="matrix(1 0 0 1 0 450.612)">
		<stop  offset="0" style="stop-color:#959699"/>
		<stop  offset="1" style="stop-color:#959699"/>
	</linearGradient>
	<path class="st0" d="M-191.6,205.1l-5.9-7.9l8.6-11.4h-4.7c-2.1,0-3.6,0.7-4.8,2.3l-4.6,6v-10.3v-6.3h-4.6c-1.1,0-2,0.9-2,2.1v4.2
		V205v5.4h4.6c1.1,0,2-0.9,2-2.1V205v-4.9l3.7,4.9l3.2,4.1c0.6,0.9,1.5,1.2,2.3,1.2h6.4L-191.6,205.1z"/>
	
		<linearGradient id="SVGID_2_" gradientUnits="userSpaceOnUse" x1="-198.7874" y1="-279.4667" x2="-198.7874" y2="-233.5019" gradientTransform="matrix(1 0 0 1 0 450.612)">
		<stop  offset="0" style="stop-color:#959699"/>
		<stop  offset="1" style="stop-color:#959699"/>
	</linearGradient>
	<path class="st1" d="M-189.1,209.5c-0.3-0.4-1.8-2.5-3.7-4.8c-2.4-3.1-4.9-6.6-5.5-7.4c1-1.2,7.1-9.5,7.9-10.4l0.3-0.4h-3.8
		c-1.5,0-3.2,0.8-4.1,2l-5.4,7.2l-0.1,0.1c-0.1,0-0.1-0.1-0.1-0.1v-11.1v-0.6v-5.7h-4c-0.7,0-1.4,0.7-1.4,1.5v4.2v0.6v20.2v5.3h4
		c0.7,0,1.4-0.7,1.4-1.5v-3.8v-6c0-0.1,0.1-0.1,0.1-0.1s0.1,0,0.1,0.1l4.6,6.1l3.2,4.2c0.5,0.7,1.3,1.1,1.9,1.1h5L-189.1,209.5z"/>
	
		<linearGradient id="SVGID_3_" gradientUnits="userSpaceOnUse" x1="-179.331" y1="-239.5049" x2="-179.331" y2="-273.0987" gradientTransform="matrix(1 0 0 1 0 450.612)">
		<stop  offset="0" style="stop-color:#959699"/>
		<stop  offset="1" style="stop-color:#959699"/>
	</linearGradient>
	<path class="st2" d="M-179.8,210.5c-3.5,0-5.9-2.6-5.9-6.4v-24.4c0-1.2,0.9-2.1,2-2.1h4.6v25.2c0,1.1,0.8,1.9,1.7,1.9h4.7v3.7
		c0,1.2-0.9,2.1-2,2.1L-179.8,210.5z"/>
	
		<linearGradient id="SVGID_4_" gradientUnits="userSpaceOnUse" x1="-179.331" y1="-272.3735" x2="-179.331" y2="-241.2638" gradientTransform="matrix(1 0 0 1 0 450.612)">
		<stop  offset="0" style="stop-color:#959699"/>
		<stop  offset="1" style="stop-color:#959699"/>
	</linearGradient>
	<path class="st3" d="M-179.8,209.9c-3.2,0-5.4-2.3-5.4-5.7v-24.4c0-0.8,0.6-1.5,1.4-1.5h4v24.5c0,1.4,1,2.5,2.3,2.5h4.1v3.1
		c0,0.8-0.6,1.5-1.4,1.5L-179.8,209.9L-179.8,209.9z"/>
	
		<radialGradient id="SVGID_5_" cx="73.5577" cy="56.0434" r="16.7682" gradientTransform="matrix(0.4852 0 0 0.5203 -244.5488 169.3691)" gradientUnits="userSpaceOnUse">
		<stop  offset="0" style="stop-color:#959699"/>
		<stop  offset="1" style="stop-color:#959699"/>
	</radialGradient>
	<rect x="-209" y="188.3" class="st4" width="0.1" height="21.6"/>
	
		<radialGradient id="SVGID_6_" cx="83.5389" cy="77.2849" r="8.6544" gradientTransform="matrix(0.4852 0 0 0.5203 -244.5488 169.3691)" gradientUnits="userSpaceOnUse">
		<stop  offset="0" style="stop-color:#959699"/>
		<stop  offset="1" style="stop-color:#959699"/>
	</radialGradient>
	<path class="st5" d="M-208.4,209.9c0.6,0,3.6,0,3.6,0c0.6,0,1.3-0.6,1.3-1.5v-9.6h-0.1v9.6c0,0.8-0.6,1.5-1.2,1.5
		C-204.8,209.9-208.2,209.9-208.4,209.9C-208.4,209.9-208.4,209.9-208.4,209.9z"/>
	
		<radialGradient id="SVGID_7_" cx="122.7881" cy="17.7835" r="12.836" gradientTransform="matrix(0.4852 0 0 0.5203 -244.5488 169.3691)" gradientUnits="userSpaceOnUse">
		<stop  offset="0" style="stop-color:#959699"/>
		<stop  offset="1" style="stop-color:#959699"/>
	</radialGradient>
	<path class="st6" d="M-185.2,188.2v-8.5c0-0.6,0.6-1.3,1.2-1.3c0,0,3.9,0,4,0l0.1-0.1c-0.6,0-4.1,0-4.1,0c-0.6,0-1.3,0.7-1.3,1.4
		L-185.2,188.2L-185.2,188.2L-185.2,188.2z"/>
	
		<radialGradient id="SVGID_8_" cx="122.4723" cy="50.8336" r="12.5005" gradientTransform="matrix(0.4852 0 0 0.5203 -244.5488 169.3691)" gradientUnits="userSpaceOnUse">
		<stop  offset="0" style="stop-color:#959699"/>
		<stop  offset="1" style="stop-color:#959699"/>
	</radialGradient>
	<path class="st7" d="M-185.2,204.3v-16.1h-0.1L-185.2,204.3L-185.2,204.3L-185.2,204.3z"/>
	
		<radialGradient id="SVGID_9_" cx="137.2371" cy="69.0255" r="6.3016" gradientTransform="matrix(0.4852 0 0 0.5203 -244.5488 169.3691)" gradientUnits="userSpaceOnUse">
		<stop  offset="0" style="stop-color:#959699"/>
		<stop  offset="1" style="stop-color:#959699"/>
	</radialGradient>
	<path class="st8" d="M-179.9,202.6c0,0.3,0,0.6,0.1,0.9c0.1,0.6,0.4,1,0.7,1.4c0.4,0.4,1,0.6,1.8,0.6c0,0,3.7,0,3.9,0v-0.1
		c-0.6,0-3.9,0-3.9,0c-0.9,0-1.5-0.4-1.9-0.9c-0.2-0.3-0.4-0.6-0.5-1.1C-179.8,203.2-179.8,202.9-179.9,202.6L-179.9,202.6z"/>
	
		<radialGradient id="SVGID_10_" cx="131.6916" cy="77.4476" r="11.5998" gradientTransform="matrix(0.4852 0 0 0.5203 -244.5488 169.3691)" gradientUnits="userSpaceOnUse">
		<stop  offset="0" style="stop-color:#959699"/>
		<stop  offset="1" style="stop-color:#959699"/>
	</radialGradient>
	<path class="st9" d="M-174.9,209.9h-5c-3.1,0-5.2-2.2-5.2-5.6h-0.1c0,3.3,2.1,5.6,5.3,5.6L-174.9,209.9L-174.9,209.9L-174.9,209.9z
		"/>
	
		<linearGradient id="SVGID_11_" gradientUnits="userSpaceOnUse" x1="-182.5305" y1="-256.9099" x2="-182.5305" y2="-258.2714" gradientTransform="matrix(1 0 0 1 0 450.612)">
		<stop  offset="0" style="stop-color:#959699"/>
		<stop  offset="1" style="stop-color:#959699"/>
	</linearGradient>
	<path class="st10" d="M-185.2,193.7h5.4c0-1.2,0-2.5,0-3.7h-5.4V193.7z"/>
	
		<radialGradient id="SVGID_12_" cx="99.2058" cy="48.8295" r="5.9096" gradientTransform="matrix(0.4852 0 0 0.5203 -244.5488 169.3691)" gradientUnits="userSpaceOnUse">
		<stop  offset="0" style="stop-color:#959699"/>
		<stop  offset="1" style="stop-color:#959699"/>
	</radialGradient>
	<path class="st11" d="M-198.3,197.3c0,0,7.2-9.5,8-10.6h-0.1c-0.2,0.2-8,10.6-8,10.6H-198.3z"/>
	
		<linearGradient id="SVGID_13_" gradientUnits="userSpaceOnUse" x1="-196.6832" y1="-256.7322" x2="-196.6832" y2="-260.0564" gradientTransform="matrix(1 0 0 1 0 450.612)">
		<stop  offset="0" style="stop-color:#959699"/>
		<stop  offset="0.5337" style="stop-color:#959699"/>
		<stop  offset="1" style="stop-color:#959699"/>
	</linearGradient>
	<path class="st12" d="M-193.9,186.4c-1.4,0-3.1,0.8-4,2l-5.4,7.2l5,1.7c0,0,7.3-9.6,8.1-10.7C-191.1,186.5-193.9,186.4-193.9,186.4
		z"/>
	
		<radialGradient id="SVGID_14_" cx="103.969" cy="77.9532" r="7.8578" gradientTransform="matrix(0.4852 0 0 0.5203 -244.5488 169.3691)" gradientUnits="userSpaceOnUse">
		<stop  offset="0" style="stop-color:#959699"/>
		<stop  offset="1" style="stop-color:#959699"/>
	</radialGradient>
	<path class="st13" d="M-195.5,208.9c0.5,0.6,1.2,1,1.8,1c0,0,3.2,0,4.4,0l-0.1-0.1c-0.3,0-4.3,0-4.3,0
		C-194.2,209.9-195,209.5-195.5,208.9L-195.5,208.9z"/>
	
		<radialGradient id="SVGID_15_" cx="4837.1255" cy="4914.1738" r="8.713" gradientTransform="matrix(-0.4852 0 0 -0.5203 2138.5637 2735.4282)" gradientUnits="userSpaceOnUse">
		<stop  offset="0" style="stop-color:#959699"/>
		<stop  offset="1" style="stop-color:#959699"/>
	</radialGradient>
	<path class="st14" d="M-204.1,178.2c-0.6,0-3.6,0-3.6,0c-0.6,0-1.3,0.6-1.3,1.5v9.8h0.1v-9.8c0-0.8,0.6-1.5,1.2-1.5
		C-207.7,178.3-204.4,178.3-204.1,178.2L-204.1,178.2L-204.1,178.2z"/>
	<g>
		
			<linearGradient id="SVGID_16_" gradientUnits="userSpaceOnUse" x1="-172.0271" y1="-264.9284" x2="-202.5003" y2="-256.952" gradientTransform="matrix(1 0 0 1 0 450.612)">
			<stop  offset="0" style="stop-color:#959699"/>
			<stop  offset="0.4775" style="stop-color:#959699"/>
			<stop  offset="0.5928" style="stop-color:#959699"/>
			<stop  offset="0.6903" style="stop-color:#959699"/>
			<stop  offset="0.7812" style="stop-color:#959699"/>
			<stop  offset="0.8258" style="stop-color:#959699"/>
			<stop  offset="0.927" style="stop-color:#959699"/>
			<stop  offset="0.9441" style="stop-color:#959699"/>
			<stop  offset="0.9565" style="stop-color:#959699"/>
			<stop  offset="0.9674" style="stop-color:#959699"/>
			<stop  offset="0.9775" style="stop-color:#959699"/>
			<stop  offset="0.9869" style="stop-color:#959699"/>
			<stop  offset="0.9958" style="stop-color:#959699"/>
			<stop  offset="1" style="stop-color:#959699"/>
		</linearGradient>
		<path class="st15" d="M-177.1,186.6c-3.7,0-17.1,0-17.1,0c-2.3,0-3.9,0.9-4.9,2.3l-3.3,4.4l0,0c1.2-1,2.8-1.5,4.6-1.5h20.8
			c2.7,0,5.2-0.9,5.2-3.1s-0.2-3.5-0.2-3.5S-173.4,186.6-177.1,186.6z"/>
	</g>
	
		<linearGradient id="SVGID_17_" gradientUnits="userSpaceOnUse" x1="-194.0842" y1="-267.8111" x2="-177.9808" y2="-254.2988" gradientTransform="matrix(1 0 0 1 0 450.612)">
		<stop  offset="0" style="stop-color:#959699"/>
		<stop  offset="1.690000e-002" style="stop-color:#959699"/>
		<stop  offset="2.920000e-002" style="stop-color:#959699"/>
		<stop  offset="6.470000e-002" style="stop-color:#959699"/>
		<stop  offset="9.370000e-002" style="stop-color:#959699"/>
		<stop  offset="0.1124" style="stop-color:#959699"/>
		<stop  offset="0.287" style="stop-color:#959699"/>
		<stop  offset="0.4775" style="stop-color:#959699"/>
		<stop  offset="0.7079" style="stop-color:#959699"/>
		<stop  offset="1" style="stop-color:#959699"/>
	</linearGradient>
	<path class="st16" d="M-202.3,193.2l3.8-5.1c0.9-1.2,2.2-2.4,4.8-2.4h16.6c3.5,0,4.7-1.4,4.7-1.4l0.4-0.4v4.6c0,0,0.1,0.7-0.5,1.4
		c-0.8,0.9-2.4,1.4-4.6,1.4H-198C-200.5,191.4-202.3,193.2-202.3,193.2z"/>
	
		<radialGradient id="SVGID_18_" cx="89.21" cy="43.4629" r="59.9113" gradientTransform="matrix(0.4852 0 0 0.5203 -244.5488 169.3691)" gradientUnits="userSpaceOnUse">
		<stop  offset="0" style="stop-color:#959699"/>
		<stop  offset="0.236" style="stop-color:#959699"/>
		<stop  offset="0.7584" style="stop-color:#959699"/>
		<stop  offset="0.7855" style="stop-color:#959699"/>
		<stop  offset="0.8173" style="stop-color:#959699"/>
		<stop  offset="0.8514" style="stop-color:#959699"/>
		<stop  offset="0.8871" style="stop-color:#959699"/>
		<stop  offset="0.9241" style="stop-color:#959699"/>
		<stop  offset="0.9621" style="stop-color:#959699"/>
		<stop  offset="1" style="stop-color:#959699"/>
	</radialGradient>
	<path class="st17" d="M-172,188.9c0,0.4-0.6,2.4-5.1,2.4h-20.5c-1.9,0-3.3,0.6-4.8,1.9l-0.1,0.1c1.1-0.9,2.5-1.9,4.8-1.9h20.5
		C-172,191.4-172,188.9-172,188.9L-172,188.9z"/>
</g>
<g>
	<path class="st18" d="M-162.1,196.9c0-7,4.1-11.4,9.6-11.4c2.7,0,4.7,1.3,6,2.7l-1.4,1.6c-1.1-1.3-2.6-2.1-4.6-2.1
		c-4.3,0-7.1,3.5-7.1,9.1c0,5.7,2.7,9.2,7,9.2c2.1,0,3.8-0.9,5.2-2.5l1.4,1.6c-1.7,2-3.8,3.1-6.7,3.1
		C-158.1,208.3-162.1,204-162.1,196.9z"/>
	<path class="st18" d="M-143.2,199.8c0-5.4,3.5-8.5,7.4-8.5s7.5,3.1,7.5,8.5c0,5.3-3.5,8.5-7.5,8.5S-143.2,205.2-143.2,199.8z
		 M-130.9,199.8c0-3.9-2-6.5-5-6.5c-2.9,0-4.9,2.6-4.9,6.5c0,3.8,2,6.4,4.9,6.4C-132.9,206.3-130.9,203.7-130.9,199.8z"/>
	<path class="st18" d="M-123.9,191.7h2l0.2,3h0.1c1.1-2,2.8-3.4,4.6-3.4c0.7,0,1.2,0.1,1.7,0.4l-0.5,2.1c-0.5-0.2-0.9-0.3-1.5-0.3
		c-1.4,0-3.1,1-4.2,3.8v10.6h-2.4V191.7z"/>
	<path class="st18" d="M-112.6,191.7h2l0.2,1.9h0.1c1.5-1.2,3.3-2.3,5.2-2.3c4.2,0,6.5,3.3,6.5,8.2c0,5.5-3.3,8.8-7.1,8.8
		c-1.5,0-3-0.7-4.6-1.9l0.1,2.8v5.6h-2.4V191.7z M-101.1,199.6c0-3.7-1.3-6.2-4.5-6.2c-1.4,0-2.9,0.8-4.5,2.3v8.8
		c1.5,1.3,3,1.8,4.1,1.8C-103.2,206.2-101.1,203.7-101.1,199.6z"/>
	<path class="st18" d="M-95.4,199.8c0-5.4,3.5-8.5,7.4-8.5s7.5,3.1,7.5,8.5c0,5.3-3.5,8.5-7.5,8.5S-95.4,205.2-95.4,199.8z
		 M-83,199.8c0-3.9-2-6.5-5-6.5c-2.9,0-4.9,2.6-4.9,6.5c0,3.8,2,6.4,4.9,6.4C-85,206.3-83,203.7-83,199.8z"/>
	<path class="st18" d="M-76,191.7h2l0.2,3h0.1c1.1-2,2.8-3.4,4.6-3.4c0.7,0,1.2,0.1,1.7,0.4l-0.5,2.1c-0.5-0.2-0.9-0.3-1.5-0.3
		c-1.4,0-3.1,1-4.2,3.8v10.6H-76V191.7z"/>
	<path class="st18" d="M-66.5,203.7c0-3.5,3.1-5.3,10-6.1c0-2.2-0.7-4.4-3.5-4.4c-1.9,0-3.7,0.9-4.9,1.8l-1-1.7
		c1.4-0.9,3.7-2.1,6.3-2.1c3.9,0,5.5,2.7,5.5,6.6v10h-2l-0.2-2h-0.1c-1.6,1.3-3.4,2.4-5.5,2.4C-64.5,208.3-66.5,206.7-66.5,203.7z
		 M-56.5,204.1v-4.7c-5.7,0.7-7.7,2-7.7,4.3c0,2,1.3,2.7,3,2.7C-59.5,206.3-58.1,205.5-56.5,204.1z"/>
	<path class="st18" d="M-48.7,203v-9.3h-2.5v-1.9l2.5-0.1l0.3-4.6h2.1v4.6h4.5v2h-4.5v9.4c0,2,0.6,3.2,2.5,3.2
		c0.6,0,1.4-0.2,1.9-0.4l0.5,1.8c-0.9,0.3-2,0.6-2.9,0.6C-47.6,208.3-48.7,206.2-48.7,203z"/>
	<path class="st18" d="M-38.6,186.6c0-1,0.8-1.7,1.8-1.7c1,0,1.8,0.6,1.8,1.7c0,1-0.8,1.6-1.8,1.6
		C-37.9,188.2-38.6,187.5-38.6,186.6z M-38.1,191.7h2.4v16.2h-2.4V191.7z"/>
	<path class="st18" d="M-31.3,199.8c0-5.4,3.5-8.5,7.4-8.5s7.5,3.1,7.5,8.5c0,5.3-3.5,8.5-7.5,8.5S-31.3,205.2-31.3,199.8z
		 M-18.9,199.8c0-3.9-2-6.5-5-6.5c-2.9,0-4.9,2.6-4.9,6.5c0,3.8,2,6.4,4.9,6.4C-20.9,206.3-18.9,203.7-18.9,199.8z"/>
	<path class="st18" d="M-11.9,191.7h2l0.2,2.4h0.1c1.6-1.5,3.2-2.8,5.5-2.8c3.4,0,5,2.2,5,6.3v10.3h-2.5v-10c0-3.1-1-4.5-3.2-4.5
		c-1.7,0-2.9,0.9-4.6,2.6v11.8h-2.4V191.7z"/>
</g>
</svg>
