<?xml version="1.0" encoding="utf-8"?>
<!-- Generator: Adobe Illustrator 21.1.0, SVG Export Plug-In . SVG Version: 6.00 Build 0)  -->
<svg version="1.1" id="xiala" xmlns="http://www.w3.org/2000/svg" xmlns:xlink="http://www.w3.org/1999/xlink" x="0px" y="0px"
	 viewBox="0 0 168.3 37.3" style="enable-background:new 0 0 168.3 37.3;" xml:space="preserve">
<style type="text/css">
	.st0{fill:#959699;}
</style>
<path id="ayXMLID_42_" class="st0" d="M10.1,15.2c0.7-3.5,3.8-6,7.4-6c3,0,5.7,1.8,6.9,4.4c0,0,0.1,0.1,0.1,0c0.9-0.2,2-0.4,3-0.3
	c0.1,0,0.1-0.1,0.1-0.1C26.2,9,22.2,6,17.6,6C12.2,6,7.8,9.9,7,15.1c-1.7,0.3-3.3,1.1-4.4,2.3c-3.1,3.2-3.1,8.2,0.1,11.3
	C4,30,5.5,30.6,7.2,30.9C7.8,31,8.7,31,9.5,31h15.2c1.2,0,1.9,0,2.7-0.1c1.9-0.1,3.6-0.8,5.1-2.2c3.2-3.1,3.2-8.2,0.1-11.3
	c-1.5-1.5-3.5-2.4-5.7-2.4c-1.9,0-3.6,0.7-5.1,1.9c-0.6,0.5-1.3,1.1-2.1,1.9c-0.3,0.3-5.8,5.6-9.4,9.1H8.4c-1.8-0.1-2.9-0.8-3.5-1.4
	c-1.9-1.9-2-5-0.1-6.9c0.9-0.9,2.1-1.4,3.5-1.5c0.8,0,2,0.2,3.3,1.3c0.6,0.5,2,1.7,2.6,2.3h0.1l2.1-2.1v-0.1c-1-0.9-2.5-2.2-3.4-2.9
	C12.2,15.9,11.2,15.4,10.1,15.2z M30.2,26.5c-0.6,0.6-1.7,1.3-3.5,1.4h-12c3.5-3.4,6.6-6.4,6.9-6.7c0.3-0.3,1-1,1.7-1.6
	c1.4-1.2,2.6-1.5,3.4-1.5c1.4,0,2.6,0.6,3.5,1.5C32.2,21.5,32.2,24.6,30.2,26.5z"/>
<g id="ayXMLID_21_">
	<path id="ayXMLID_16_" class="st0" d="M128.5,22c0-0.1-0.1-0.1-0.2-0.1c-1.2,1.3-2.9,2.4-5.2,2.4c-3.3,0-5.5-2.3-5.5-5.9
		s2-5.9,5.3-5.9c1.9,0,3.9,0.9,5.1,2.2c0.1,0.1,0.2,0,0.2-0.1v-1.8c-1.3-1.2-3.3-1.9-5.3-1.9c-2.1,0-3.8,0.7-5.1,2.1
		c-1.2,1.4-1.9,3.3-1.9,5.5c0,4.5,2.9,7.6,7.1,7.6c2,0,4-0.8,5.4-2L128.5,22L128.5,22z"/>
	<path id="ayXMLID_15_" class="st0" d="M37.9,11.2v1.6h5v12.8h1.7V12.8h5v-1.6H37.9z"/>
	<path id="ayXMLID_37_" class="st0" d="M166.6,16.2c-0.9-1-2.4-1.3-3.5-1.3c-1.4,0-2.7,0.5-3.6,1.5c-0.9,1-1.4,2.4-1.4,4
		c0,3.8,2.5,5.6,5.1,5.6c1.5,0,2.7-0.5,3.4-1.5v1.2h1.7V11.3h-1.7V16.2z M166.5,20.4c0,2-1.1,4-3.3,4c-1.6,0-3.4-1.2-3.4-3.9
		c0-2,1-4.1,3.3-4.1C165.6,16.4,166.5,18.6,166.5,20.4z"/>
	<path id="ayXMLID_12_" class="st0" d="M130.7,11.3h1.7v14.4h-1.7V11.3z"/>
	<path id="ayXMLID_11_" class="st0" d="M80.6,23c0-0.1-0.1-0.1-0.2-0.1c-1.1,1-2.8,1.4-3.5,1.4c-2.3,0-3.8-1.5-3.8-3.9
		s1.5-3.9,3.8-3.9c0.7,0,2.3,0.2,3.5,1.2c0.1,0.1,0.2,0,0.2-0.1V16c-0.7-0.4-2.2-1.1-3.7-1.1c-3.2,0-5.3,2.2-5.3,5.5
		s2.1,5.5,5.3,5.5c1.3,0,2.6-0.4,3.7-1.1V23z"/>
	<path id="ayXMLID_32_" class="st0" d="M58,22.7c0-0.1-0.1-0.1-0.2-0.1c-0.8,1-2.6,1.8-3.7,1.8S52,24,51.5,23.5
		c-0.7-0.7-1-1.6-1-2.6h8.1v-0.1c0-2.3-0.4-3.6-1.4-4.6c-0.8-0.9-2-1.3-3.4-1.3c-3,0-5,2.2-5,5.5c0.1,3.5,2.1,5.6,5.3,5.6
		c1.5,0,2.8-0.5,4-1.5L58,22.7L58,22.7z M56.9,19.4h-6.4c0.1-0.9,0.5-1.7,1.2-2.3c0.6-0.5,1.3-0.7,2.1-0.7
		C55.6,16.4,56.8,17.5,56.9,19.4z"/>
	<path id="ayXMLID_8_" class="st0" d="M154.4,20.5c0,2.9-1.7,3.9-3.1,3.9c-1.4,0-2.8-0.9-2.8-2.7v-6.6h-1.6v6.5
		c0,2.5,1.8,4.3,4.4,4.3c1.4,0,2.5-0.5,3.3-1.4v1.2h1.6V15.1h-1.7L154.4,20.5L154.4,20.5z"/>
	<path id="ayXMLID_7_" class="st0" d="M65.3,14.9c-1.3,0-2.4,0.4-3.2,1.2v-1h-1.6v10.6h1.7v-6c0-1,0.3-1.8,0.9-2.4
		c0.6-0.6,1.3-0.9,2.2-0.8c1.3,0,2.6,0.9,2.6,2.7v6.5h1.7v-6.6c0-1.3-0.4-2.4-1.2-3.1C67.6,15.2,66.5,14.9,65.3,14.9z"/>
	<path id="ayXMLID_27_" class="st0" d="M91.4,22.7c0-0.1-0.1-0.1-0.2-0.1c-0.8,1-2.6,1.8-3.7,1.8s-2.1-0.4-2.6-0.9
		c-0.7-0.7-1-1.6-1-2.6H92v-0.1c0-2.3-0.4-3.6-1.4-4.6c-0.8-0.9-2-1.3-3.4-1.3c-3,0-5,2.2-5,5.5c0.1,3.5,2.1,5.6,5.3,5.6
		c1.5,0,2.8-0.5,4-1.5L91.4,22.7L91.4,22.7z M90.3,19.4h-6.4c0.1-0.9,0.5-1.7,1.2-2.3c0.6-0.5,1.3-0.7,2.1-0.7
		C89,16.4,90.2,17.5,90.3,19.4z"/>
	<path id="ayXMLID_4_" class="st0" d="M98.6,14.9c-1.3,0-2.4,0.4-3.2,1.2v-1h-1.6v10.6h1.7v-6c0-1,0.3-1.8,0.9-2.4s1.3-0.9,2.2-0.8
		c1.3,0,2.6,0.9,2.6,2.7v6.5h1.7v-6.6c0-1.3-0.4-2.4-1.2-3.1C100.9,15.2,99.9,14.9,98.6,14.9z"/>
	<path id="ayXMLID_3_" class="st0" d="M108.3,25.8c1-0.1,2.2-0.5,2.2-0.5v-1.6c0-0.1-0.1-0.1-0.1-0.1c-0.4,0.1-1.3,0.4-1.8,0.5
		c-0.2,0-0.3,0.1-0.4,0s-0.1-0.2-0.1-0.3v-7.1h3v-1.6h-3v-2.8h-1.8v2.8h-1.7v1.5h1.7v7.3c0,0.6,0.2,1.1,0.6,1.4
		C107.2,25.6,107.7,25.8,108.3,25.8z"/>
	<path id="ayXMLID_22_" class="st0" d="M139.9,14.9c-3.1,0-5.1,2.2-5.1,5.5s2.1,5.5,5.1,5.5c3.1,0,5.1-2.2,5.1-5.5
		S142.9,14.9,139.9,14.9z M136.3,20.4c0-2.3,1.4-3.9,3.5-3.9s3.5,1.6,3.5,3.9s-1.4,3.9-3.5,3.9C137.8,24.3,136.3,22.7,136.3,20.4z"
		/>
</g>
</svg>
