<?xml version="1.0" encoding="utf-8"?>
<svg version="1.1" xmlns="http://www.w3.org/2000/svg" xmlns:xlink="http://www.w3.org/1999/xlink" x="0px" y="0px"
	 viewBox="-232 390.9 230 60" style="enable-background:new -232 390.9 230 60;" xml:space="preserve">
<style type="text/css">
	.st0{fill:#959699;}
</style>
<g>
	<path class="st0" d="M-127.5,399.9c-0.1,0-0.2,0-0.3,0c-1.3-0.3-3.9-0.5-5.4-0.2c-0.6,0.1-1.4,0.7-1.8,0.5
		c-0.2-0.2-0.5-0.3-0.7-0.5c0,0,0,0,0,0c-1-1.4-2.3-3.7-3.3-5.1c-0.3-0.4-1.4-0.7-1.7-1c-0.4,0-0.9,0-1.3,0c0,0.1-0.1,0.1-0.1,0.2
		c-0.2,0.4,0.4,3.2,0.6,4.1c-0.1,1.5-0.1,3-0.2,4.5c-0.2,0.2-0.3,0.3-0.5,0.5c0,0.3,0,0.6-0.1,0.9c-0.5,0.2-1.1,0.4-1.6,0.6
		c-1.7,0.8-3.5,1.6-5.2,2.5c0,0,0,0,0-0.1c0-0.4,0.1-0.8,0.1-1.1c-0.6-0.6-0.8-2.3-1.2-2.9c0,0,0,0,0,0c-0.9,0.5-3.8,8.1-4.3,9.8
		c-0.2,0.5-0.5,2.9-0.2,3.4c0-0.1,0.4,0.4,0.4,0.5c0.3,0.6,0.4,1.3,0.7,1.6c0.1,0,0.8,0.5,0.9,0.8c0.6-0.2,1.2-0.6,1.9-0.5
		c0.2,0.7,0.3,1.4,0.5,2.1c1.2,1.3,6.6-1,8.2-1.3c0.9,1.1,0.2,1.9,0.5,3.8c0.1,0.6,0.2,1.1,0.4,1.5c0,0.9-0.1,1.8-0.1,2.7
		c0,1,0.3,1.6,0.3,2.2c0,0.4-0.4,0.9-0.2,1.5c0.2,0.6,0.4,1.2,0.5,1.9c0.5,2.2,0.1,2.8,2,3.4c0.4,0.1,0.4,0.3,0.8,0.3
		c0.3-1.1,1.4-1.7,1.6-2.7c0-0.4-0.1-0.8-0.1-1.2c0.1-1.2,0.2-2.4,0.3-3.6c0.5-1.2,0.9-2.4,1.4-3.7c0.2-0.9-0.1-4.4,0.7-4.3
		c0.2-0.3,0.3-0.6,0.5-0.9c0.1-0.2,0.1-0.4,0.2-0.6c0.4-1.5,0.7-2.8,1.8-3.6c0.6-0.4,2.8-0.3,3-0.8c0.2-0.3,0.6-0.7,0.8-1.2
		c0-0.3,0.1-0.5,0.1-0.8c0.2-1.5,0.2-2.7,0.6-4c0.2-0.6,0.5-1.2,0.7-1.7c0.3-0.8,0.9-5.9,0.5-6.2
		C-126.3,400.5-127,400.3-127.5,399.9z M-141.8,411.7c-1.6,2.7-3.2,2.1-6,3.2c-0.8,0.3-1.3,1.9-2.6,1.6c-0.4-0.6,0.9-2.6,1.2-2.9
		c0.3-0.7,0.7-1.5,1-2.2c1.5-2.4,4.4-2.2,5.8-4.1c0.2,0.8,0.4,1.5,0.5,2.3C-141.4,410.1-141.5,411.1-141.8,411.7z M-129.8,407.6
		c-0.4,0.5-1.9,0.8-2.8,0.9c0,0,0,0,0-0.1c-0.2-0.1-0.5-2.8-0.4-3.3c-1-1.7,5-3.4,6.4-4.1C-125.5,402.4-129.2,407-129.8,407.6z
		 M-165.8,398.1c-0.9-0.4-1.7-0.9-2.6-1.3c-0.7-0.3-1.5-0.5-2.2-0.8c-2-0.7-5.5-1.4-8.1-1.4c0.2,1.1,0.5,2.1,0.7,3.2
		c0.9,0.2,1.7,0.5,2.6,0.7c2.2,0.9,4.2,2.3,3,5.9c-0.4,1-1.2,1.4-1.6,2.3c-0.1,0-0.1,0-0.2-0.1c0.1,0.3-2.1,2.1-2.6,2.3
		c-1.4,2-11.1,6-14.5,6.4c0.7-5,1.6-10.8,5.3-12.4c1.4-0.6,2.4,0.6,3.2,0.9c0.7-0.2,1.5-0.4,2.2-0.7c-0.5-0.9-1.1-1.9-1.6-2.8
		c-1.3-2-4.6-5.6-7.8-5.1c-1,0.2-2,0.2-2.7,0.6c-0.2,0.1-2.3,1.8-2.4,1.7c0,0-2.7,4-3.1,4.6c-2,3.8-3,8.6-3.9,13.6
		c-2.7,0-6.5-1.5-7.6-3c-0.2-0.3-0.4-0.9-0.5-1c-0.4-0.1-0.5-1.5-0.3-1.9c-0.2-0.2,0.6-1.9,0.7-2c2.2-2.8,5.8-5.5,9.9-7.1
		c-0.3-0.7-0.6-1.5-0.8-2.2c-0.7,0.1-1.5,0.6-2.2,0.9c-2.1,0.9-5.2,2.1-6.6,3.5c-0.9,0.8-1.9,1.2-2.8,1.9c-0.1,0-0.2,0.1-0.3,0.1
		c-0.1,0.1-0.3,0.2-0.4,0.3c-1,0.7-1.9,2.1-2.8,2.8c-0.1,0.1-0.2,0.4-0.4,0.3c-1,1-1.3,2.7-2.3,3.9c-0.1,0.4-0.2,0.8-0.3,1.1
		c-0.5,1.7-0.1,3.8,0.4,5c0,0.1,0,0.1,0,0.2c0.3,0.3,0.6,0.8,0.6,1.1c0.3,0.3,1.1,0.9,1.1,1.3c1.9,1.5,3.7,2.4,6.4,3.3
		c0.6,0.2,5.3,1,5.3,1c0.9,0,1.8,0.1,2.6,0.1c0.4,2.4,0.5,4.8,0.9,7c0,0.3,0.1,0.7,0.1,1c0.5,1.8,1,3.6,1.4,5.5
		c2.1,4.4,2.8,6.5,6.3,9.5c1.3,1.1,4.9,1.5,6.4,0.5c0.5-0.3,1-0.6,1.5-1c0.6-0.1,2.3-2.5,2.8-3c0.5-0.5,0.9-1.4,1.2-2
		c1.7-3.2,2.7-6.7,3.8-11.1c0.2-1,0.3-1.9,0.5-2.9c-1.4,0.3-2.8,0.7-4.1,1c-0.4,2.9-2.4,11.5-5.2,11c-3-0.5-5.2-11.3-5.1-16
		c2.8-0.8,5.5-1.5,8.3-2.3c1.9-0.7,3.9-1.5,5.8-2.2c1.6-0.8,3.2-1.6,4.9-2.5c0.4-0.5,1.7-0.8,2.1-1.3c0.5-0.6,1.1-0.6,1.6-1.1
		c0.7-0.8,1.6-1.5,2.4-2.1c0.9-0.7,2.6-2.4,3.1-3.4c0.7-1.4,1.4-2.7,1.7-4.9c0.2-1.3-1-4.2-1-4.2S-165.5,398.4-165.8,398.1z
		 M-94.4,433.6c0.5,0.5,2,0.9,2.8,1.2c0.3-0.5,1.2-1,1.4-1.9c0-0.7,0-1.4,0-2c0.1-0.9,0.2-1.9,0.4-2.8c-0.1-0.7-0.7-1.5-0.5-2.4
		c0.4-2.2,0.4-7.2,0.1-9.8c0-1.6-0.1-3.1-0.1-4.7c0-1.3-0.1-2.5-0.1-3.8c-0.3-1-0.4-1.8-0.1-2.8c0.3-1.2-0.2-2.1-0.3-2.9
		c-0.1-0.9,0.4-1.6,0.5-2.4c0.1-1.1-1.7-3.6-2.2-3.9c-2-1-5.2,0.3-6.8,0.7c-0.4,0.1-4.9,0.7-4.9,0.7c-1.3,0.5-2.5,1.1-3.8,1.6
		c-0.4,0.3-0.8,0.5-1.2,0.8c0,0,0,0-0.1,0c-0.8,0.1-1.6,0.3-2.3,0.4c-0.6,0.3-1.3,0.6-1.9,0.9c0.3,0.1,0.7,0.3,1,0.4
		c0.1,0.2,0.3,0.4,0.4,0.6c0,0,0,0,0.1,0c0.3,0,0.5,0.1,0.8,0.1c1.8,0.3,2.6-0.2,3.9-0.7c2.8-1.2,5.6-2.3,9.8-2.5
		c0.6,0,1.1,0.1,1.7,0.1c1.9,0.8,1.4,4.6,1.1,7.1c-0.1,1.8-0.3,3.7-0.4,5.5c0,1,0,2.1,0.1,3.1c-0.3,2.1-0.1,5.4,0.2,7.9
		c-0.2,0.6-0.4,1.2-0.6,1.8c0,0.8,0,1.6,0,2.4c-0.7,0-1.9-2.1-2.5-1.4c-0.4,0.5,0.9,3,1.1,3.4c0.4,0.8,0.9,1.5,1.3,2.3
		C-95.2,431.5-95.1,432.9-94.4,433.6z M-36.4,405.1c2-0.7,3.8-1.1,6-1.5c2.7,0,5.5-0.1,8.2-0.1c1.2-0.7,2.9,1,3-1.4
		c0.5-0.5,1.1-0.4,1.1-1.6c-1.3-0.3-3.6-0.1-5.2-0.3c0-0.9,0-1.9,0-2.8c-0.8-0.5-3.4-2-4.8-2c-0.8,0.3-0.5,0.8-0.9,1.2
		c-0.3,0.1-0.5,0.1-0.8,0.2c-0.9,0.7-1.5,1.7-2.7,2.1c0,0.1,0.1,0.3,0.1,0.4c0.4-0.1,0.7-0.1,1.1-0.2c1.3-0.2,2.6,0.4,3.2,1
		c0.1-0.2,0.4,0.5,0.2,0.8c-0.6,0.8-5.7,1.4-7.4,1.5c-0.1,0-0.3,0-0.4,0c0,0-1.8,0.7-1.8,0.7c-0.4,0.1-0.8-0.1-1.1,0.2
		C-38.5,404.2-37.8,405.6-36.4,405.1z M-63.7,431c0.4-0.2,0.8-0.4,1.2-0.7c0.5,0,1,0,1.5,0c0.8-0.2,4.8-1.9,5.4-1.6
		c0.2-0.9,2.3-1.7,2.2-2.7c0-0.6-0.8-0.9-1.1-1.3c-0.2-0.3-0.2-0.6-0.4-0.8c-0.9-0.7-2.2,0.4-3,0.7c-2.3,0.8-11.7,3.6-10.7-1.1
		c0,0,0.1,0,0.1,0c0.5-0.4,1.1-1.3,1.6-1.9c0,0,0,0.1,0.1,0.1c0-0.1,0-0.1,0-0.2c0.6,0,1.2-0.1,1.8-0.1c0.5-0.5,4.2-1.4,5.6-1.1
		c0.1-0.9,0.9-1.4,1.5-2.1c0-0.2,0-0.4,0-0.6c0-1.3-0.3-2.8-1-3.2c0.5-2,3.2-6.8,1.7-9c-0.2-0.4-0.6-0.6-0.8-1
		c-0.5-1.1-0.4-1.8-2-1.8c-0.2-0.2-0.3-0.4-0.5-0.6c-0.6,0.2-1.8-0.4-2.3-0.2c-1.7,0.5-2.7,2.3-4.7,2.2c0.5-3.9,1.1-4.8-3-5.7
		c0.2,1.3-0.7,1.9-1,2.8c-0.2,1.4-0.4,2.7-0.6,4.1c0,0.1,0,0.1,0,0.2c-0.2,0.1-0.3,0.3-0.5,0.4c-0.8,0.9-3.5,1.5-3.7,2.6
		c0.3,0,0.5,0,0.8,0c0.1,0.1,0.4,0.3,0.5,0.6c0.7-0.1,1-0.4,1.9-0.4c0,0.4,0.1,0.7,0.1,1.1c-0.5,0.9-2.4,3.5-3.6,3.5
		c-0.1-0.7,0.1-1.5,0.2-2c0.3-2-0.3-2.7-1.6-3.5c-0.1-0.3,0.1-0.9-0.1-1c-0.2-0.1-0.5,0.3-0.5,0.5c-0.4,1.4-1,1.9-1.5,2.9
		c0,0.7,0,1.5,0,2.2c-0.2,1.8-0.1,3.5-0.5,4.8c-0.1,0.3-1.1,2.5-0.7,3.2c0.7,0.2,1.2,0.8,2.2,1c1.2,1.4,1.3,2.2,3.9,2.3
		c0.4,1.4,0.8,4.5,1.7,5.1c0.8,0.5,1.1,1.1,2,1.5c1.6,0.8,4.1,0.7,6.6,0.7C-64.6,431-64.2,431-63.7,431z M-64.1,414.6
		c-0.2,0.3-3.2,1.8-3.7,1.2c-0.2-0.2-0.4-0.7-0.3-1.4c0.3-1.6,2.1-2.4,3.6-2.8c0.4,0,0.8-0.1,1.2-0.1c0,0.2,0.1,0.5,0.1,0.7
		C-63.3,413.4-63.7,413.9-64.1,414.6z M-65.5,405.9c0.2-0.2,0.3-0.4,0.5-0.5c0.4,0,0.9,0,1.3-0.1c0.7,0,0.8,0.2,1.5,0.2
		c0.1,0.3,0.5,0.8,0.3,1.2c0,0,0,0,0,0c-0.4,0.4-0.9,0.3-1.5,0.7c-0.6,0.5-1.3,0.9-1.9,1.4c-0.5,0.3-2.9-0.1-3-0.3
		C-69.6,406.9-65.7,405.6-65.5,405.9z M-75.2,419.2c-1.2,0-2,0.6-2.6,1c0,0,0,0-0.1,0c0.1-0.6,0.1-1.1,0.2-1.7c0.3-2,0.4-2.4,2-2.9
		c0.4,0,0.7,0.1,1.1,0.1C-74.2,417-74.9,418.2-75.2,419.2z M-99.8,402.3c-0.2-0.4-0.5-0.7-0.7-1.1c-1.1,0.3-2.3,0.5-3.4,0.8
		c-2.1,0.6-4.4,1.2-6.1,2.2c-0.3,0.1-0.6,0.2-0.9,0.4c-0.5,0.4-1,0.7-1.4,1.1c-0.5,0.3-1.3,0-1,1c0.5,0.3,1.5,0.3,1.8,0.9
		c0.2,0.6-0.2,0.7,0.3,1.2c0.7,0.8,3.2-1.3,3.2,1.3c-0.1,0.5-0.2,0.9-0.3,1.4c-0.6,0.2-1.3,0.4-1.9,0.6c-0.9,0.3-1.7,1.2-2.5,1.8
		c0.2,0.4-0.1,0.7-0.4,0.7c0.1,0.9,0.6,1.3,1.6,1.3c0.2,0.3,0.4,0.7,0.6,1c0.4,0,0.7,0.1,1.1,0.1c0.3,0.3-0.8,2.2-1.2,2.2
		c0.1,0.3-2.4,3.2-0.5,4.6c1.7,1.2,10.4-3.4,11.8-4.4c0.3-0.2,0.7-1,0.8-1.5c-0.2,0-0.4-0.1-0.5-0.1c-0.1-0.3,0.1-0.6,0.4-0.7
		c0-0.4-2.3-0.4-3-0.4c0-0.7,0.2-1.2,0.2-1.9c0.8-0.4,1.3-0.9,1.8-1.9c0.2-0.2,0.4-0.4,0.7-0.6c0.9-1.2-0.2-2.2-1-2.7
		c-0.4-0.3-0.9-0.7-1.4-0.7C-102.7,407.2-97.4,405.5-99.8,402.3z M-42.3,415.1c-0.1,0.1,0.5,3.7,0.4,4.6c-0.3,2.2-0.9,4-1.2,6.1
		c-0.2,1.4-0.1,3-0.2,4.5c0.3,0,0.7,0.6,1.1,0.7c0.6-0.5,1.9-1.4,2.4-2.3c0.1-1,0.2-2,0.4-3c0.2-2.1,0.5-4.2,0.7-6.4
		c0-0.8,0.1-1.7,0.1-2.5c0-1,0-2,0.1-3c0.2-0.6,0.9-1.2,0.5-2.2c0,0,0-0.1,0-0.1c-0.4-0.6-1.9-1.3-3-1.3c0-0.8,0.3-0.9,0.4-1.4
		c0.1-0.5,0.1-1.1,0.2-1.4c0.1-0.3-1.6-4.9-1.8-5.1c-0.2-0.2-0.5-0.3-0.8-0.3c-0.2,0.6-0.3,1.3-0.4,1.9c-0.3,0.7-0.5,1.5-0.8,2.2
		c-0.9,2.3-2.1,4.2-3.3,6c-0.1,0.1,0,0.2-0.2,0.1c-0.6,0.6-0.4,3-0.5,4c1,0.6,0.7,1.1,0.8,2.8c0.2-0.1,0.5-0.2,0.7-0.3
		c0.1-0.3,0.2-0.7,0.3-1c0.4-0.6,1.1-0.9,1.6-1.3C-44.8,415.8-42.9,413.9-42.3,415.1z M-113.3,407.5
		C-113.3,407.4-113.3,407.4-113.3,407.5c-0.1-0.3-0.4-0.4-0.4-0.8c0-0.5,0-1,0-1.5c-0.1-0.5-0.5-1.3-0.8-1.7
		c-0.3-0.5-0.1-1.1-0.7-1.3c-0.2,0.7-0.5,1.5-0.7,2.2c-0.1,1.3,0.5,2.8,0.2,4.3c-0.1,0.9-0.4,1.6-0.6,2.3c0,1-0.1,1.9-0.1,2.9
		c-0.1,0.8-0.2,1.7-0.3,2.5c-0.3,0.5-0.1,1.2-0.2,1.9c-0.1,0.5-0.3,1.1-0.4,1.6c0,0.4,0.1,1.2,0.1,1.5c-0.2,2.1-0.5,6.1,1.2,6.4
		c1.6,0.3,0.7-3.6,0.9-4.8c0.1-0.7,0.1-1.3,0.2-2c-0.5-3.2,0.5-7.3,1.5-9.6c0,0,0-0.1,0-0.1c0-0.5-0.1-0.9-0.1-1.4
		C-113.5,409.3-113.3,408.3-113.3,407.5z M-28.7,408c0.8,0.5,1.5,1,2.3,1.4c0.7,0.4,2.8,0.6,3.7,0.5c3-3-0.8-4.8-4.6-4.8
		c-1.1,0.3-2.3,0.2-3.1,0.9c0,0,0,0.1,0,0.1c-0.3,0.4,0,0.9,0.2,1c0,0,0,0.1,0.1,0.1C-29.7,407.6-29.2,407.8-28.7,408z M-31.9,411.6
		c-0.5,1.4,2,2.8,2.5,3.3c0.7,0,1.4,0,2.2,0c0.6,0.3,2.3,1.1,3.4,0.5c0.4-0.3,0.9-0.6,1.2-1.2c0.6-1.2-0.3-1,1-1.8
		c0-0.3-0.1-0.7-0.1-1c-0.6-0.3-1.5,0.1-2.2,0c-0.9-0.2-1.5-0.6-2.8-0.5C-27.9,411.3-31.5,410.6-31.9,411.6z M-100,415.5
		C-100,415.5-100,415.6-100,415.5c0.6,0,3.8-0.4,4.2-0.6c0.3-0.2,0.2-0.7,0.2-1.3c0.1-0.3,0.1-0.9-0.1-1.1c0,0-0.1-0.1-0.1-0.1
		c0,0-0.1,0-0.1,0c-0.7-0.4-1.9-0.7-2.7-0.9c0.3,1.9-0.5,2.2-1.1,3.5C-99.8,415.3-100,415.1-100,415.5z M-30.7,431.8
		c0-0.1,0-0.1,0-0.2c0.3-0.5,1.4-5.5,1.1-6.5c-0.1-0.5-0.3-0.4-0.5-0.8c-0.1-0.3-0.2-1,0.1-1.1c0.2,0,0.3,0,0.5,0
		c2,0.3,2.3-1.7,2.9-1.6c0.1,0,0.3-0.1,0.5-0.1c1.1,2.5-2.4,3.5-2.8,6c0,0.2,0,0.4,0,0.6c0.1,0.3,0.2,0.6,0.3,0.9
		c0.3,0.1,1.3,0.8,1.8,1.2c0,0,3.3-0.3,3.5-0.3c0.5,0.1,1.9,0.5,2.3,0.3c1.1-0.5,1.4-0.8,1.5-2.4c0-0.2,0-0.5,0.1-0.7
		c-0.3-0.6-1.5-0.3-1.2-1.6c0.3-1.4,1.1-2.6,0.8-4.6c0-0.3-0.1-0.5-0.1-0.8c-0.8-0.9-1.6-1.6-2.4-2.5c-0.7-0.1-1.5-0.2-2.2-0.3
		c-0.2,0.4-5.7,3.3-6.3,3.2c-1-0.3-0.7-1.4-1.5-1.7c-0.6-0.2-1.6-0.3-1.6-1c-0.2,0-0.4-0.1-0.5-0.1c-0.8,1-0.1,4,0.1,4.9
		c0.2,1.7-0.3,3.3,0.1,4.7c0.3,1.2,1,2.4,0.6,3.5c0.6-0.2,2.2,1,2.5,1.3C-31.1,431.9-30.9,431.8-30.7,431.8z M-97.4,422.8
		c-0.1,0-0.3,0-0.4-0.1c0,0-0.1,0.1-0.1,0.1c-0.3,0.1-3.4,1.5-3.7,1.3c-0.2,0.2-1.1,0.2-1.4,0.3c-1.5,0.8-4.4,1.6-6.6,2
		c-0.3,0-0.6-0.1-0.9-0.1c-1-0.2-2.2,0.1-2.9,0.3c0,0,0,0,0,0c0.4,0.9,0.9,2.5,1.7,3c1.2,0.7,7.1-2.2,8.1-2.6c0.6-0.8,1.8-1.3,2.6-2
		C-100.2,424.5-97.5,423.6-97.4,422.8z M-147.1,438.8c-1,0.1-2,0.2-3,0.2c-1.8,0.3-3.2,1.1-4,2.8c-0.4,0.8-0.6,2.3-0.4,3.5
		c0.7,4.2,4.8,4.1,9.2,3.8c0-0.6,0-1.1,0.1-1.7c-3.2,0.9-5.5,0.7-6-2.7c-0.1-0.7-0.1-1.8,0.2-2.3c1-1.9,3-1.8,5.8-1.5
		c0-0.6,0-1.2,0-1.7c0,0,0,0,0,0C-145.7,439-146.8,439-147.1,438.8z M-49.8,438.9c-0.5,0-0.9,0-1.4,0.1c0,0,0,0,0,0.1
		c-1.2,0.7-2.3,0.4-3.2,1.4c-0.8,0.9-1.7,2.3-1.4,4c0.6,4.8,3.7,5.2,9.3,4.7c0-0.6,0.1-1.1,0.1-1.7c-3.1,1-5.8,0.5-6.1-2.7
		c-0.1-0.7-0.1-1.6,0.2-2.2c0.9-1.9,3.2-2,5.9-1.7c0-0.6,0-1.1,0-1.7C-47.3,438.8-48.7,438.9-49.8,438.9z M-36.6,439.7
		c-0.3-0.4-2.1-0.7-3.2-0.8c-0.4,0-0.8,0-1.2,0.1c-0.5,0.2-1,0.3-1.6,0.5c-0.5,0.4-1,0.7-1.4,1.1c-2.2,2.4-1.4,5.3,0.4,7.5
		c0.6,0.7,2,1.1,3.2,1.3c0.6,0,1.2,0,1.8,0c0.1-0.2,1.9-0.7,2.2-1c0.3-0.2,0.6-0.8,1-1c1.1-1.5,1.6-4.5,0.2-6.2
		C-35.6,440.7-36.1,440.2-36.6,439.7z M-39.6,447.9c-1.1,0.2-2.3-0.6-2.5-1.3c0-0.9,0-1.8,0-2.8c0-0.7,0-1.4,0-2.1
		c0.3-0.8,1.1-1.2,2-1.5c2.4,0.1,2.8,1,2.8,3.7C-37.4,446.3-37.7,447.6-39.6,447.9z M-106,438.9c-0.2,0.1-2.4,0.1-2.8,0
		c-1.5,3.4-3.1,6.9-4.6,10.3c0.9,0,1.8-0.1,2.6-0.1c0.4-0.8,0.7-1.6,1.1-2.5c1.4,0,2.8,0,4.2,0c0.3,0.8,0.7,1.7,1,2.5
		c1.1,0,2.2-0.1,3.3-0.1c-0.9-1.8-1.7-3.7-2.6-5.5C-104.5,442.1-105.2,440.5-106,438.9z M-106,445.2c-1,0-2.1,0-3.1,0.1c0,0,0,0,0,0
		c0.5-1.2,1-2.3,1.5-3.5C-107.1,442.9-106.6,444-106,445.2C-106,445.2-106,445.2-106,445.2z M-20.3,439.1c0.1,0.3-4.4,6.3-4.9,7.1
		c0,0,0,0-0.1,0c-0.4-0.7-5-6.9-5-7.3c-0.8,0-1.6,0-2.4,0c0,3.4,0,6.8,0,10.2c0.7,0,1.5,0,2.2,0c0-1.9,0-3.8,0-5.7
		c1.2,1.9,2.5,3.8,3.7,5.7c0.6,0,1.2,0,1.8,0c1.3-1.8,2.5-3.6,3.8-5.4c0,0,0.1,0,0.1,0c0,1.8,0,3.6,0,5.4c1,0,2,0,3.1,0
		c0-3.4,0-6.8,0-10.2c-0.7,0-1.5,0-2.2,0C-20.2,439.2-20.2,439.1-20.3,439.1z M-136.8,443.1c-1.1,0-2.3,0-3.4,0c0-1.4,0-2.7,0-4.1
		c-1,0-2,0-3-0.1c0,3.4,0,6.8-0.1,10.2c1,0,2,0,3.1,0c0-1.4,0-2.9,0-4.3c1.1,0,2.3,0,3.4,0c0,1.4,0,2.9,0,4.3c1,0,2,0,3.1,0
		c0-3.4,0-6.8,0-10.2c-1,0-2,0-3.1,0.1C-136.8,440.4-136.8,441.7-136.8,443.1z M-83,444.9C-83,444.9-83,444.9-83,444.9
		c1.3,0,2.6,0,3.9,0c0-0.6,0-1.2,0-1.8c-1.3,0-2.6,0-3.9,0c0-0.8,0-1.7,0-2.5c1.7,0,3.5,0,5.2,0c0-0.6,0-1.1,0-1.7
		c-2.8,0-5.6,0-8.3,0c0,3.4,0,6.8,0,10.2c2.9,0,5.8,0,8.7,0c0-0.6,0-1.2,0-1.8c-1.8,0-3.7,0-5.5,0C-83,446.6-83,445.8-83,444.9z
		 M-62.6,447.4c0-0.8,0-1.6,0-2.5c1.3,0,2.6,0,3.9,0c0-0.6,0-1.2,0-1.8c-1.3,0-2.6,0-3.9,0c0-0.8,0-1.7,0-2.5c1.7,0,3.5,0,5.2,0
		c0-0.3,0.1-1.5-0.1-1.6c-2.7,0-5.4,0-8.1,0c-0.2,0.2-0.1,9.1-0.1,10.2c2.9,0,5.8,0,8.7,0c0-0.6,0-1.2,0-1.8
		C-58.9,447.4-60.7,447.4-62.6,447.4C-62.6,447.4-62.6,447.4-62.6,447.4z M-116.8,444.9c-1.7-1.7-3.5-3.3-5.2-5
		c-0.1-0.1-0.1-0.1,0-0.2c-0.9-0.8-0.9-0.4-2.8-0.7c0,3.4,0,6.8,0,10.2c0.7,0,1.5,0,2.2,0c0-2.1,0-4.2,0.1-6.2c0,0,0,0,0,0
		c0.6,0.3,1.2,1.1,1.5,1.5c0-0.1,0.6,0.5,0.6,0.5c1.2,1.2,2.5,2.4,3.7,3.5c0.1,0.1,0.4,0.5,0.4,0.5c0.1,0.1,0.3,0.2,0.4,0.2
		c0.5,0,0.9,0,1.4,0c0-3.4,0-6.8,0-10.2c-0.8,0-1.5,0-2.3,0C-116.7,441-116.7,442.9-116.8,444.9z M-130.8,449.2c1.1,0,2.2,0,3.2,0
		c0-3.4,0-6.8,0-10.2c-1.1,0-2.2,0-3.2,0C-130.8,442.4-130.8,445.8-130.8,449.2z M-96.6,440.6c1,0,2.1,0,3.1,0c0,2.9,0,5.8,0.1,8.7
		c0.2-0.2,2.6-0.1,3.1-0.1c0-2.9,0-5.7,0-8.6c0.9,0,1.8,0,2.8,0c0-0.5,0-1,0-1.6c-3,0-6.1,0-9.1,0
		C-96.6,439.6-96.6,440.1-96.6,440.6z M-72.6,447.4c0-2.8,0-5.6,0-8.4c-1.1,0-2.2,0-3.2,0c0,3.4,0,6.8,0,10.2c2.7,0,5.5,0,8.2-0.1
		c0-0.6,0-1.2,0-1.7C-69.3,447.4-71,447.4-72.6,447.4C-72.6,447.4-72.6,447.4-72.6,447.4z"/>
</g>
</svg>
