<?xml version="1.0" encoding="utf-8"?>
<!-- Generator: Adobe Illustrator 16.0.0, SVG Export Plug-In . SVG Version: 6.00 Build 0)  -->
<!DOCTYPE svg PUBLIC "-//W3C//DTD SVG 1.1//EN" "http://www.w3.org/Graphics/SVG/1.1/DTD/svg11.dtd">
<svg version="1.1" id="Vrstva_1" xmlns="http://www.w3.org/2000/svg" xmlns:xlink="http://www.w3.org/1999/xlink" x="0px" y="0px"
	 width="233.25px" height="46px" viewBox="-7 0 233.25 46" enable-background="new -7 0 233.25 46" xml:space="preserve">
<g>
	<g>
		<g>
			<g>
				<g>
					<g>
						<path fill="#959699" d="M21.502,32.726c5.167-2.998,8.863-6.76,10.567-10.767c0.701-2.883,1.102-5.987,1.102-9.264
							c0-0.458-0.021-0.896-0.063-1.314c-0.301,4.846-6.564,10.939-14.85,14.922c-9.995,4.801-17.494,6.093-20.839,2.43
							c1.162,2.295,2.718,4.612,4.488,6.689C6.021,39.079,12.805,37.769,21.502,32.726z"/>
					</g>
					<g>
						<path fill="#959699" d="M17.091,22.867c9.429-4.547,15.995-11.018,14.85-15.307c-1.88-3.246-5.684-4.484-9.763-4.484
							c-12.092,0-26.932,7.971-26.932,18.14c0,1.306,0.288,2.77,0.805,4.299C-1.191,29.176,7.241,27.619,17.091,22.867z"/>
					</g>
					<g>
						<path fill="#959699" d="M16.296,37.28L16.296,37.28C9.666,39.969,5.87,39.111,3.772,37.436l-0.03-0.026
							c3.247,3.238,6.947,5.515,10.191,5.515c5.683,0,13.463-6.891,17.144-17.581C29.003,29.202,24.551,33.943,16.296,37.28z"/>
					</g>
					<path fill="#FFFFFF" d="M16.296,37.28L16.296,37.28c8.255-3.337,12.707-8.078,14.782-11.938
						c0.375-1.089,0.708-2.219,0.992-3.384c-1.705,4.007-5.401,7.769-10.567,10.767c-8.697,5.043-15.481,6.354-19.596,2.696
						c0.591,0.691,1.205,1.36,1.836,1.987l0.03,0.026C5.87,39.111,9.666,39.969,16.296,37.28z"/>
					<path fill="#FFFFFF" d="M18.257,26.303c8.286-3.982,14.549-10.076,14.85-14.922c-0.148-1.503-0.556-2.768-1.167-3.82
						c1.146,4.289-5.42,10.76-14.85,15.307c-9.851,4.752-18.282,6.309-21.04,2.647c0.354,1.05,0.816,2.133,1.367,3.218
						C0.764,32.396,8.263,31.104,18.257,26.303z"/>
				</g>
			</g>
			<defs>
				<filter id="Adobe_OpacityMaskFilter" filterUnits="userSpaceOnUse" x="-4.753" y="3.076" width="37.924" height="39.848">
					
						<feColorMatrix  type="matrix" values="-1 0 0 0 1  0 -1 0 0 1  0 0 -1 0 1  0 0 0 1 0" color-interpolation-filters="sRGB" result="source"/>
				</filter>
			</defs>
			<mask maskUnits="userSpaceOnUse" x="-4.753" y="3.076" width="37.924" height="39.848" id="SVGID_1_">
				<g filter="url(#Adobe_OpacityMaskFilter)">
					<image overflow="visible" width="43" height="45" xlink:href="915C1AB0.jpg"  transform="matrix(1 0 0 1 -7.5 0.5)">
					</image>
				</g>
			</mask>
			<g opacity="0.2" mask="url(#SVGID_1_)">
				<g>
					<g>
						<path fill="#642D96" d="M21.502,32.726c5.167-2.998,8.863-6.76,10.567-10.767c0.701-2.883,1.102-5.987,1.102-9.264
							c0-0.458-0.021-0.896-0.063-1.314c-0.301,4.846-6.564,10.939-14.85,14.922c-9.995,4.801-17.494,6.093-20.839,2.43
							c1.162,2.295,2.718,4.612,4.488,6.689C6.021,39.079,12.805,37.769,21.502,32.726z"/>
					</g>
					<g>
						<path fill="#642D96" d="M17.091,22.867c9.429-4.547,15.995-11.018,14.85-15.307c-1.88-3.246-5.684-4.484-9.763-4.484
							c-12.092,0-26.932,7.971-26.932,18.14c0,1.306,0.288,2.77,0.805,4.299C-1.191,29.176,7.241,27.619,17.091,22.867z"/>
					</g>
					<g>
						<path fill="#642D96" d="M16.296,37.28L16.296,37.28C9.666,39.969,5.87,39.111,3.772,37.436l-0.03-0.026
							c3.247,3.238,6.947,5.515,10.191,5.515c5.683,0,13.463-6.891,17.144-17.581C29.003,29.202,24.551,33.943,16.296,37.28z"/>
					</g>
					<path fill="#642D96" d="M16.296,37.28L16.296,37.28c8.255-3.337,12.707-8.078,14.782-11.938
						c0.375-1.089,0.708-2.219,0.992-3.384c-1.705,4.007-5.401,7.769-10.567,10.767c-8.697,5.043-15.481,6.354-19.596,2.696
						c0.591,0.691,1.205,1.36,1.836,1.987l0.03,0.026C5.87,39.111,9.666,39.969,16.296,37.28z"/>
					<path fill="#642D96" d="M18.257,26.303c8.286-3.982,14.549-10.076,14.85-14.922c-0.148-1.503-0.556-2.768-1.167-3.82
						c1.146,4.289-5.42,10.76-14.85,15.307c-9.851,4.752-18.282,6.309-21.04,2.647c0.354,1.05,0.816,2.133,1.367,3.218
						C0.764,32.396,8.263,31.104,18.257,26.303z"/>
				</g>
			</g>
		</g>
	</g>
	<g>
		<g>
			<path fill="#959699" d="M41.775,17.944c-0.515,0-1.031-0.386-1.546-1.158c-0.337-0.536-0.505-0.941-0.505-1.22
				c0-0.476,0.313-0.916,0.937-1.323c0.624-0.405,1.303-0.609,2.036-0.609h12.161c0.773,0,1.159,0.356,1.159,1.07
				c0,0.813-0.218,1.557-0.653,2.229c-0.437,0.675-0.912,1.011-1.427,1.011h-3.956v13.439c0,0.814-0.219,1.557-0.654,2.231
				c-0.437,0.675-0.912,1.009-1.427,1.009s-1.031-0.383-1.546-1.158c-0.337-0.533-0.505-0.941-0.505-1.219V17.944H41.775z"/>
			<path fill="#959699" d="M56.969,28.41c0.218,0.932,0.694,1.682,1.427,2.248c0.733,0.562,1.616,0.845,2.646,0.845
				c0.873,0,1.913-0.297,3.123-0.892c0.555-0.277,1.07-0.415,1.546-0.415c0.634,0,0.951,0.287,0.951,0.861
				c0,0.518-0.114,1.012-0.341,1.487c-0.229,0.476-0.521,0.822-0.878,1.042c-0.673,0.414-1.422,0.736-2.245,0.966
				c-0.823,0.228-1.641,0.343-2.453,0.343c-1.428,0-2.731-0.378-3.911-1.131c-1.179-0.754-2.096-1.727-2.75-2.916
				c-0.654-1.188-0.981-2.457-0.981-3.804c0-1.508,0.357-2.871,1.071-4.09c0.713-1.219,1.645-2.16,2.794-2.824
				c1.15-0.664,2.409-0.996,3.777-0.996c1.328,0,2.521,0.313,3.583,0.937c1.06,0.624,1.877,1.453,2.453,2.482
				c0.575,1.031,0.862,2.159,0.862,3.392c0,0.634-0.164,1.202-0.491,1.708c-0.327,0.505-0.689,0.757-1.085,0.757H56.969z
				 M60.656,22.405c-0.952,0-1.765,0.272-2.438,0.817c-0.674,0.547-1.09,1.272-1.25,2.186h7.018c-0.04-0.852-0.377-1.566-1.011-2.14
				C62.34,22.693,61.567,22.405,60.656,22.405z"/>
			<path fill="#959699" d="M73.144,34.624c-0.892,0-1.665-0.351-2.319-1.054c-0.654-0.703-0.981-1.532-0.981-2.483V15.299
				c0-0.436,0.302-0.852,0.907-1.249c0.604-0.396,1.253-0.594,1.948-0.594c0.733,0,1.1,0.337,1.1,1.01V29.81
				c0,0.258,0.055,0.472,0.164,0.64s0.302,0.312,0.58,0.431c0.317,0.14,0.476,0.416,0.476,0.832c0,0.732-0.198,1.403-0.594,2.008
				C74.025,34.323,73.599,34.624,73.144,34.624z"/>
			<path fill="#959699" d="M79.15,17.499c-0.516,0-1.051-0.405-1.605-1.219c-0.377-0.574-0.565-1.021-0.565-1.339
				c0-0.494,0.336-0.961,1.01-1.397c0.674-0.436,1.398-0.654,2.171-0.654c0.832,0,1.249,0.377,1.249,1.131
				c0,0.594-0.114,1.164-0.342,1.71c-0.228,0.545-0.515,0.976-0.862,1.293C79.857,17.341,79.506,17.499,79.15,17.499z M79.15,34.624
				c-0.457,0-0.952-0.373-1.488-1.13c-0.317-0.513-0.475-0.9-0.475-1.158V21.245c0-0.436,0.302-0.852,0.907-1.249
				c0.604-0.396,1.253-0.594,1.947-0.594c0.733,0,1.101,0.337,1.101,1.012v11.089c0,0.535-0.105,1.052-0.313,1.547
				c-0.208,0.496-0.465,0.882-0.772,1.16C79.749,34.487,79.447,34.624,79.15,34.624z"/>
			<path fill="#959699" d="M90.716,34.624c-1.428,0-2.721-0.354-3.881-1.068c-1.159-0.714-2.062-1.65-2.706-2.81
				c-0.644-1.16-0.966-2.424-0.966-3.792c0-1.466,0.367-2.803,1.101-4.014c0.733-1.209,1.684-2.146,2.854-2.81
				c1.169-0.664,2.428-0.996,3.777-0.996c1.149,0,2.269,0.317,3.359,0.951c0.694-0.456,1.388-0.684,2.082-0.684
				c0.733,0,1.101,0.337,1.101,1.012v11.089c0,0.535-0.106,1.052-0.313,1.547c-0.208,0.496-0.465,0.882-0.773,1.16
				c-0.307,0.277-0.609,0.414-0.906,0.414c-0.456,0-0.951-0.373-1.487-1.13c-0.198-0.315-0.338-0.593-0.415-0.832
				c-0.159,0.437-0.372,0.813-0.64,1.132c-0.268,0.317-0.55,0.524-0.847,0.625C91.637,34.557,91.191,34.624,90.716,34.624z
				 M90.982,30.939c0.893,0,1.725-0.248,2.499-0.743v-6.75c-0.734-0.417-1.556-0.624-2.468-0.624c-1.13,0-2.076,0.382-2.839,1.145
				s-1.145,1.721-1.145,2.869s0.381,2.122,1.145,2.914C88.937,30.543,89.872,30.939,90.982,30.939z"/>
			<path fill="#959699" d="M118.933,18.6c-0.198,0-0.437-0.069-0.713-0.208c-1.21-0.614-2.379-0.923-3.509-0.923
				c-1.249,0-2.365,0.298-3.345,0.893c-0.981,0.595-1.736,1.394-2.261,2.394c-0.525,1.001-0.788,2.106-0.788,3.316
				c0,1.27,0.281,2.403,0.848,3.404c0.565,1.001,1.313,1.773,2.245,2.319c0.931,0.543,1.962,0.816,3.092,0.816
				c1.308,0,2.597-0.287,3.865-0.861c0.674-0.298,1.219-0.445,1.636-0.445c0.714,0,1.07,0.345,1.07,1.04
				c0,0.515-0.109,1.025-0.327,1.529c-0.22,0.507-0.495,0.909-0.833,1.206c-0.635,0.535-1.482,0.97-2.542,1.309
				c-1.06,0.336-2.116,0.507-3.166,0.507c-1.943,0-3.703-0.499-5.278-1.489c-1.576-0.99-2.795-2.293-3.657-3.909
				c-0.862-1.615-1.293-3.365-1.293-5.248c0-2.061,0.511-3.944,1.531-5.649c1.021-1.705,2.354-3.033,4-3.985
				c1.644-0.95,3.408-1.427,5.292-1.427c2.062,0,3.914,0.516,5.56,1.547c0.298,0.178,0.446,0.476,0.446,0.892
				c0,0.733-0.199,1.413-0.595,2.037C119.815,18.286,119.389,18.6,118.933,18.6z"/>
			<path fill="#959699" d="M130.083,19.135c1.486,0,2.828,0.366,4.028,1.101c1.198,0.733,2.126,1.698,2.78,2.898
				s0.981,2.492,0.981,3.88c0,1.508-0.361,2.865-1.086,4.073c-0.724,1.21-1.676,2.145-2.854,2.812
				c-1.179,0.662-2.464,0.997-3.85,0.997c-1.486,0-2.831-0.369-4.03-1.102s-2.126-1.7-2.78-2.9c-0.654-1.199-0.981-2.491-0.981-3.88
				c0-1.505,0.362-2.862,1.087-4.073c0.724-1.209,1.674-2.146,2.853-2.81C127.41,19.467,128.695,19.135,130.083,19.135z
				 M130.083,31.206c1.089,0,2.007-0.4,2.75-1.202c0.743-0.804,1.115-1.801,1.115-2.99s-0.372-2.186-1.115-2.987
				c-0.743-0.804-1.661-1.204-2.75-1.204c-1.091,0-2.008,0.4-2.751,1.204c-0.743,0.802-1.114,1.798-1.114,2.987
				s0.371,2.187,1.114,2.99C128.075,30.806,128.992,31.206,130.083,31.206z"/>
			<path fill="#959699" d="M150.332,34.624c-0.458,0-0.954-0.373-1.488-1.13c-0.316-0.513-0.476-0.9-0.476-1.158v-7.61
				c0-0.438-0.124-0.792-0.371-1.071c-0.248-0.277-0.562-0.417-0.937-0.417c-0.912,0-1.983,0.495-3.211,1.488v6.777
				c0,0.535-0.105,1.052-0.313,1.547c-0.208,0.496-0.464,0.882-0.771,1.16c-0.309,0.277-0.61,0.414-0.908,0.414
				c-0.456,0-0.952-0.373-1.486-1.13c-0.318-0.513-0.476-0.9-0.476-1.158V21.245c0-0.436,0.302-0.852,0.907-1.249
				c0.604-0.396,1.253-0.594,1.947-0.594c0.732,0,1.101,0.337,1.101,1.012v0.594c0.791-0.634,1.541-1.105,2.244-1.413
				c0.703-0.307,1.413-0.46,2.126-0.46s1.383,0.207,2.007,0.624c0.624,0.416,1.125,1.002,1.502,1.755
				c1.784-1.586,3.438-2.379,4.965-2.379c0.794,0,1.502,0.233,2.128,0.699c0.623,0.465,1.107,1.084,1.456,1.857
				c0.346,0.773,0.521,1.625,0.521,2.558v7.254c0,0.535-0.105,1.052-0.313,1.547c-0.207,0.496-0.465,0.882-0.772,1.16
				c-0.309,0.277-0.609,0.414-0.906,0.414c-0.456,0-0.953-0.373-1.487-1.13c-0.317-0.513-0.476-0.9-0.476-1.158v-7.61
				c0-0.438-0.125-0.792-0.372-1.071c-0.248-0.277-0.561-0.417-0.937-0.417c-0.912,0-1.983,0.495-3.211,1.488v6.777
				c0,0.535-0.104,1.052-0.313,1.547c-0.208,0.496-0.464,0.882-0.771,1.16C150.93,34.487,150.629,34.624,150.332,34.624z"/>
			<path fill="#959699" d="M165.021,40.155c-0.456,0-0.953-0.377-1.488-1.13c-0.316-0.515-0.475-0.902-0.475-1.156V21.245
				c0-0.436,0.301-0.852,0.905-1.249c0.605-0.396,1.254-0.594,1.947-0.594c0.674,0,1.042,0.297,1.102,0.892
				c1.149-0.773,2.359-1.159,3.627-1.159c1.289,0,2.448,0.347,3.479,1.04c1.031,0.694,1.824,1.621,2.379,2.78
				c0.555,1.161,0.832,2.435,0.832,3.821c0,1.546-0.327,2.931-0.981,4.148c-0.653,1.22-1.525,2.159-2.615,2.824
				c-1.092,0.662-2.289,0.996-3.599,0.996c-0.515,0-1.055-0.063-1.621-0.192c-0.563-0.129-1.064-0.302-1.5-0.521v3.005
				c0,0.533-0.104,1.05-0.313,1.544c-0.206,0.494-0.465,0.882-0.772,1.159C165.618,40.018,165.316,40.155,165.021,40.155z
				 M169.984,22.822c-0.534,0-1.065,0.099-1.591,0.297c-0.524,0.197-0.986,0.486-1.382,0.861v6.335
				c0.873,0.494,1.804,0.742,2.795,0.742c1.029,0,1.898-0.396,2.601-1.191c0.703-0.791,1.057-1.771,1.057-2.94
				c0-1.189-0.327-2.172-0.981-2.945C171.828,23.208,170.995,22.822,169.984,22.822z"/>
			<path fill="#959699" d="M186.397,34.624c-1.428,0-2.72-0.354-3.88-1.068c-1.158-0.714-2.062-1.65-2.706-2.81
				c-0.645-1.16-0.966-2.424-0.966-3.792c0-1.466,0.366-2.803,1.101-4.014c0.732-1.209,1.684-2.146,2.854-2.81
				c1.168-0.664,2.427-0.996,3.775-0.996c1.149,0,2.269,0.317,3.359,0.951c0.693-0.456,1.387-0.684,2.081-0.684
				c0.733,0,1.101,0.337,1.101,1.012v11.089c0,0.535-0.104,1.052-0.313,1.547c-0.208,0.496-0.466,0.882-0.773,1.16
				c-0.308,0.277-0.609,0.414-0.905,0.414c-0.457,0-0.953-0.373-1.487-1.13c-0.198-0.315-0.338-0.593-0.416-0.832
				c-0.16,0.437-0.371,0.813-0.641,1.132c-0.267,0.317-0.549,0.524-0.846,0.625C187.319,34.557,186.873,34.624,186.397,34.624z
				 M186.665,30.939c0.892,0,1.725-0.248,2.498-0.743v-6.75c-0.734-0.417-1.557-0.624-2.468-0.624c-1.13,0-2.076,0.382-2.841,1.145
				c-0.763,0.763-1.144,1.721-1.144,2.869s0.381,2.122,1.144,2.914C184.619,30.543,185.555,30.939,186.665,30.939z"/>
			<path fill="#959699" d="M207.419,34.624c-0.456,0-0.952-0.373-1.486-1.13c-0.318-0.513-0.476-0.9-0.476-1.158v-7.522
				c0-0.476-0.164-0.865-0.49-1.173c-0.327-0.309-0.75-0.463-1.266-0.463c-1.089,0-2.487,0.586-4.191,1.755v6.57
				c0,0.535-0.104,1.052-0.313,1.547c-0.208,0.496-0.465,0.882-0.771,1.16c-0.308,0.277-0.61,0.414-0.906,0.414
				c-0.457,0-0.953-0.373-1.489-1.13c-0.315-0.513-0.475-0.9-0.475-1.158V21.245c0-0.436,0.303-0.852,0.907-1.249
				c0.604-0.396,1.253-0.594,1.947-0.594c0.733,0,1.101,0.337,1.101,1.012v0.713c1.803-1.328,3.538-1.992,5.202-1.992
				c0.894,0,1.7,0.237,2.423,0.713c0.726,0.476,1.285,1.101,1.681,1.873c0.396,0.774,0.595,1.616,0.595,2.528v7.254
				c0,0.535-0.104,1.052-0.313,1.547c-0.207,0.496-0.464,0.882-0.773,1.16C208.018,34.487,207.717,34.624,207.419,34.624z"/>
			<path fill="#959699" d="M210.926,21.93c-0.178-0.357-0.267-0.625-0.267-0.803c0-0.416,0.286-0.808,0.862-1.175
				c0.575-0.367,1.188-0.55,1.843-0.55c0.478,0,0.794,0.188,0.953,0.564l3.568,7.522l3.032-6.63c0.178-0.397,0.535-0.739,1.07-1.025
				c0.534-0.287,1.09-0.432,1.664-0.432c0.734,0,1.102,0.337,1.102,1.012c0,0.515-0.109,1.02-0.327,1.516l-7.791,16.798
				c-0.218,0.438-0.471,0.784-0.758,1.042c-0.288,0.257-0.57,0.386-0.849,0.386c-0.437,0-0.92-0.354-1.456-1.07
				c-0.297-0.455-0.445-0.843-0.445-1.159c0-0.118,0.05-0.297,0.148-0.533l2.586-5.59L210.926,21.93z"/>
		</g>
	</g>
</g>
</svg>
