<?xml version="1.0" encoding="utf-8"?><svg width="318" height="217" viewBox="0 0 318 217" xmlns="http://www.w3.org/2000/svg" xmlns:xlink="http://www.w3.org/1999/xlink"><svg width="50" height="50" viewBox="-1 -1 50 50" id="222" y="167" xmlns="http://www.w3.org/2000/svg"><defs><path id="aa" d="M0 0h48v48H0z"/><path id="ab" d="M0 44h44V0H0z"/></defs><g transform="translate(2 2)" fill="none" fill-rule="evenodd"><path fill="#FFF" d="M42 38c0 2.206-1.794 4-4 4h-1V19h5v19zm-7 4H2V2h33v40zm2-25V0H0v44h38a6 6 0 0 0 6-6V17h-7z"/><mask id="ac" fill="#fff"><use xlink:href="#ab"/></mask><path fill="#FFF" d="M9 15h5v-4H9v4zm-2 2h9V9H7v8zm2 16h19v-4H9v4zm-2 2h23v-8H7v8zM20 11h10V9H20zM20 17h10v-2H20zM7 23h23v-2H7z" mask="url(#ac)"/></g></svg><svg width="50" height="50" viewBox="-1 -1 50 50" id="333" x="50" y="167" xmlns="http://www.w3.org/2000/svg"><defs><path id="ba" d="M0 0h48v48H0z"/><path id="bb" d="M0 44h44V0H0z"/></defs><g transform="translate(2 2)" fill="none" fill-rule="evenodd"><path fill="#FFF" d="M0 0v32h6v8l8-8h2v6h15l8 6v-6h5V11h-7V0H0zm2 2h33v28H13l-5 5v-5H2V2zm16 30h19V13h5v23h-5v4l-5-4H18v-4z"/><path fill="#FFF" d="M22.886 12.044a3.994 3.994 0 0 0-7.747-.04h2.136a1.994 1.994 0 1 1 2.922 2.59.94.94 0 0 1-.438.165h-.036a2 2 0 0 0-1.726 1.985v2.26h2V16.86a4 4 0 0 0 2.89-4.817"/><mask id="bc" fill="#fff"><use xlink:href="#bb"/></mask><path fill="#FFF" mask="url(#bc)" d="M18 23h2v-2h-2z"/></g></svg><svg width="159" height="167" viewBox="-1 -1 159 167" id="cardicon-1" xmlns="http://www.w3.org/2000/svg"><g fill="none" fill-rule="evenodd" opacity=".04"><path d="M96 0C42.981 0 0 42.981 0 96s42.981 96 96 96 96-42.981 96-96S149.019 0 96 0m0 6c49.626 0 90 40.374 90 90s-40.374 90-90 90S6 145.626 6 96 46.374 6 96 6" fill="#666"/><path d="M61.27 58.823a5.953 5.953 0 0 0-4.237 1.758l-13.28 13.28a6.003 6.003 0 0 0-1.36 6.397l3.984 10.359a93.932 93.932 0 0 0 14.31 24.939l1.371 1.71a93.79 93.79 0 0 0 14.655 14.658 93.889 93.889 0 0 0 28.95 15.75l6.06 2.019c.621.207 1.26.306 1.896.306a5.996 5.996 0 0 0 4.242-1.755l13.305-13.302c2.712-2.715 2.217-7.245-1.023-9.306l-14.352-9.132a5.995 5.995 0 0 0-5.583-.453l-11.937 5.115-2.12-1.515a93.811 93.811 0 0 1-21.823-21.82l-1.515-2.12 5.085-11.862a6 6 0 0 0-.522-5.691L66.267 61.496a5.983 5.983 0 0 0-4.998-2.673m0 6h.006l11.11 16.662-5.086 11.862-1.329 3.105 1.962 2.745 1.515 2.12a99.617 99.617 0 0 0 23.214 23.218l2.121 1.515 2.748 1.962 3.102-1.332 11.94-5.115 14.35 9.132-13.303 13.302-6.057-2.02a87.56 87.56 0 0 1-27.099-14.741 88.045 88.045 0 0 1-13.722-13.72l-1.368-1.712a87.683 87.683 0 0 1-13.395-23.343l-3.984-10.36 13.27-13.28h.005" fill="#5D5D5D"/><path d="M135.994 54h-45v36h9v12l24-12h12V54zm-6 6v24h-7.416l-1.266.633-15.318 7.659V84h-9V60h33z" fill="#5D5D5D"/></g></svg><svg width="159" height="167" viewBox="-1 -1 159 167" id="cardicon-2" x="159" xmlns="http://www.w3.org/2000/svg"><defs><path id="da" d="M0 0h96v96H0z"/></defs><g fill="none" fill-rule="evenodd" opacity=".04"><path d="M96 192c-53.02 0-96-42.98-96-96S42.98 0 96 0s96 42.98 96 96-42.98 96-96 96zm0-6c49.706 0 90-40.294 90-90S145.706 6 96 6 6 46.294 6 96s40.294 90 90 90z" fill="#666" fill-rule="nonzero"/><g transform="translate(48 45)"><mask id="db" fill="#fff"><use xlink:href="#da"/></mask><path d="M90.667 90.012L54 90l-3.867-13.734 3.2-1.6V72c0-1.6-1.067-2.667-2.666-2.667h-5.334c-1.6 0-2.667 1.068-2.667 2.667v2.667l3.2 1.599-3.821 13.782-36.711-.012v-.702c0-3.468 2.133-6.4 5.33-7.467l20.803-8.268C36.798 71.733 40 66.666 40 61.335v-2.667c2.667 1.599 5.6 2.667 8.268 2.667 2.667 0 5.067-.801 7.73-2.136v2.136c0 5.598 3.202 10.398 8.536 12.53l20.799 8.269c3.2 1.065 5.334 4.266 5.334 7.467v.41zM34.399 45.066c0-.531-.531-1.332-.798-2.4l-.267-.798-.801-1.602-2.4-.267c-1.332-.264-3.465-3.732-3.465-7.998 0-1.602.267-2.133 1.599-4.002l1.068-1.332V24.8c0-5.868 1.599-10.668 5.064-14.133C37.867 7.2 42.934 5.334 48 5.334c8.799 0 18.399 5.334 18.933 20.799v1.602l.8 1.332c1.6 1.599 1.6 1.599 1.6 2.934 0 3.999-2.133 7.467-3.201 7.734L64 40.533l-.801 1.866c-.531.8-.798 1.869-1.332 2.667-.267.267-.534.8-.801 1.068-.267.534-.531.8-.798 1.332-.267.534-.534.8-1.068 1.335-.267.267-.267.534-.534.798-.267.534-.798.8-1.065 1.335-2.934 3.2-6.135 5.067-9.333 5.067-3.201 0-6.402-1.866-9.6-5.334L38.4 50.4l-.801-.801c-.267-.264-.534-.798-.801-1.065-.264-.267-.531-.534-.798-1.068-.267-.531-.534-1.065-1.068-1.6-.267-.266-.267-.533-.534-.8zm52.8 31.734l-20.8-8.265c-2.933-1.068-5.066-4.002-5.066-7.2v-6.402c.534-.798 1.335-1.332 1.866-2.133l1.602-2.4L66.4 48c0-.267.267-.267.267-.534.534-.798.8-1.6 1.332-2.667 3.735-1.6 6.669-7.464 6.669-12.798 0-2.934-.801-4.002-2.133-6.135C72 8 60.268 0 48.268 0 36.535 0 24 8 24 24.8c-1.602 2.134-2.667 3.733-2.667 7.2 0 5.866 3.2 12 7.467 13.066.267.8.798 1.602 1.065 2.4 0 .267.267.267.267.534.267.8.8 1.335 1.335 2.133.53.8 1.065 1.335 1.599 2.133.534.8 1.068 1.335 1.599 1.869v7.2c0 3.198-2.133 6.132-5.067 7.464l-20.8 8.268C3.467 78.933.002 84 .002 89.6V96h96v-6.666c0-5.601-3.468-10.668-8.802-12.534z" fill="#666" mask="url(#db)"/></g></g></svg><svg width="17" height="17" viewBox="-1 -1 17 17" id="service-phone-btn" x="150" y="167" xmlns="http://www.w3.org/2000/svg"><path d="M0 0v1.071C0 8.764 6.236 15 13.929 15H15V8.695h-4.281L9.098 10.99a14 14 0 0 1-5.13-5.163l2.46-2.076V0H0z" fill="#FF7800" fill-rule="evenodd"/></svg><svg id="work-service" width="50" height="50" viewBox="-1 -1 50 50" x="100" y="167" xmlns="http://www.w3.org/2000/svg"><style>.fst0{fill:#fff}</style><g id="fPage-1"><g id="f联系我们" transform="translate(-605 -1136)"><g id="f工单服务icon" transform="translate(605 1136)"><path id="f形状结合" class="fst0" d="M42.5.5v10h4v37h-35v-4h-10V.5h41zm2 12h-2v31h-29v2h31v-33zm-31-10h-10v39h37v-39h-9v2h-18v-2zm2 27v6h-6v-6h6zm-2 2h-2v2h2v-2zm18-1v2h-13v-2h13zm-16-10v6h-6v-6h6zm11 2v2h-8v-2h8zm-13 0h-2v2h2v-2zm2-12.7l1.5 1.3-4.8 5.3-3.3-2.6 1.2-1.6 1.9 1.4 3.5-3.8zm19 3.7v2h-16v-2h16z"/></g></g></g></svg></svg>