<?xml version="1.0" encoding="utf-8"?>
<!-- Generator: Adobe Illustrator 23.1.1, SVG Export Plug-In . SVG Version: 6.00 Build 0)  -->
<svg version="1.1" id="图层_1" xmlns="http://www.w3.org/2000/svg" xmlns:xlink="http://www.w3.org/1999/xlink" x="0px" y="0px"
	 viewBox="0 0 220 48" style="enable-background:new 0 0 220 48;" xml:space="preserve">
<style type="text/css">
	.st0{fill:#0035A1;}
	.st1{opacity:0.3;}
	.st2{fill:#005ADD;}
	.st3{fill:#00ACFF;}
	.st4{fill:#FFFFFF;}
</style>
<g>
	<g>
		<g>
			<path class="st0" d="M14.9,16.2c7.5,0,13.6,6.1,13.6,13.6v2c0,6.4,5.2,11.6,11.6,11.6H28.5l0,0H14.9l0,0l0,0
				c-7.5,0-13.6-6.1-13.6-13.6S7.4,16.2,14.9,16.2z"/>
		</g>
		<g class="st1">
			<path class="st0" d="M30,37.4H3.6c2.4,3.6,6.6,6,11.3,6h25.2C35.8,43.4,32,41,30,37.4z"/>
		</g>
		<g>
			<path class="st2" d="M45.7,5.2c-10.5,0-19,8.5-19,19v7.4c0,6.5-5.3,11.7-11.7,11.7h11.7h19.1l0,0c10.5,0,19.1-8.5,19.1-19.1
				C64.8,13.8,56.3,5.2,45.7,5.2z"/>
		</g>
		<g class="st1">
			<path class="st2" d="M26.5,33.2c-0.8,5.8-5.6,10.2-11.6,10.2h30.8c7.3,0,13.7-4.1,16.9-10.2C62.6,33.2,26.5,33.2,26.5,33.2z"/>
		</g>
		<g>
			<path class="st3" d="M63.8,23.9c-5.4,0-9.7,4.3-9.7,9.7V35c0,4.6-3.7,8.3-8.3,8.3H54l0,0h9.8l0,0l0,0c5.4,0,9.7-4.3,9.7-9.7
				S69.1,23.9,63.8,23.9z"/>
		</g>
		<g class="st1">
			<path class="st3" d="M53.8,36.9c-0.8,3.7-4.1,6.5-8.1,6.5h18.1c4.2,0,7.9-2.7,9.2-6.5H53.8z"/>
		</g>
	</g>
</g>
<g>
	<path class="st4" d="M85.4,28.4H89c-2,5-3.8,9.1-5.6,12.3h-4C81.6,36.9,83.6,32.8,85.4,28.4z M89.7,25.7h-4l-2.7-7.5h3.5L89.7,25.7
		z M90.9,16.5h-3.9l-3.1-7.1h3.6L90.9,16.5z M99.7,35.3c-1,1-2.9,2.8-5.9,5.2h-5.6c3.6-2.5,5.8-4.3,6.6-5.2H99.7z M99.4,22.2l0.3-2
		h-4l0.4-2.6h11.5l-0.4,2.6H103l-0.3,2h5c1.4,0,1.9,0.7,1.7,2.1l-1.3,10.1H90.6l1.8-12.2H99.4z M112.1,11.8c0.4,0,0.7,0.1,1,0.3
		c0.3,0.2,0.4,0.7,0.3,1.6l-0.6,5.7H110l0.4-4.3c0.1-0.1,0.1-0.2,0-0.3c-0.1-0.1-0.1-0.1-0.2-0.1h-16l-0.5,4.5H91l0.7-7.4h9.4
		l-0.4-3h2.9l0.5,3H112.1z M94.6,29.4L94.4,32h3.8l0.3-2.6H94.6z M99,24.8h-3.6L95,27h3.8L99,24.8z M101.5,32h3.8l0.3-2.6h-3.8
		L101.5,32z M102.4,24.8l-0.3,2.2h3.8l0.3-2.2H102.4z M106.9,35.4c0.7,1.1,2.3,2.8,4.7,5.1h-5.2l-3.9-5.1H106.9z"/>
	<path class="st4" d="M123.3,25.4h4.2c-0.9,2-2.1,4.3-3.6,6.8c-1.5,2.5-2.9,4.7-4.3,6.7h-4.9c1.7-2.1,3.3-4.5,5-7.1
		C121.2,29.2,122.4,27.1,123.3,25.4z M118.7,18.4h30.2l-0.4,3.2h-12.8l-2.5,19h-8.5l-1.1-3.2h5.5l2.2-15.8h-13.3L118.7,18.4z
		 M147.4,8.9l-0.6,3.3h-24.4l0.6-3.3H147.4z M138.4,25.4h3.9c0.6,1.9,1.3,4.1,2.4,6.7c0.9,2.6,1.8,4.9,2.8,6.8h-4.9
		C140.8,34,139.4,29.5,138.4,25.4z"/>
	<path class="st4" d="M164.1,30.5l-0.5,3.7c-3.9,1.6-8.3,3.2-13.3,4.8l0.3-3.5l6.5-2.1l0.6-2h-3.5l-0.5-11.8h3.8l0.5,11.1
		c1.1-3.4,2.1-7.1,3-11.1h4.1c-0.9,3.5-2.2,7.5-3.9,12.1L164.1,30.5z M166.7,14.7l-0.5,3.3h-13.1l0.5-3.3h4.8l-0.6-5.1h4.2l0.6,5.1
		H166.7z M183.8,19.2h-7.7l-1,6.6h4.5c2.2-0.1,3,0.8,2.4,2.7l-1.9,12h-16.5l2.4-14.7h5.2l2.5-16.8h4l-1,7h7.7L183.8,19.2z
		 M177.9,28.9h-8.5l-1.3,8.7h8.3L177.9,28.9z"/>
	<path class="st4" d="M186.4,40.7c2.6-3.1,4.4-5.7,5.5-7.6h4.2c-0.7,1.1-1.5,2.3-2.4,3.7c-0.9,1.5-1.8,2.8-2.6,3.9H186.4z M207,12.9
		h12.3l-0.4,3.3h-12.4l-0.4,3.6h8.1c1,0,1.7,0.2,2,0.6c0.3,0.5,0.3,1.2,0.1,2.3l-1.2,8.8h-24.5l1.8-11.7h9.4l1.8-10.9h4.2L207,12.9z
		 M212.1,23.6c0.1-0.4,0-0.6-0.4-0.6h-15.9l-0.8,5.4h16.6L212.1,23.6z M197.2,33.1h3.5c0.5,2.8,1,5.3,1.8,7.6h-4.2
		C197.9,38.5,197.5,36,197.2,33.1z M203.1,33.1h3.5c0.7,2.3,1.8,4.8,3.1,7.6h-4.3C204.5,38.3,203.7,35.8,203.1,33.1z M209.3,33.1
		h3.9c1,2.4,2.3,4.9,4,7.6h-4.6C211.6,38.3,210.5,35.8,209.3,33.1z"/>
</g>
</svg>
