<svg height="598pt" viewBox="-18 -60 598.66799 598" width="598pt" xmlns="http://www.w3.org/2000/svg"><path d="m108.695312 338.164062c-32.414062-.035156-58.679687-26.308593-58.71875-58.722656v-273.128906c.003907-2.734375.199219-5.460938.578126-8.164062-28.972657 4.097656-50.5195318 28.882812-50.554688 58.140624v273.128907c.0390625 32.414062 26.304688 58.6875 58.722656 58.71875h254.449219v-49.972657zm0 0" fill="#d4e1f4"/><path d="m442.285156 56.289062v165.28125c-2.796875-.1875-5.625-.285156-8.472656-.289062-3.035156 0-6.03125.113281-9.019531.328125v-104.925781h-407.300781v212.734375c.027343 22.761719 18.472656 41.203125 41.230468 41.230469h249.550782c1.015624 5.929687 2.46875 11.773437 4.347656 17.488281h-253.898438c-32.417968-.03125-58.6835935-26.304688-58.722656-58.71875v-273.128907c.0351562-32.417968 26.304688-58.6875 58.722656-58.722656h324.839844c32.414062.039063 58.683594 26.304688 58.722656 58.722656zm-17.492187 42.902344v-42.902344c-.03125-22.757812-18.472657-41.203124-41.230469-41.230468h-324.839844c-22.761718.023437-41.207031 18.46875-41.230468 41.230468v42.902344zm0 0" fill="#0635c9"/><g fill="#69e781"><path d="m442.285156 221.570312c-2.796875-.1875-5.625-.285156-8.472656-.289062-3.035156 0-6.03125.113281-9.019531.328125-35.96875 2.550781-69.171875 20.21875-91.375 48.628906-22.210938 28.402344-31.34375 64.886719-25.144531 100.410157 1.015624 5.929687 2.46875 11.773437 4.347656 17.488281 19.839844 61 81.917968 97.746093 144.9375 85.792969 63.023437-11.949219 107.335937-68.875 103.457031-132.902344-3.875-64.027344-54.730469-115.191406-118.730469-119.457032zm-48.167968 24.625c-9.367188 9.984376-17.03125 21.441407-22.6875 33.910157-4.777344-3.257813-9.289063-6.898438-13.480469-10.882813 10.433593-9.96875 22.722656-17.789062 36.167969-23.027344zm-47.835938 36.082032c5.769531 5.421875 12.039062 10.28125 18.726562 14.519531-4.355468 14.007813-6.863281 28.519531-7.457031 43.175781h-33.335937c1.664062-20.953125 9.324218-40.980468 22.066406-57.695312zm-22.066406 75.1875h33.335937c.597657 14.660156 3.101563 29.179687 7.457031 43.191406-6.6875 4.234375-12.957031 9.097656-18.726562 14.519531-12.742188-16.714843-20.40625-36.753906-22.066406-57.710937zm33.734375 70.757812c4.199219-3.980468 8.703125-7.613281 13.480469-10.871094 5.65625 12.460938 13.324218 23.914063 22.6875 33.894532-13.449219-5.230469-25.738282-13.054688-36.167969-23.023438zm67.117187 26.019532c-16.675781-10.539063-29.722656-26.234376-38.332031-45.585938 12.070313-5.632812 25.054687-9.042969 38.332031-10.082031zm0-73.199219c-15.320312 1.035156-30.332031 4.800781-44.328125 11.121093-3.230469-11.308593-5.140625-22.953124-5.683593-34.699218h50.011718zm0-41.070313h-50.011718c.546874-11.742187 2.457031-23.386718 5.683593-34.695312 13.996094 6.320312 29.007813 10.089844 44.328125 11.125zm0-41.101562c-13.277344-1.035156-26.257812-4.445313-38.332031-10.070313 8.609375-19.363281 21.65625-35.058593 38.332031-45.601562zm84.324219-29.921875c-4.144531 3.964843-8.589844 7.601562-13.308594 10.867187-5.648437-12.355468-13.269531-23.707031-22.5625-33.621094 13.316407 5.1875 25.5 12.914063 35.871094 22.753907zm-66.832031-25.75c16.632812 10.515625 29.660156 26.148437 38.269531 45.425781-12.027344 5.714844-24.996094 9.1875-38.269531 10.246094zm0 73.203125c15.324218-1.0625 30.332031-4.882813 44.292968-11.285156 3.261719 11.355468 5.183594 23.054687 5.734376 34.855468h-50.027344zm0 41.0625h50.027344c-.550782 11.808594-2.472657 23.511718-5.734376 34.871094-13.960937-6.402344-28.96875-10.226563-44.292968-11.28125zm0 96.777344v-55.660157c13.273437 1.054688 26.242187 4.523438 38.269531 10.234375-8.609375 19.277344-21.636719 34.917969-38.269531 45.425782zm30.960937-2.996094c9.296875-9.90625 16.914063-21.253906 22.5625-33.609375 4.71875 3.261719 9.167969 6.894531 13.308594 10.871093-10.367187 9.835938-22.554687 17.5625-35.871094 22.738282zm47.589844-35.757813c-5.722656-5.421875-11.9375-10.296875-18.566406-14.570312 4.40625-14.089844 6.941406-28.699219 7.542969-43.453125h33.335937c-1.675781 21.09375-9.425781 41.246094-22.3125 58.023437zm-11.023437-75.515625c-.601563-14.742187-3.140626-29.351562-7.542969-43.441406 6.632812-4.265625 12.84375-9.144531 18.566406-14.578125 12.886719 16.78125 20.636719 36.929687 22.3125 58.019531zm0 0"/><path d="m195.855469 82.203125h.074219c13.460937-.019531 24.382812-10.902344 24.4375-24.363281v-.085938c0-13.496094-10.933594-24.433594-24.429688-24.441406-13.488281-.011719-24.4375 10.90625-24.464844 24.402344-.019531 13.488281 10.890625 24.449218 24.382813 24.488281zm-4.835938-29.375c1.296875-1.304687 3.070313-2.03125 4.910157-2.023437h.007812c3.84375.003906 6.957031 3.117187 6.953125 6.957031-.007813 3.839843-3.121094 6.949219-6.960937 6.949219h-.023438c-2.8125-.007813-5.34375-1.707032-6.414062-4.308594-1.070313-2.601563-.46875-5.59375 1.527343-7.574219zm0 0"/><path d="m149.855469 57.609375c.019531-13.488281-10.875-24.453125-24.363281-24.523437h-.089844c-9.871094.003906-18.773438 5.945312-22.566406 15.0625-3.789063 9.117187-1.722657 19.617187 5.234374 26.617187 4.554688 4.617187 10.773438 7.214844 17.253907 7.207031h.089843c13.457032-.011718 24.382813-10.898437 24.441407-24.363281zm-24.46875 6.875c-3.839844 0-6.949219-3.121094-6.945313-6.957031.007813-3.839844 3.121094-6.953125 6.960938-6.949219h.023437c3.84375.011719 6.945313 3.132813 6.9375 6.972656-.011719 3.835938-3.132812 6.945313-6.976562 6.933594zm0 0"/><path d="m54.886719 81.765625c13.464843-.019531 24.386719-10.910156 24.449219-24.378906v-.074219c-.019532-13.464844-10.914063-24.386719-24.378907-24.433594h-.070312c-13.5-.027344-24.460938 10.902344-24.480469 24.40625-.019531 13.5 10.90625 24.460938 24.40625 24.480469zm-6.945313-24.476563c.003906-3.832031 3.113282-6.929687 6.945313-6.921874h.023437c3.839844.007812 6.949219 3.125 6.941406 6.964843-.007812 3.839844-3.125 6.945313-6.964843 6.941407h-.027344c-3.839844-.019532-6.9375-3.144532-6.917969-6.984376zm0 0"/></g></svg>