<svg xmlns="http://www.w3.org/2000/svg" xmlns:xlink="http://www.w3.org/1999/xlink" width="1920" height="380" viewBox="0 0 1920 380"><defs><style>.a{fill:#960efa;stroke:#707070;}.b{clip-path:url(#a);}.c{fill:url(#b);}.d{fill:url(#c);}.e,.j{fill:#fff;}.f{opacity:0.722;}.g{fill:url(#d);}.h{opacity:0.621;}.i{opacity:0.898;}.j{opacity:0.201;}.k{opacity:0.841;}.l,.m,.n,.u,.v{fill:rgba(255,255,255,0.17);}.aa,.ac,.ad,.l,.m,.n,.o,.q,.r,.s,.u,.v{stroke:#fff;}.l{stroke-linecap:square;}.ab,.ad,.l,.m,.n,.p,.q,.u,.y{stroke-linejoin:round;}.ad,.m,.q,.u{stroke-miterlimit:10;}.ab,.o,.p,.y{fill:rgba(255,255,255,0.12);}.p,.y{stroke:rgba(255,255,255,0.6);}.p{opacity:0.616;}.q{fill:rgba(255,255,255,0.48);}.r{fill:none;}.s{fill:rgba(255,255,255,0.56);}.t{opacity:0.998;}.u{stroke-linecap:round;}.v{stroke-linejoin:bevel;}.w{opacity:0.25;}.x{opacity:0.852;}.z{opacity:0.865;}.aa{fill:rgba(255,255,255,0.31);}.ab{stroke:rgba(255,255,255,0.3);opacity:0.849;}.ac{fill:rgba(255,255,255,0.1);}.ad{fill:rgba(255,255,255,0.44);}.ae{opacity:0.111;}.af{opacity:0.479;}.ag{fill:url(#e);}.ah{opacity:0.299;}.ai{opacity:0.202;}.aj{fill:url(#f);}.ak{isolation:isolate;}.al{filter:url(#q);}.am{filter:url(#o);}.an{filter:url(#m);}.ao{filter:url(#k);}.ap{filter:url(#i);}.aq{filter:url(#g);}</style><clipPath id="a"><rect class="a" width="1920" height="380" transform="translate(0 260)"/></clipPath><linearGradient id="b" x1="0.646" y1="1" x2="0.646" gradientUnits="objectBoundingBox"><stop offset="0" stop-color="#182041"/><stop offset="1" stop-color="#182041"/></linearGradient><linearGradient id="c" x1="0.5" x2="0.5" y2="1" gradientUnits="objectBoundingBox"><stop offset="0" stop-color="#122b66" stop-opacity="0"/><stop offset="1" stop-color="#fff"/></linearGradient><linearGradient id="d" x1="0.5" x2="0.5" y2="1" gradientUnits="objectBoundingBox"><stop offset="0" stop-color="#08163c"/><stop offset="1" stop-color="#fff"/></linearGradient><linearGradient id="e" x1="0.5" x2="0.5" y2="1" gradientUnits="objectBoundingBox"><stop offset="0" stop-color="#122b65" stop-opacity="0"/><stop offset="1" stop-color="#fff"/></linearGradient><linearGradient id="f" x1="1.059" y1="-0.042" x2="0" y2="1" gradientUnits="objectBoundingBox"><stop offset="0" stop-color="#1c6def"/><stop offset="0.305" stop-color="#1149b2"/><stop offset="0.379" stop-color="#1457d5"/><stop offset="0.463" stop-color="#3176f8"/><stop offset="0.586" stop-color="#2883ff"/><stop offset="0.67" stop-color="#1858e8"/><stop offset="1" stop-color="#003290"/></linearGradient><filter id="g" x="1390" y="59" width="149" height="185" filterUnits="userSpaceOnUse"><feOffset dy="3" input="SourceAlpha"/><feGaussianBlur stdDeviation="3" result="h"/><feFlood flood-opacity="0.271"/><feComposite operator="in" in2="h"/><feComposite in="SourceGraphic"/></filter><filter id="i" x="1417.041" y="79.291" width="94.857" height="95.58" filterUnits="userSpaceOnUse"><feOffset dy="3" input="SourceAlpha"/><feGaussianBlur stdDeviation="3" result="j"/><feFlood flood-opacity="0.161"/><feComposite operator="in" in2="j"/><feComposite in="SourceGraphic"/></filter><filter id="k" x="1408.059" y="188.118" width="32.269" height="21.849" filterUnits="userSpaceOnUse"><feOffset dy="3" input="SourceAlpha"/><feGaussianBlur stdDeviation="3" result="l"/><feFlood flood-opacity="0.161"/><feComposite operator="in" in2="l"/><feComposite in="SourceGraphic"/></filter><filter id="m" x="1428.868" y="173.917" width="42.429" height="50.308" filterUnits="userSpaceOnUse"><feOffset dy="3" input="SourceAlpha"/><feGaussianBlur stdDeviation="3" result="n"/><feFlood flood-opacity="0.161"/><feComposite operator="in" in2="n"/><feComposite in="SourceGraphic"/></filter><filter id="o" x="1455.909" y="173.461" width="40.811" height="51.18" filterUnits="userSpaceOnUse"><feOffset dy="3" input="SourceAlpha"/><feGaussianBlur stdDeviation="3" result="p"/><feFlood flood-opacity="0.161"/><feComposite operator="in" in2="p"/><feComposite in="SourceGraphic"/></filter><filter id="q" x="1484.805" y="183.686" width="34.245" height="33.629" filterUnits="userSpaceOnUse"><feOffset dy="3" input="SourceAlpha"/><feGaussianBlur stdDeviation="3" result="r"/><feFlood flood-opacity="0.161"/><feComposite operator="in" in2="r"/><feComposite in="SourceGraphic"/></filter></defs><g class="b" transform="translate(0 -260)"><g transform="translate(0 167)"><path class="c" d="M0,0H1920V400H0Z" transform="translate(0 92.262)"/></g><g transform="translate(852.58 471.586) rotate(-60)"><g transform="translate(2.467 3.605)"><rect class="d" width="1.298" height="478.729" transform="translate(1.298 478.729) rotate(180)"/></g><g transform="translate(0 0)"><g transform="translate(0 0)"><circle class="e" cx="3.127" cy="3.127" r="3.127" transform="translate(0)"/><ellipse class="e" cx="3.015" cy="3.015" rx="3.015" ry="3.015" transform="translate(0 0.112)"/></g></g></g><g class="f" transform="translate(246.023 512.347) rotate(59)"><g transform="translate(2.467 3.605)"><rect class="g" width="1.298" height="270.729" transform="translate(1.298 270.729) rotate(180)"/></g><g transform="translate(0 0)"><g transform="translate(0 0)"><circle class="e" cx="3.127" cy="3.127" r="3.127" transform="translate(0)"/><ellipse class="e" cx="3.015" cy="3.015" rx="3.015" ry="3.015" transform="translate(0 0.112)"/></g></g></g><g transform="translate(-2.651 104.988)"><g class="h" transform="translate(1065.652 138.194)"><g class="i" transform="translate(0 0)"><path class="j" d="M-7432.643-5114.047v13.3l13.55,16.174,204.745,114.047,9.253-.989v-12.856l-9.253-15.7L-7419.093-5116.5Z" transform="translate(7479.931 5331.133)"/><g transform="translate(0)"><g class="k" transform="translate(0 167.723)"><path class="l" d="M3593.871,2312.867l10.74-6.469,0,0-.146,46.8-10.681,7.8Z" transform="translate(-3575.7 -2298.156)"/><path class="m" d="M3579.074,2294.839l18.228,8.256-10.453,6.309-18.411-7.989Z" transform="translate(-3568.438 -2294.839)"/><path class="n" d="M3568.542,2303.95l0,0,17.991,8.262v48.081l-17.994-8.47Z" transform="translate(-3568.448 -2297.453)"/></g><g transform="translate(21.364 0)"><g transform="translate(0)"><path class="o" d="M3984.26,2501.831l324.66-186.713v35.838l-324.66,195.464Z" transform="translate(-3705.684 -2158.462)"/><path class="p" d="M3916.741,2096.568l280.279,156.168-286.43,164.687-38.42,22.4-278.474-159.089Z" transform="translate(-3593.695 -2096.568)"/><path class="o" d="M3744.253,2427.069l45.042,25.857v11.734l-45.042-25.888Z" transform="translate(-3638.308 -2164.667)"/></g></g><path class="q" d="M3872.786,2478.811V2475.3l-278.253-159.034v6.493l7.385,6.135.009,31.6-7.025,1.078v2.115l277.883,155.654v-7.031l-6.081-6.02v-26.057Zm-18.322,16.665-6.072-3.9-9.879.973-204.7-114.01-13.9-15.99v-13.292l13.9-2.336,204.7,116.625,9.879,15.513,6.4,3.135Z" transform="translate(-3573.159 -2132.147)"/><path class="r" d="M3604.242,2371.566l11.636-1.9V2356.3l-11.8-16.333" transform="translate(-3575.327 -2143.208)"/><path class="r" d="M3595.316,2332.39v38.033" transform="translate(-3572.779 -2141.063)"/><path class="r" d="M3976.729,2590.52l-18.215-16.618" transform="translate(-3677.003 -2210.367)"/><path class="s" d="M3951.878,2530.045l6.3,3.179v13.568l-6.3-4.119Z" transform="translate(-3676.665 -2183.258)"/><path class="s" d="M3951.878,2529.045l6.3,3.892V2546.5l-6.3-4.119Z" transform="translate(-3911.302 -2316.024)"/><g class="t" transform="translate(299.726 336.723)"><path class="n" d="M3593.877,2314.2l11.186-6.439v43.928l-11.186,6.274-.047-.025Z" transform="translate(-3575.799 -2298.307)"/><path class="u" d="M3579.784,2294.853l18.245,9.647-11.224,6.556-17.957-9.747Z" transform="translate(-3568.685 -2294.853)"/><path class="v" d="M3568.542,2303.95l18.031,9.945v43.231l-18.031-8.841Z" transform="translate(-3568.542 -2297.463)"/></g><path class="r" d="M-8946.437-4890.9l17.563-3.372" transform="translate(9228.37 5241.058)"/></g></g><path class="o" d="M3744.253,2427.069l9.158,5.1v3.273l-9.158-5.217Z" transform="translate(-3441.087 -2076.825)"/><path class="o" d="M3744.253,2427.069l9.158,4.2v3.273l-9.158-4.32Z" transform="translate(-3739.864 -2246.401)"/></g><g class="w" transform="translate(1065.652 64.267)"><g transform="translate(0 0)"><path class="j" d="M-7432.643-5114.047v13.3l13.55,16.174,204.745,114.047,9.253-.989v-12.856l-9.253-15.7L-7419.093-5116.5Z" transform="translate(7479.931 5331.133)"/><g class="x" transform="translate(0)"><g class="k" transform="translate(0 167.723)"><path class="l" d="M3593.871,2312.867l10.74-6.469,0,0-.146,46.8-10.681,7.8Z" transform="translate(-3575.7 -2298.156)"/><path class="m" d="M3579.074,2294.839l18.228,8.256-10.453,6.309-18.411-7.989Z" transform="translate(-3568.438 -2294.839)"/><path class="n" d="M3568.542,2303.95l0,0,17.991,8.262v48.081l-17.994-8.47Z" transform="translate(-3568.448 -2297.453)"/></g><g transform="translate(21.364 0)"><g transform="translate(0)"><path class="o" d="M3984.26,2501.831l324.66-186.713v35.838l-324.66,195.464Z" transform="translate(-3705.684 -2158.462)"/><path class="y" d="M3916.741,2096.568l280.279,156.168-286.43,164.687-38.42,22.4-278.474-159.089Z" transform="translate(-3593.695 -2096.568)"/><path class="o" d="M3744.253,2427.069l45.042,25.857v11.734l-45.042-25.888Z" transform="translate(-3638.308 -2164.667)"/></g></g><path class="q" d="M3872.786,2478.811V2475.3l-278.253-159.034v6.493l7.385,6.135.009,31.6-7.025,1.078v2.115l277.883,155.654v-7.031l-6.081-6.02v-26.057Zm-18.322,16.665-6.072-3.9-9.879.973-204.7-114.01-13.9-15.99v-13.292l13.9-2.336,204.7,116.625,9.879,15.513,6.4,3.135Z" transform="translate(-3573.159 -2132.147)"/><path class="r" d="M3604.242,2371.566l11.636-1.9V2356.3l-11.8-16.333" transform="translate(-3575.327 -2143.208)"/><path class="r" d="M3595.316,2332.39v38.033" transform="translate(-3572.779 -2141.063)"/><path class="r" d="M3976.729,2590.52l-18.215-16.618" transform="translate(-3677.003 -2210.367)"/><path class="s" d="M3951.878,2530.045l6.3,3.179v13.568l-6.3-4.119Z" transform="translate(-3676.665 -2183.258)"/><path class="s" d="M3951.878,2529.045l6.3,3.892V2546.5l-6.3-4.119Z" transform="translate(-3911.302 -2316.024)"/><g class="t" transform="translate(299.726 336.723)"><path class="n" d="M3593.877,2314.2l11.186-6.439v43.928l-11.186,6.274-.047-.025Z" transform="translate(-3575.799 -2298.307)"/><path class="u" d="M3579.784,2294.853l18.245,9.647-11.224,6.556-17.957-9.747Z" transform="translate(-3568.685 -2294.853)"/><path class="v" d="M3568.542,2303.95l18.031,9.945v43.231l-18.031-8.841Z" transform="translate(-3568.542 -2297.463)"/></g><path class="r" d="M-8946.437-4890.9l17.563-3.372" transform="translate(9228.37 5241.058)"/></g></g><path class="o" d="M3744.253,2427.069l9.158,5.1v3.273l-9.158-5.217Z" transform="translate(-3441.087 -2076.825)"/><path class="o" d="M3744.253,2427.069l9.158,4.2v3.273l-9.158-4.32Z" transform="translate(-3739.864 -2246.401)"/></g><g class="z" transform="translate(1065.652 211.379)"><g transform="translate(0 0)"><path class="j" d="M-7432.643-5114.047v13.3l13.55,16.174,204.745,114.047,9.253-.989v-12.856l-9.253-15.7L-7419.093-5116.5Z" transform="translate(7479.931 5331.133)"/><g transform="translate(0)"><g class="k" transform="translate(0 167.723)"><path class="l" d="M3593.871,2312.867l10.74-6.469,0,0-.146,46.8-10.681,7.8Z" transform="translate(-3575.7 -2298.156)"/><path class="m" d="M3579.074,2294.839l18.228,8.256-10.453,6.309-18.411-7.989Z" transform="translate(-3568.438 -2294.839)"/><path class="n" d="M3568.542,2303.95l0,0,17.991,8.262v48.081l-17.994-8.47Z" transform="translate(-3568.448 -2297.453)"/></g><g transform="translate(21.364 0)"><g transform="translate(0)"><path class="aa" d="M3984.26,2501.51,4308.919,2312v38.633L3984.26,2546.1Z" transform="translate(-3705.684 -2158.142)"/><path class="ab" d="M3916.741,2096.568l279.965,153.6-286.117,167.253-38.42,22.4-278.474-159.089Z" transform="translate(-3593.695 -2096.568)"/><path class="ac" d="M3744.253,2427.069l45.042,25.857v11.734l-45.042-25.888Z" transform="translate(-3638.308 -2164.667)"/></g></g><path class="ad" d="M3872.786,2478.811V2475.3l-278.253-159.034v6.493l7.385,6.135.009,31.6-7.025,1.078v2.115l277.883,155.654v-7.031l-6.081-6.02v-26.057Zm-18.322,16.665-6.072-3.9-9.879.973-204.7-114.01-13.9-15.99v-13.292l13.9-2.336,204.7,116.625,9.879,15.513,6.4,3.135Z" transform="translate(-3573.159 -2132.147)"/><path class="r" d="M3604.242,2371.566l11.636-1.9V2356.3l-11.8-16.333" transform="translate(-3575.327 -2143.208)"/><path class="r" d="M3595.316,2332.39v38.033" transform="translate(-3572.779 -2141.063)"/><path class="r" d="M3976.729,2590.52l-18.215-16.618" transform="translate(-3677.003 -2210.367)"/><path class="s" d="M3951.878,2530.045l6.3,3.179v13.568l-6.3-4.119Z" transform="translate(-3676.665 -2183.258)"/><path class="s" d="M3951.878,2529.045l6.3,3.892V2546.5l-6.3-4.119Z" transform="translate(-3911.302 -2316.024)"/><g class="t" transform="translate(299.726 336.723)"><path class="n" d="M3593.877,2314.2l11.186-6.439v43.928l-11.186,6.274-.047-.025Z" transform="translate(-3575.799 -2298.307)"/><path class="u" d="M3579.784,2294.853l18.245,9.647-11.224,6.556-17.957-9.747Z" transform="translate(-3568.685 -2294.853)"/><path class="v" d="M3568.542,2303.95l18.031,9.945v43.231l-18.031-8.841Z" transform="translate(-3568.542 -2297.463)"/></g><path class="r" d="M-8946.437-4890.9l17.563-3.372" transform="translate(9228.37 5241.058)"/></g></g><path class="o" d="M3744.253,2427.069l9.158,5.1v3.273l-9.158-5.217Z" transform="translate(-3441.087 -2076.825)"/><path class="o" d="M3744.253,2427.069l9.158,4.2v3.273l-9.158-4.32Z" transform="translate(-3739.864 -2246.401)"/></g><g class="ae" transform="translate(1065.652 -10.203)"><path class="j" d="M-7432.643-5114.047v13.3l13.55,16.174,204.745,114.047,9.253-.989v-12.856l-9.253-15.7L-7419.093-5116.5Z" transform="translate(7479.931 5331.133)"/><g transform="translate(0)"><g class="k" transform="translate(0 167.723)"><path class="l" d="M3593.871,2312.867l10.74-6.469,0,0-.146,46.8-10.681,7.8Z" transform="translate(-3575.7 -2298.156)"/><path class="m" d="M3579.074,2294.839l18.228,8.256-10.453,6.309-18.411-7.989Z" transform="translate(-3568.438 -2294.839)"/><path class="n" d="M3568.542,2303.95l0,0,17.991,8.262v48.081l-17.994-8.47Z" transform="translate(-3568.448 -2297.453)"/></g><g transform="translate(21.364 0)"><g transform="translate(0)"><path class="o" d="M3984.26,2501.831l324.66-186.713v35.838l-324.66,195.464Z" transform="translate(-3705.684 -2158.462)"/><path class="y" d="M3916.741,2096.568l280.279,156.168-286.43,164.687-38.42,22.4-278.474-159.089Z" transform="translate(-3593.695 -2096.568)"/><path class="o" d="M3744.253,2427.069l45.042,25.857v11.734l-45.042-25.888Z" transform="translate(-3638.308 -2164.667)"/></g></g><path class="q" d="M3872.786,2478.811V2475.3l-278.253-159.034v6.493l7.385,6.135.009,31.6-7.025,1.078v2.115l277.883,155.654v-7.031l-6.081-6.02v-26.057Zm-18.322,16.665-6.072-3.9-9.879.973-204.7-114.01-13.9-15.99v-13.292l13.9-2.336,204.7,116.625,9.879,15.513,6.4,3.135Z" transform="translate(-3573.159 -2132.147)"/><path class="r" d="M3604.242,2371.566l11.636-1.9V2356.3l-11.8-16.333" transform="translate(-3575.327 -2143.208)"/><path class="r" d="M3595.316,2332.39v38.033" transform="translate(-3572.779 -2141.063)"/><path class="r" d="M3976.729,2590.52l-18.215-16.618" transform="translate(-3677.003 -2210.367)"/><path class="s" d="M3951.878,2530.045l6.3,3.179v13.568l-6.3-4.119Z" transform="translate(-3676.665 -2183.258)"/><path class="s" d="M3951.878,2529.045l6.3,3.892V2546.5l-6.3-4.119Z" transform="translate(-3911.302 -2316.024)"/><g class="t" transform="translate(299.726 336.723)"><path class="n" d="M3593.877,2314.2l11.186-6.439v43.928l-11.186,6.274-.047-.025Z" transform="translate(-3575.799 -2298.307)"/><path class="u" d="M3579.784,2294.853l18.245,9.647-11.224,6.556-17.957-9.747Z" transform="translate(-3568.685 -2294.853)"/><path class="v" d="M3568.542,2303.95l18.031,9.945v43.231l-18.031-8.841Z" transform="translate(-3568.542 -2297.463)"/></g><path class="r" d="M-8946.437-4890.9l17.563-3.372" transform="translate(9228.37 5241.058)"/></g><path class="o" d="M3744.253,2427.069l9.158,5.1v3.273l-9.158-5.217Z" transform="translate(-3441.087 -2076.825)"/><path class="o" d="M3744.253,2427.069l9.158,4.2v3.273l-9.158-4.32Z" transform="translate(-3739.864 -2246.401)"/></g></g><g class="af" transform="translate(1851.729 477.087) rotate(59)"><g transform="translate(2.467 3.605)"><rect class="ag" width="1.298" height="270.729" transform="translate(1.298 270.729) rotate(180)"/></g><g transform="translate(0 0)"><g transform="translate(0 0)"><circle class="e" cx="3.127" cy="3.127" r="3.127" transform="translate(0)"/><ellipse class="e" cx="3.015" cy="3.015" rx="3.015" ry="3.015" transform="translate(0 0.112)"/></g></g></g><g class="ah" transform="translate(-1414.652 47.173)"><g class="h" transform="translate(1065.652 137.578)"><path class="j" d="M-7432.643-5114.057v13.247l13.493,16.106,203.9,113.575,9.215-.985v-12.8l-9.215-15.631-203.9-115.956Z" transform="translate(7479.735 5330.243)"/><g transform="translate(0)"><g class="k" transform="translate(0 167.028)"><path class="l" d="M3593.871,2312.841l10.7-6.442,0,0-.146,46.6-10.637,7.765Z" transform="translate(-3575.775 -2298.19)"/><path class="m" d="M3579.03,2294.839l18.152,8.222-10.41,6.282-18.334-7.956Z" transform="translate(-3568.438 -2294.839)"/><path class="n" d="M3568.542,2303.95l0,0,17.916,8.228v47.881l-17.92-8.435Z" transform="translate(-3568.448 -2297.48)"/></g><g transform="translate(21.276 0)"><g transform="translate(0 0)"><path class="o" d="M3984.26,2501.056l323.313-185.938v35.69L3984.26,2545.461Z" transform="translate(-3706.838 -2159.111)"/><path class="y" d="M3915.4,2096.568l279.117,155.521-285.243,164-38.261,22.3-277.32-158.429Z" transform="translate(-3593.695 -2096.568)"/><path class="o" d="M3744.253,2427.069l44.855,25.75V2464.5l-44.855-25.781Z" transform="translate(-3638.748 -2165.754)"/></g></g><path class="q" d="M3871.632,2478.137v-3.5l-277.1-158.374v6.466l7.355,6.11.009,31.474-7,1.073v2.106L3871.632,2518.5v-7l-6.056-5.995v-25.949Zm-18.246,16.6-6.047-3.888-9.838.969-203.847-113.538-13.843-15.923v-13.236l13.843-2.326L3837.5,2462.932l9.838,15.449,6.369,3.123Z" transform="translate(-3573.247 -2132.911)"/><path class="r" d="M3604.241,2371.435l11.588-1.893v-13.311l-11.75-16.266" transform="translate(-3575.446 -2144.024)"/><path class="r" d="M3595.316,2332.39v37.876" transform="translate(-3572.872 -2141.855)"/><path class="r" d="M3976.653,2590.451l-18.139-16.549" transform="translate(-3678.17 -2211.874)"/><path class="s" d="M3951.877,2530.045l6.272,3.166v13.512l-6.272-4.1Z" transform="translate(-3677.806 -2184.696)"/><path class="s" d="M3951.877,2529.045l6.272,3.876v13.512l-6.272-4.1Z" transform="translate(-3911.47 -2316.907)"/><g class="t" transform="translate(298.483 335.327)"><path class="n" d="M3593.877,2314.176l11.139-6.413v43.746l-11.139,6.248-.047-.025Z" transform="translate(-3575.873 -2298.346)"/><path class="u" d="M3579.739,2294.853l18.169,9.607-11.177,6.529-17.883-9.707Z" transform="translate(-3568.686 -2294.853)"/><path class="v" d="M3568.542,2303.95l17.957,9.9v43.052l-17.957-8.8Z" transform="translate(-3568.542 -2297.49)"/></g><path class="r" d="M-8946.437-4890.914l17.491-3.357" transform="translate(9227.201 5239.62)"/></g><path class="o" d="M3744.253,2427.069l9.121,5.08v3.259l-9.121-5.2Z" transform="translate(-3442.344 -2078.277)"/><path class="o" d="M3744.253,2427.069l9.121,4.187v3.259l-9.121-4.3Z" transform="translate(-3739.882 -2247.15)"/></g><g class="w" transform="translate(1065.652 63.958)"><path class="j" d="M-7432.643-5114.057v13.247l13.493,16.106,203.9,113.575,9.215-.985v-12.8l-9.215-15.631-203.9-115.956Z" transform="translate(7479.735 5330.243)"/><g transform="translate(0)"><g class="k" transform="translate(0 167.028)"><path class="l" d="M3593.871,2312.841l10.7-6.442,0,0-.146,46.6-10.637,7.765Z" transform="translate(-3575.775 -2298.19)"/><path class="m" d="M3579.03,2294.839l18.152,8.222-10.41,6.282-18.334-7.956Z" transform="translate(-3568.438 -2294.839)"/><path class="n" d="M3568.542,2303.95l0,0,17.916,8.228v47.881l-17.92-8.435Z" transform="translate(-3568.448 -2297.48)"/></g><g transform="translate(21.276 0)"><g transform="translate(0 0)"><path class="o" d="M3984.26,2501.056l323.313-185.938v35.69L3984.26,2545.461Z" transform="translate(-3706.838 -2159.111)"/><path class="y" d="M3915.4,2096.568l279.117,155.521-285.243,164-38.261,22.3-277.32-158.429Z" transform="translate(-3593.695 -2096.568)"/><path class="o" d="M3744.253,2427.069l44.855,25.75V2464.5l-44.855-25.781Z" transform="translate(-3638.748 -2165.754)"/></g></g><path class="q" d="M3871.632,2478.137v-3.5l-277.1-158.374v6.466l7.355,6.11.009,31.474-7,1.073v2.106L3871.632,2518.5v-7l-6.056-5.995v-25.949Zm-18.246,16.6-6.047-3.888-9.838.969-203.847-113.538-13.843-15.923v-13.236l13.843-2.326L3837.5,2462.932l9.838,15.449,6.369,3.123Z" transform="translate(-3573.247 -2132.911)"/><path class="r" d="M3604.241,2371.435l11.588-1.893v-13.311l-11.75-16.266" transform="translate(-3575.446 -2144.024)"/><path class="r" d="M3595.316,2332.39v37.876" transform="translate(-3572.872 -2141.855)"/><path class="r" d="M3976.653,2590.451l-18.139-16.549" transform="translate(-3678.17 -2211.874)"/><path class="s" d="M3951.877,2530.045l6.272,3.166v13.512l-6.272-4.1Z" transform="translate(-3677.806 -2184.696)"/><path class="s" d="M3951.877,2529.045l6.272,3.876v13.512l-6.272-4.1Z" transform="translate(-3911.47 -2316.907)"/><g class="t" transform="translate(298.483 335.327)"><path class="n" d="M3593.877,2314.176l11.139-6.413v43.746l-11.139,6.248-.047-.025Z" transform="translate(-3575.873 -2298.346)"/><path class="u" d="M3579.739,2294.853l18.169,9.607-11.177,6.529-17.883-9.707Z" transform="translate(-3568.686 -2294.853)"/><path class="v" d="M3568.542,2303.95l17.957,9.9v43.052l-17.957-8.8Z" transform="translate(-3568.542 -2297.49)"/></g><path class="r" d="M-8946.437-4890.914l17.491-3.357" transform="translate(9227.201 5239.62)"/></g><path class="o" d="M3744.253,2427.069l9.121,5.08v3.259l-9.121-5.2Z" transform="translate(-3442.344 -2078.277)"/><path class="o" d="M3744.253,2427.069l9.121,4.187v3.259l-9.121-4.3Z" transform="translate(-3739.882 -2247.15)"/></g><g class="z" transform="translate(1065.652 210.46)"><path class="j" d="M-7432.643-5114.057v13.247l13.493,16.106,203.9,113.575,9.215-.985v-12.8l-9.215-15.631-203.9-115.956Z" transform="translate(7479.735 5330.243)"/><g transform="translate(0)"><g class="k" transform="translate(0 167.028)"><path class="l" d="M3593.871,2312.841l10.7-6.442,0,0-.146,46.6-10.637,7.765Z" transform="translate(-3575.775 -2298.19)"/><path class="m" d="M3579.03,2294.839l18.152,8.222-10.41,6.282-18.334-7.956Z" transform="translate(-3568.438 -2294.839)"/><path class="n" d="M3568.542,2303.95l0,0,17.916,8.228v47.881l-17.92-8.435Z" transform="translate(-3568.448 -2297.48)"/></g><g transform="translate(21.276 0)"><g transform="translate(0 0)"><path class="aa" d="M3984.26,2500.725,4307.573,2312v38.473L3984.26,2545.13Z" transform="translate(-3706.838 -2158.78)"/><path class="y" d="M3915.4,2096.568l278.8,152.966-284.931,166.559-38.261,22.3-277.32-158.429Z" transform="translate(-3593.695 -2096.568)"/><path class="ac" d="M3744.253,2427.069l44.855,25.75V2464.5l-44.855-25.781Z" transform="translate(-3638.748 -2165.754)"/></g></g><path class="q" d="M3871.632,2478.137v-3.5l-277.1-158.374v6.466l7.355,6.11.009,31.474-7,1.073v2.106L3871.632,2518.5v-7l-6.056-5.995v-25.949Zm-18.246,16.6-6.047-3.888-9.838.969-203.847-113.538-13.843-15.923v-13.236l13.843-2.326L3837.5,2462.932l9.838,15.449,6.369,3.123Z" transform="translate(-3573.247 -2132.911)"/><path class="r" d="M3604.241,2371.435l11.588-1.893v-13.311l-11.75-16.266" transform="translate(-3575.446 -2144.024)"/><path class="r" d="M3595.316,2332.39v37.876" transform="translate(-3572.872 -2141.855)"/><path class="r" d="M3976.653,2590.451l-18.139-16.549" transform="translate(-3678.17 -2211.874)"/><path class="s" d="M3951.877,2530.045l6.272,3.166v13.512l-6.272-4.1Z" transform="translate(-3677.806 -2184.696)"/><path class="s" d="M3951.877,2529.045l6.272,3.876v13.512l-6.272-4.1Z" transform="translate(-3911.47 -2316.907)"/><g class="t" transform="translate(298.483 335.327)"><path class="n" d="M3593.877,2314.176l11.139-6.413v43.746l-11.139,6.248-.047-.025Z" transform="translate(-3575.873 -2298.346)"/><path class="u" d="M3579.739,2294.853l18.169,9.607-11.177,6.529-17.883-9.707Z" transform="translate(-3568.686 -2294.853)"/><path class="v" d="M3568.542,2303.95l17.957,9.9v43.052l-17.957-8.8Z" transform="translate(-3568.542 -2297.49)"/></g><path class="r" d="M-8946.437-4890.914l17.491-3.357" transform="translate(9227.201 5239.62)"/></g><path class="o" d="M3744.253,2427.069l9.121,5.08v3.259l-9.121-5.2Z" transform="translate(-3442.344 -2078.277)"/><path class="o" d="M3744.253,2427.069l9.121,4.187v3.259l-9.121-4.3Z" transform="translate(-3739.882 -2247.15)"/></g><g class="ai" transform="translate(1065.652 -10.203)"><path class="j" d="M-7432.643-5114.057v13.247l13.493,16.106,203.9,113.575,9.215-.985v-12.8l-9.215-15.631-203.9-115.956Z" transform="translate(7479.735 5330.243)"/><g transform="translate(0)"><g class="k" transform="translate(0 167.028)"><path class="l" d="M3593.871,2312.841l10.7-6.442,0,0-.146,46.6-10.637,7.765Z" transform="translate(-3575.775 -2298.19)"/><path class="m" d="M3579.03,2294.839l18.152,8.222-10.41,6.282-18.334-7.956Z" transform="translate(-3568.438 -2294.839)"/><path class="n" d="M3568.542,2303.95l0,0,17.916,8.228v47.881l-17.92-8.435Z" transform="translate(-3568.448 -2297.48)"/></g><g transform="translate(21.276 0)"><g transform="translate(0 0)"><path class="o" d="M3984.26,2501.056l323.313-185.938v35.69L3984.26,2545.461Z" transform="translate(-3706.838 -2159.111)"/><path class="y" d="M3915.4,2096.568l279.117,155.521-285.243,164-38.261,22.3-277.32-158.429Z" transform="translate(-3593.695 -2096.568)"/><path class="o" d="M3744.253,2427.069l44.855,25.75V2464.5l-44.855-25.781Z" transform="translate(-3638.748 -2165.754)"/></g></g><path class="q" d="M3871.632,2478.137v-3.5l-277.1-158.374v6.466l7.355,6.11.009,31.474-7,1.073v2.106L3871.632,2518.5v-7l-6.056-5.995v-25.949Zm-18.246,16.6-6.047-3.888-9.838.969-203.847-113.538-13.843-15.923v-13.236l13.843-2.326L3837.5,2462.932l9.838,15.449,6.369,3.123Z" transform="translate(-3573.247 -2132.911)"/><path class="r" d="M3604.241,2371.435l11.588-1.893v-13.311l-11.75-16.266" transform="translate(-3575.446 -2144.024)"/><path class="r" d="M3595.316,2332.39v37.876" transform="translate(-3572.872 -2141.855)"/><path class="r" d="M3976.653,2590.451l-18.139-16.549" transform="translate(-3678.17 -2211.874)"/><path class="s" d="M3951.877,2530.045l6.272,3.166v13.512l-6.272-4.1Z" transform="translate(-3677.806 -2184.696)"/><path class="s" d="M3951.877,2529.045l6.272,3.876v13.512l-6.272-4.1Z" transform="translate(-3911.47 -2316.907)"/><g class="t" transform="translate(298.483 335.327)"><path class="n" d="M3593.877,2314.176l11.139-6.413v43.746l-11.139,6.248-.047-.025Z" transform="translate(-3575.873 -2298.346)"/><path class="u" d="M3579.739,2294.853l18.169,9.607-11.177,6.529-17.883-9.707Z" transform="translate(-3568.686 -2294.853)"/><path class="v" d="M3568.542,2303.95l17.957,9.9v43.052l-17.957-8.8Z" transform="translate(-3568.542 -2297.49)"/></g><path class="r" d="M-8946.437-4890.914l17.491-3.357" transform="translate(9227.201 5239.62)"/></g><path class="o" d="M3744.253,2427.069l9.121,5.08v3.259l-9.121-5.2Z" transform="translate(-3442.344 -2078.277)"/><path class="o" d="M3744.253,2427.069l9.121,4.187v3.259l-9.121-4.3Z" transform="translate(-3739.882 -2247.15)"/></g></g></g></svg>