<svg xmlns="http://www.w3.org/2000/svg" xmlns:xlink="http://www.w3.org/1999/xlink" width="1920" height="383" viewBox="0 0 1920 383"><defs><style>.a{fill:none;stroke:#707070;}.b{fill:url(#a);}.c{clip-path:url(#b);}.d{opacity:0.89;}.e{opacity:0.22;}.f,.h,.i{fill:rgba(255,255,255,0);}.f,.h,.i,.m,.n,.q,.s,.x,.y{stroke:#fff;}.g{opacity:0.2;}.h,.i,.x,.y{stroke-linejoin:round;}.i,.y{stroke-linecap:round;}.j{opacity:0.23;}.k{opacity:0.52;}.l{opacity:0.5;}.m{fill:rgba(255,255,255,0.35);}.n,.t,.v,.w,.x,.y{fill:rgba(255,255,255,0.16);}.o{fill:rgba(255,255,255,0.87);}.p{opacity:0.38;}.q{fill:rgba(255,255,255,0.31);}.r{fill:rgba(255,255,255,0.68);}.s{fill:rgba(255,255,255,0.34);}.t{stroke:rgba(255,255,255,0.5);}.u{fill:rgba(255,255,255,0.64);}.w{opacity:0.1;}.z{fill:url(#c);}.aa{fill:#fff;}.ab{opacity:0.61;}.ac{opacity:0.29;}.ad{fill:url(#h);}.ae{opacity:0.53;}</style><linearGradient id="a" x1="0.5" x2="0.5" y2="1" gradientUnits="objectBoundingBox"><stop offset="0" stop-color="#182041"/><stop offset="1" stop-color="#182041"/></linearGradient><clipPath id="b"><rect class="a" width="1920" height="382" transform="translate(0 90)"/></clipPath><linearGradient id="c" x1="0.5" x2="0.5" y2="1" gradientUnits="objectBoundingBox"><stop offset="0" stop-color="#fff" stop-opacity="0"/><stop offset="1" stop-color="#fff"/></linearGradient><linearGradient id="h" y1="1" y2="0" xlink:href="#c"/></defs><g transform="translate(0 -89)"><g transform="translate(1920 559) rotate(180)"><path class="b" d="M0,0H1920V382H0Z" transform="translate(0 88)"/></g><g class="c"><g class="d" transform="translate(1053.851 44.296)"><g class="e" transform="translate(0 131.388)"><path class="f" d="M6872.821,1744.717l-228.862-132-.036.02v65.207l228.9,132.154.37-.212V1744.5Z" transform="translate(-6643.923 -1480.579)"/><path class="f" d="M6872.8,1586.929l-228.862,132.134,228.862,132,.368-.212,228.5-131.79Z" transform="translate(-6643.9 -1586.929)"/><path class="f" d="M6917.191,1612.733l-.031-.019-228.5,131.79v65.377l228.528-131.941Z" transform="translate(-6459.396 -1480.579)"/></g><g class="g" transform="translate(0 0)"><path class="f" d="M6872.821,1744.717l-228.862-132-.036.02v65.207l228.9,132.154.37-.212V1744.5Z" transform="translate(-6643.923 -1480.579)"/><path class="h" d="M6872.8,1586.929l-228.862,132.134,228.862,132,.368-.212,228.5-131.79Z" transform="translate(-6643.9 -1586.929)"/><path class="i" d="M6917.191,1612.736l-228.528,131.771v65.377l228.528-131.941Z" transform="translate(-6459.396 -1480.582)"/></g><g class="j" transform="translate(0 262.57)"><path class="f" d="M6872.821,1744.717l-228.862-132-.036.02v65.207l228.9,132.154.37-.212V1744.5Z" transform="translate(-6643.923 -1480.579)"/><path class="f" d="M6872.8,1586.929l-228.862,132.134,228.862,132,.368-.212,228.5-131.79Z" transform="translate(-6643.9 -1586.929)"/><path class="f" d="M6917.191,1612.733l-.031-.019-228.5,131.79v65.377l228.528-131.941Z" transform="translate(-6459.396 -1480.579)"/></g></g><g class="k" transform="translate(1164.609 -41.202)"><g class="l" transform="translate(0 245.509)"><path class="m" d="M6761.953,1680.78l-118.01-68.066-.017.01v33.624l118.027,68.144.189-.109v-33.711Z" transform="translate(-6643.925 -1544.58)"/><path class="n" d="M6761.942,1586.929l-118.01,68.134,118.01,68.066.19-.109,117.823-67.957Z" transform="translate(-6643.915 -1586.929)"/><path class="n" d="M6806.5,1612.724l-.016-.01-117.822,67.956v33.711l117.838-68.035Z" transform="translate(-6570.446 -1544.58)"/><g transform="translate(10.624 89.414)"><path class="o" d="M6656.447,1628.641a2.013,2.013,0,0,1-3.1,1.944,7.869,7.869,0,0,1-3.093-5.441,2.011,2.011,0,0,1,3.093-1.944A6.219,6.219,0,0,1,6656.447,1628.641Z" transform="translate(-6650.239 -1622.874)"/><path class="o" d="M6659.408,1630.282a2.012,2.012,0,0,1-3.1,1.944,7.873,7.873,0,0,1-3.095-5.441,2.012,2.012,0,0,1,3.095-1.944A6.707,6.707,0,0,1,6659.408,1630.282Z" transform="translate(-6641.977 -1618.297)"/><path class="o" d="M6662.371,1632.027a2.012,2.012,0,0,1-3.1,1.944,7.864,7.864,0,0,1-3.1-5.441,2.011,2.011,0,0,1,3.1-1.944A7.158,7.158,0,0,1,6662.371,1632.027Z" transform="translate(-6633.718 -1613.434)"/></g></g><g class="p" transform="translate(0 311.556)"><g transform="translate(0 0)"><path class="q" d="M6761.953,1680.78l-118.01-68.066-.017.01v33.624l118.027,68.144.189-.109v-33.711Z" transform="translate(-6643.925 -1544.58)"/><path class="n" d="M6761.942,1586.929l-118.01,68.134,118.01,68.066.19-.109,117.823-67.957Z" transform="translate(-6643.915 -1586.929)"/><path class="n" d="M6806.5,1612.724l-.016-.01-117.822,67.956v33.711l117.838-68.035Z" transform="translate(-6570.446 -1544.58)"/></g><g transform="translate(10.624 86.877)"><path class="r" d="M6656.447,1628.641a2.013,2.013,0,0,1-3.1,1.944,7.869,7.869,0,0,1-3.093-5.441,2.011,2.011,0,0,1,3.093-1.944A6.219,6.219,0,0,1,6656.447,1628.641Z" transform="translate(-6650.239 -1622.874)"/><path class="r" d="M6659.408,1630.282a2.012,2.012,0,0,1-3.1,1.944,7.873,7.873,0,0,1-3.095-5.441,2.012,2.012,0,0,1,3.095-1.944A6.707,6.707,0,0,1,6659.408,1630.282Z" transform="translate(-6641.977 -1618.297)"/><path class="r" d="M6662.371,1632.027a2.012,2.012,0,0,1-3.1,1.944,7.864,7.864,0,0,1-3.1-5.441,2.011,2.011,0,0,1,3.1-1.944A7.158,7.158,0,0,1,6662.371,1632.027Z" transform="translate(-6633.718 -1613.434)"/></g></g><g transform="translate(0 179.239)"><path class="s" d="M6761.953,1680.78l-118.01-68.066-.017.01v33.624l118.027,68.144.189-.109v-33.711Z" transform="translate(-6643.925 -1544.58)"/><path class="t" d="M6761.942,1586.929l-118.01,68.134,118.01,68.066.19-.109,117.823-67.957Z" transform="translate(-6643.915 -1586.929)"/><path class="n" d="M6806.5,1612.724l-.016-.01-117.822,67.956v33.711l117.838-68.035Z" transform="translate(-6570.446 -1544.58)"/><g transform="translate(10.624 89.414)"><path class="u" d="M6656.447,1628.641a2.013,2.013,0,0,1-3.1,1.944,7.869,7.869,0,0,1-3.093-5.441,2.011,2.011,0,0,1,3.093-1.944A6.219,6.219,0,0,1,6656.447,1628.641Z" transform="translate(-6650.239 -1622.874)"/><path class="u" d="M6659.408,1630.282a2.012,2.012,0,0,1-3.1,1.944,7.873,7.873,0,0,1-3.095-5.441,2.012,2.012,0,0,1,3.095-1.944A6.707,6.707,0,0,1,6659.408,1630.282Z" transform="translate(-6641.977 -1618.297)"/><path class="u" d="M6662.371,1632.027a2.012,2.012,0,0,1-3.1,1.944,7.864,7.864,0,0,1-3.1-5.441,2.011,2.011,0,0,1,3.1-1.944A7.158,7.158,0,0,1,6662.371,1632.027Z" transform="translate(-6633.718 -1613.434)"/></g><g transform="translate(87.035 55.338)"><g transform="translate(0 0)"><path class="v" d="M6820.353,3030.673l32.447,18.7.052-.029v-37.386l-.052-.029Z" transform="translate(-6820.353 -3011.933)"/></g><path class="v" d="M6876.284,3030.661l-32.393-18.7v37.385Z" transform="translate(-6811.394 -3011.924)"/></g></g><path class="w" d="M3581.055-1061.724l32.218-18.547-.109,198.2-32.151,18.087-32.151-18.087-.186-198.2" transform="translate(-3462.031 1135.422)"/><g class="g" transform="translate(86.934)"><path class="x" d="M1051.649,4989.886v-36.7l31.786,18.355v36.7Z" transform="translate(-1051.649 -4934.832)"/><path class="y" d="M1069.32,5008.238v-36.7l31.785-18.355v36.7Z" transform="translate(-1037.534 -4934.832)"/><path class="x" d="M1083.435,4942.979l31.784,18.354-31.784,18.355-31.786-18.355Z" transform="translate(-1051.346 -4942.979)"/></g></g><g transform="matrix(0.485, 0.875, -0.875, 0.485, 1513.012, 305.074)"><g transform="translate(1.608 2.35)"><path class="z" d="M0,0H.846L3.767,179.322H2.921Z" transform="translate(3.767 179.322) rotate(180)"/></g><g transform="translate(0 0)"><g transform="translate(0 0)"><ellipse class="aa" cx="2.038" cy="2.038" rx="2.038" ry="2.038"/><ellipse class="aa" cx="1.965" cy="1.965" rx="1.965" ry="1.965" transform="translate(0 0.073)"/></g></g></g><g transform="translate(1053.81 178.691) rotate(-60)"><g transform="translate(1.608 2.35)"><rect class="z" width="0.846" height="179.295" transform="translate(0.846 179.295) rotate(180)"/></g><g transform="translate(0 0)"><g transform="translate(0 0)"><circle class="aa" cx="2.038" cy="2.038" r="2.038" transform="translate(0 0)"/><ellipse class="aa" cx="1.965" cy="1.965" rx="1.965" ry="1.965" transform="translate(0 0.073)"/></g></g></g><g class="ab" transform="translate(1671.388 308.214) rotate(-60)"><g transform="translate(1.608 2.35)"><rect class="z" width="0.846" height="309.374" transform="translate(0.846 309.374) rotate(180)"/></g><g transform="translate(0 0)"><g transform="translate(0 0)"><circle class="aa" cx="2.038" cy="2.038" r="2.038" transform="translate(0 0)"/><ellipse class="aa" cx="1.965" cy="1.965" rx="1.965" ry="1.965" transform="translate(0 0.073)"/></g></g></g><g transform="translate(891.599 402.791) rotate(-120)"><g transform="translate(1.608 2.35)"><rect class="z" width="0.846" height="179.295" transform="translate(0.846 179.295) rotate(180)"/></g><g transform="translate(0 0)"><g transform="translate(0 0)"><circle class="aa" cx="2.038" cy="2.038" r="2.038" transform="translate(0 0)"/><ellipse class="aa" cx="1.965" cy="1.965" rx="1.965" ry="1.965" transform="translate(0 0.073)"/></g></g></g><g class="ac" transform="translate(660 80.368) rotate(-60)"><rect class="z" width="0.846" height="463.227" transform="translate(0.846 463.227) rotate(180)"/></g><g transform="translate(1527.648 166.947) rotate(-120)"><rect class="ad" width="0.901" height="303.281" transform="translate(0.901 303.281) rotate(180)"/></g><g class="ae" transform="translate(-1288)"><g class="d" transform="translate(1053.851 44.296)"><g class="e" transform="translate(0 131.388)"><path class="f" d="M6872.821,1744.717l-228.862-132-.036.02v65.207l228.9,132.154.37-.212V1744.5Z" transform="translate(-6643.923 -1480.579)"/><path class="f" d="M6872.8,1586.929l-228.862,132.134,228.862,132,.368-.212,228.5-131.79Z" transform="translate(-6643.9 -1586.929)"/><path class="f" d="M6917.191,1612.733l-.031-.019-228.5,131.79v65.377l228.528-131.941Z" transform="translate(-6459.396 -1480.579)"/></g><g class="g" transform="translate(0 0)"><path class="f" d="M6872.821,1744.717l-228.862-132-.036.02v65.207l228.9,132.154.37-.212V1744.5Z" transform="translate(-6643.923 -1480.579)"/><path class="h" d="M6872.8,1586.929l-228.862,132.134,228.862,132,.368-.212,228.5-131.79Z" transform="translate(-6643.9 -1586.929)"/><path class="i" d="M6917.191,1612.736l-228.528,131.771v65.377l228.528-131.941Z" transform="translate(-6459.396 -1480.582)"/></g><g class="j" transform="translate(0 262.57)"><path class="f" d="M6872.821,1744.717l-228.862-132-.036.02v65.207l228.9,132.154.37-.212V1744.5Z" transform="translate(-6643.923 -1480.579)"/><path class="f" d="M6872.8,1586.929l-228.862,132.134,228.862,132,.368-.212,228.5-131.79Z" transform="translate(-6643.9 -1586.929)"/><path class="f" d="M6917.191,1612.733l-.031-.019-228.5,131.79v65.377l228.528-131.941Z" transform="translate(-6459.396 -1480.579)"/></g></g><g class="k" transform="translate(1164.609 -41.202)"><g class="l" transform="translate(0 245.509)"><path class="m" d="M6761.953,1680.78l-118.01-68.066-.017.01v33.624l118.027,68.144.189-.109v-33.711Z" transform="translate(-6643.925 -1544.58)"/><path class="n" d="M6761.942,1586.929l-118.01,68.134,118.01,68.066.19-.109,117.823-67.957Z" transform="translate(-6643.915 -1586.929)"/><path class="n" d="M6806.5,1612.724l-.016-.01-117.822,67.956v33.711l117.838-68.035Z" transform="translate(-6570.446 -1544.58)"/><g transform="translate(10.624 89.414)"><path class="o" d="M6656.447,1628.641a2.013,2.013,0,0,1-3.1,1.944,7.869,7.869,0,0,1-3.093-5.441,2.011,2.011,0,0,1,3.093-1.944A6.219,6.219,0,0,1,6656.447,1628.641Z" transform="translate(-6650.239 -1622.874)"/><path class="o" d="M6659.408,1630.282a2.012,2.012,0,0,1-3.1,1.944,7.873,7.873,0,0,1-3.095-5.441,2.012,2.012,0,0,1,3.095-1.944A6.707,6.707,0,0,1,6659.408,1630.282Z" transform="translate(-6641.977 -1618.297)"/><path class="o" d="M6662.371,1632.027a2.012,2.012,0,0,1-3.1,1.944,7.864,7.864,0,0,1-3.1-5.441,2.011,2.011,0,0,1,3.1-1.944A7.158,7.158,0,0,1,6662.371,1632.027Z" transform="translate(-6633.718 -1613.434)"/></g></g><g class="p" transform="translate(0 311.556)"><g transform="translate(0 0)"><path class="q" d="M6761.953,1680.78l-118.01-68.066-.017.01v33.624l118.027,68.144.189-.109v-33.711Z" transform="translate(-6643.925 -1544.58)"/><path class="n" d="M6761.942,1586.929l-118.01,68.134,118.01,68.066.19-.109,117.823-67.957Z" transform="translate(-6643.915 -1586.929)"/><path class="n" d="M6806.5,1612.724l-.016-.01-117.822,67.956v33.711l117.838-68.035Z" transform="translate(-6570.446 -1544.58)"/></g><g transform="translate(10.624 86.877)"><path class="r" d="M6656.447,1628.641a2.013,2.013,0,0,1-3.1,1.944,7.869,7.869,0,0,1-3.093-5.441,2.011,2.011,0,0,1,3.093-1.944A6.219,6.219,0,0,1,6656.447,1628.641Z" transform="translate(-6650.239 -1622.874)"/><path class="r" d="M6659.408,1630.282a2.012,2.012,0,0,1-3.1,1.944,7.873,7.873,0,0,1-3.095-5.441,2.012,2.012,0,0,1,3.095-1.944A6.707,6.707,0,0,1,6659.408,1630.282Z" transform="translate(-6641.977 -1618.297)"/><path class="r" d="M6662.371,1632.027a2.012,2.012,0,0,1-3.1,1.944,7.864,7.864,0,0,1-3.1-5.441,2.011,2.011,0,0,1,3.1-1.944A7.158,7.158,0,0,1,6662.371,1632.027Z" transform="translate(-6633.718 -1613.434)"/></g></g><g transform="translate(0 179.239)"><path class="s" d="M6761.953,1680.78l-118.01-68.066-.017.01v33.624l118.027,68.144.189-.109v-33.711Z" transform="translate(-6643.925 -1544.58)"/><path class="t" d="M6761.942,1586.929l-118.01,68.134,118.01,68.066.19-.109,117.823-67.957Z" transform="translate(-6643.915 -1586.929)"/><path class="n" d="M6806.5,1612.724l-.016-.01-117.822,67.956v33.711l117.838-68.035Z" transform="translate(-6570.446 -1544.58)"/><g transform="translate(10.624 89.414)"><path class="u" d="M6656.447,1628.641a2.013,2.013,0,0,1-3.1,1.944,7.869,7.869,0,0,1-3.093-5.441,2.011,2.011,0,0,1,3.093-1.944A6.219,6.219,0,0,1,6656.447,1628.641Z" transform="translate(-6650.239 -1622.874)"/><path class="u" d="M6659.408,1630.282a2.012,2.012,0,0,1-3.1,1.944,7.873,7.873,0,0,1-3.095-5.441,2.012,2.012,0,0,1,3.095-1.944A6.707,6.707,0,0,1,6659.408,1630.282Z" transform="translate(-6641.977 -1618.297)"/><path class="u" d="M6662.371,1632.027a2.012,2.012,0,0,1-3.1,1.944,7.864,7.864,0,0,1-3.1-5.441,2.011,2.011,0,0,1,3.1-1.944A7.158,7.158,0,0,1,6662.371,1632.027Z" transform="translate(-6633.718 -1613.434)"/></g><g transform="translate(87.035 55.338)"><g transform="translate(0 0)"><path class="v" d="M6820.353,3030.673l32.447,18.7.052-.029v-37.386l-.052-.029Z" transform="translate(-6820.353 -3011.933)"/></g><path class="v" d="M6876.284,3030.661l-32.393-18.7v37.385Z" transform="translate(-6811.394 -3011.924)"/></g></g><path class="w" d="M3581.055-1061.724l32.218-18.547-.109,198.2-32.151,18.087-32.151-18.087-.186-198.2" transform="translate(-3462.031 1135.422)"/><g class="g" transform="translate(86.934)"><path class="x" d="M1051.649,4989.886v-36.7l31.786,18.355v36.7Z" transform="translate(-1051.649 -4934.832)"/><path class="y" d="M1069.32,5008.238v-36.7l31.785-18.355v36.7Z" transform="translate(-1037.534 -4934.832)"/><path class="x" d="M1083.435,4942.979l31.784,18.354-31.784,18.355-31.786-18.355Z" transform="translate(-1051.346 -4942.979)"/></g></g><g transform="matrix(0.485, 0.875, -0.875, 0.485, 1513.012, 305.074)"><g transform="translate(1.608 2.35)"><path class="z" d="M0,0H.846L3.767,179.322H2.921Z" transform="translate(3.767 179.322) rotate(180)"/></g><g transform="translate(0 0)"><g transform="translate(0 0)"><ellipse class="aa" cx="2.038" cy="2.038" rx="2.038" ry="2.038"/><ellipse class="aa" cx="1.965" cy="1.965" rx="1.965" ry="1.965" transform="translate(0 0.073)"/></g></g></g><g transform="translate(1053.81 178.691) rotate(-60)"><g transform="translate(1.608 2.35)"><rect class="z" width="0.846" height="179.295" transform="translate(0.846 179.295) rotate(180)"/></g><g transform="translate(0 0)"><g transform="translate(0 0)"><circle class="aa" cx="2.038" cy="2.038" r="2.038" transform="translate(0 0)"/><ellipse class="aa" cx="1.965" cy="1.965" rx="1.965" ry="1.965" transform="translate(0 0.073)"/></g></g></g><g class="ab" transform="translate(1671.388 308.214) rotate(-60)"><g transform="translate(1.608 2.35)"><rect class="z" width="0.846" height="309.374" transform="translate(0.846 309.374) rotate(180)"/></g><g transform="translate(0 0)"><g transform="translate(0 0)"><circle class="aa" cx="2.038" cy="2.038" r="2.038" transform="translate(0 0)"/><ellipse class="aa" cx="1.965" cy="1.965" rx="1.965" ry="1.965" transform="translate(0 0.073)"/></g></g></g><g transform="translate(891.599 402.791) rotate(-120)"><g transform="translate(1.608 2.35)"><rect class="z" width="0.846" height="179.295" transform="translate(0.846 179.295) rotate(180)"/></g><g transform="translate(0 0)"><g transform="translate(0 0)"><circle class="aa" cx="2.038" cy="2.038" r="2.038" transform="translate(0 0)"/><ellipse class="aa" cx="1.965" cy="1.965" rx="1.965" ry="1.965" transform="translate(0 0.073)"/></g></g></g><g class="ac" transform="translate(660 80.368) rotate(-60)"><rect class="z" width="0.846" height="463.227" transform="translate(0.846 463.227) rotate(180)"/></g><g transform="translate(1527.648 166.947) rotate(-120)"><rect class="ad" width="0.901" height="303.281" transform="translate(0.901 303.281) rotate(180)"/></g></g></g></g></svg>