<svg xmlns="http://www.w3.org/2000/svg" xmlns:xlink="http://www.w3.org/1999/xlink" width="1920" height="382" viewBox="0 0 1920 382"><defs><style>.a,.j,.l,.m,.w{fill:none;}.a{stroke:#707070;}.b{fill:url(#a);}.c{clip-path:url(#b);}.d{opacity:0.3;}.e,.g,.h{fill:rgba(255,255,255,0.12);}.f{opacity:0.4;}.g,.h,.j,.l,.m,.q,.t,.w{stroke:#fff;}.g,.j,.m,.q,.t{stroke-linecap:round;}.g,.h,.i,.j,.l,.m,.q,.t{stroke-linejoin:round;}.i{fill:rgba(255,255,255,0.29);stroke:rgba(255,255,255,0.5);opacity:0.44;}.j{opacity:0.49;}.k{opacity:0.91;}.n{opacity:0.69;fill:url(#c);}.n,.y{isolation:isolate;}.o{opacity:0.35;}.p{fill:rgba(255,255,255,0.24);}.q{fill:rgba(255,255,255,0.19);}.r{fill:rgba(255,255,255,0.45);}.s{opacity:0.6;}.t{fill:rgba(255,255,255,0.16);}.u{opacity:0.33;}.v{opacity:0.24;}.w{opacity:0.72;}.x{fill:#fff;}.y{opacity:0.56;fill:url(#d);}.z{opacity:0.53;}.aa{opacity:0.15;}</style><linearGradient id="a" x1="0.5" x2="0.5" y2="1" gradientUnits="objectBoundingBox"><stop offset="0" stop-color="#182041"/><stop offset="1" stop-color="#182041"/></linearGradient><clipPath id="b"><rect class="a" width="1920" height="382" transform="translate(0 90)"/></clipPath><linearGradient id="c" x1="0.483" y1="0.019" x2="1.193" y2="0.264" gradientUnits="objectBoundingBox"><stop offset="0" stop-color="#fff"/><stop offset="1" stop-color="#fff" stop-opacity="0"/><stop offset="1"/></linearGradient><linearGradient id="d" x1="0.187" y1="0.703" x2="0.5" y2="1" gradientUnits="objectBoundingBox"><stop offset="0" stop-color="#fff"/><stop offset="1" stop-color="#fff" stop-opacity="0.031"/></linearGradient></defs><g transform="translate(0 -2713)"><g transform="translate(1920 3183) rotate(180)"><rect class="b" width="1920" height="382" transform="translate(0 88)"/></g><g class="c" transform="translate(0 2623)"><g transform="translate(31.777 49.054)"><g class="d" transform="translate(1032.1 -33.054)"><path class="e" d="M1173.8,5094.229V4953.184L1051.65,5023.7V5164.75Z" transform="translate(-807.091 -4882.66)"/><g class="f" transform="translate(122.409 0)"><path class="g" d="M1191.469,5164.75V5023.7l-122.149-70.521v141.045Z" transform="translate(-1069.32 -4882.66)"/><path class="h" d="M1173.8,4942.981,1051.65,5013.5l122.148,70.521,122.149-70.521Z" transform="translate(-1051.649 -4942.981)"/></g><path class="i" d="M5019.352,1663.816l-.444,142.655,120.781,70.633,124.055-70.72V1663.816l-122.316,70.017Z" transform="translate(-4774.92 -1381.828)"/><g transform="translate(244.817 211.675)"><path class="j" d="M1415.174-407.2l122.005,70.245-122.005,70.245h0l-122.005-70.245Z" transform="translate(-1293.169 407.199)"/></g><g class="k" transform="translate(121.733 140.406)"><path class="l" d="M1173.8,5094.229V4953.184L1051.65,5023.7V5164.75Z" transform="translate(-928.825 -4881.826)"/><path class="m" d="M1191.469,5164.75V5023.7l-122.149-70.521v141.045Z" transform="translate(-1068.644 -4881.826)"/><path class="l" d="M1173.8,4942.981,1051.65,5013.5l122.148,70.521Z" transform="translate(-1050.973 -4942.146)"/><path class="n" d="M252.1,1.828l-.662-.382L128.885-69.3l.443-141.75.219-.127,122.116-70.971.222.129,122.629,71.484-.1,121.206h-.883l.1-120.7-121.968-71.1L130.209-210.544l-.44,140.733L251.221.3V-138.191h.883Z" transform="translate(-128.885 282.151)"/></g><g class="o" transform="translate(0 70.62)"><path class="p" d="M1173.8,5094.229V4953.184L1051.65,5023.7V5164.75Z" transform="translate(-929.5 -4882.66)"/><path class="q" d="M1191.469,5164.75V5023.7l-122.149-70.521v141.045Z" transform="translate(-1069.32 -4882.66)"/><path class="r" d="M1173.8,4942.981,1051.65,5013.5l122.148,70.521,122.149-70.521Z" transform="translate(-1051.649 -4942.981)"/></g><g class="f" transform="translate(367.226 0)"><path class="l" d="M1173.8,5094.229V4953.184L1051.65,5023.7V5164.75Z" transform="translate(-929.5 -4882.66)"/><path class="m" d="M1191.469,5164.75V5023.7l-122.149-70.521v141.045Z" transform="translate(-1069.32 -4882.66)"/><path class="l" d="M1173.8,4942.981,1051.65,5013.5l122.148,70.521,122.149-70.521Z" transform="translate(-1051.649 -4942.981)"/></g><g class="s" transform="translate(611.751 141.242)"><path class="l" d="M1173.8,5094.229V4953.184L1051.65,5023.7V5164.75Z" transform="translate(-929.5 -4882.66)"/><path class="t" d="M1191.469,5164.75V5023.7l-122.149-70.521v141.045Z" transform="translate(-1069.32 -4882.66)"/><path class="l" d="M1173.8,4942.981,1051.65,5013.5l122.148,70.521,122.149-70.521Z" transform="translate(-1051.649 -4942.981)"/></g><g class="u" transform="translate(611.751 -142.758)"><path class="l" d="M1173.8,5094.229V4953.184L1051.65,5023.7V5164.75Z" transform="translate(-929.5 -4882.66)"/><path class="m" d="M1191.469,5164.75V5023.7l-122.149-70.521v141.045Z" transform="translate(-1069.32 -4882.66)"/><path class="l" d="M1173.8,4942.981,1051.65,5013.5l122.148,70.521,122.149-70.521Z" transform="translate(-1051.649 -4942.981)"/></g><g class="v" transform="translate(489.881 352.91)"><path class="l" d="M1173.8,5094.229V4953.184L1051.65,5023.7V5164.75Z" transform="translate(-929.5 -4882.66)"/><path class="m" d="M1191.469,5164.75V5023.7l-122.149-70.521v141.045Z" transform="translate(-1069.32 -4882.66)"/><path class="l" d="M1173.8,4942.981,1051.65,5013.5l122.148,70.521,122.149-70.521Z" transform="translate(-1051.649 -4942.981)"/></g><path class="w" d="M-4283.749,374.667V517.655" transform="translate(4650.228 -22.692)"/></g><g transform="translate(1273.226 246.167)"><g transform="translate(0 0)"><circle class="x" cx="3.029" cy="3.029" r="3.029" transform="translate(0 0)"/><circle class="x" cx="2.92" cy="2.92" r="2.92" transform="translate(0 0.108)"/></g></g><path class="y" d="M252.1,1.828l-.662-.382L128.885-69.3l.443-141.75.219-.127,122.116-70.971.222.129,122.629,71.484v69.7h-.883V-210.03l-121.968-71.1L130.209-210.544l-.44,140.733L251.221.3V-138.191h.883Z" transform="translate(1024.948 389.503)"/></g><g class="z" transform="translate(-1318.223 49.054)"><g class="d" transform="translate(1032.1 -33.054)"><path class="e" d="M1173.8,5094.229V4953.184L1051.65,5023.7V5164.75Z" transform="translate(-807.091 -4882.66)"/><g class="f" transform="translate(122.409 0)"><path class="g" d="M1191.469,5164.75V5023.7l-122.149-70.521v141.045Z" transform="translate(-1069.32 -4882.66)"/><path class="h" d="M1173.8,4942.981,1051.65,5013.5l122.148,70.521,122.149-70.521Z" transform="translate(-1051.649 -4942.981)"/></g><path class="i" d="M5019.352,1663.816l-.444,142.655,120.781,70.633,124.055-70.72V1663.816l-122.316,70.017Z" transform="translate(-4774.92 -1381.828)"/><g transform="translate(244.817 211.675)"><path class="j" d="M1415.174-407.2l122.005,70.245-122.005,70.245h0l-122.005-70.245Z" transform="translate(-1293.169 407.199)"/></g><g class="aa" transform="translate(121.733 140.406)"><path class="l" d="M1173.8,5094.229V4953.184L1051.65,5023.7V5164.75Z" transform="translate(-928.825 -4881.826)"/><path class="m" d="M1191.469,5164.75V5023.7l-122.149-70.521v141.045Z" transform="translate(-1068.644 -4881.826)"/><path class="l" d="M1173.8,4942.981,1051.65,5013.5l122.148,70.521Z" transform="translate(-1050.973 -4942.146)"/><path class="n" d="M252.1,1.828l-.662-.382L128.885-69.3l.443-141.75.219-.127,122.116-70.971.222.129,122.629,71.484-.1,121.206h-.883l.1-120.7-121.968-71.1L130.209-210.544l-.44,140.733L251.221.3V-138.191h.883Z" transform="translate(-128.885 282.151)"/></g><g class="o" transform="translate(0 70.62)"><path class="p" d="M1173.8,5094.229V4953.184L1051.65,5023.7V5164.75Z" transform="translate(-929.5 -4882.66)"/><path class="q" d="M1191.469,5164.75V5023.7l-122.149-70.521v141.045Z" transform="translate(-1069.32 -4882.66)"/><path class="r" d="M1173.8,4942.981,1051.65,5013.5l122.148,70.521,122.149-70.521Z" transform="translate(-1051.649 -4942.981)"/></g><g class="f" transform="translate(367.226 0)"><path class="l" d="M1173.8,5094.229V4953.184L1051.65,5023.7V5164.75Z" transform="translate(-929.5 -4882.66)"/><path class="m" d="M1191.469,5164.75V5023.7l-122.149-70.521v141.045Z" transform="translate(-1069.32 -4882.66)"/><path class="l" d="M1173.8,4942.981,1051.65,5013.5l122.148,70.521,122.149-70.521Z" transform="translate(-1051.649 -4942.981)"/></g><g class="s" transform="translate(611.751 141.242)"><path class="l" d="M1173.8,5094.229V4953.184L1051.65,5023.7V5164.75Z" transform="translate(-929.5 -4882.66)"/><path class="m" d="M1191.469,5164.75V5023.7l-122.149-70.521v141.045Z" transform="translate(-1069.32 -4882.66)"/><path class="l" d="M1173.8,4942.981,1051.65,5013.5l122.148,70.521,122.149-70.521Z" transform="translate(-1051.649 -4942.981)"/></g><g class="v" transform="translate(489.881 352.91)"><path class="l" d="M1173.8,5094.229V4953.184L1051.65,5023.7V5164.75Z" transform="translate(-929.5 -4882.66)"/><path class="m" d="M1191.469,5164.75V5023.7l-122.149-70.521v141.045Z" transform="translate(-1069.32 -4882.66)"/><path class="l" d="M1173.8,4942.981,1051.65,5013.5l122.148,70.521,122.149-70.521Z" transform="translate(-1051.649 -4942.981)"/></g><path class="w" d="M-4283.749,374.667V517.655" transform="translate(4650.228 -22.692)"/></g><g transform="translate(1273.226 246.167)"><g transform="translate(0 0)"><circle class="x" cx="3.029" cy="3.029" r="3.029" transform="translate(0 0)"/><circle class="x" cx="2.92" cy="2.92" r="2.92" transform="translate(0 0.108)"/></g></g><path class="y" d="M252.1,1.828l-.662-.382L128.885-69.3l.443-141.75.219-.127,122.116-70.971.222.129,122.629,71.484v69.7h-.883V-210.03l-121.968-71.1L130.209-210.544l-.44,140.733L251.221.3V-138.191h.883Z" transform="translate(1024.948 389.503)"/></g></g></g></svg>