<svg xmlns="http://www.w3.org/2000/svg" xmlns:xlink="http://www.w3.org/1999/xlink" width="1920" height="382" viewBox="0 0 1920 382"><defs><style>.a,.ab,.ac,.aj{fill:none;}.a{stroke:#707070;}.b{fill:url(#a);}.c{opacity:0.8;clip-path:url(#b);}.d{opacity:0.07;}.e{fill:rgba(255,255,255,0.28);}.ab,.ac,.ad,.e,.f,.g,.j,.k,.l,.o,.p,.u,.v,.x,.z{stroke:#fff;}.ab,.ac,.ad,.e,.f,.g,.j,.k,.l,.o,.p,.u,.v,.w,.x,.y,.z{stroke-linejoin:round;}.f{fill:rgba(255,255,255,0.48);}.ac,.f,.k,.o{stroke-linecap:round;}.g,.j,.l{fill:rgba(255,255,255,0.27);}.h{opacity:0.14;}.i{opacity:0.04;}.j{opacity:0.35;}.k{fill:rgba(255,255,255,0.33);}.k,.l{opacity:0.49;}.m{opacity:0.15;}.n{opacity:0.1;}.o,.p{fill:rgba(255,255,255,0.12);}.q{opacity:0.36;}.ae,.ai,.r{fill:#fff;}.r{opacity:0.08;}.s{fill:rgba(255,255,255,0.29);opacity:0.75;}.t{opacity:0.74;}.u{fill:rgba(255,255,255,0.43);}.v{fill:rgba(255,255,255,0.39);fill-rule:evenodd;isolation:isolate;}.w{fill:rgba(255,255,255,0.2);stroke:rgba(255,255,255,0.5);stroke-linecap:square;}.x{fill:rgba(255,255,255,0.9);}.y{fill:rgba(255,255,255,0.5);}.z{fill:rgba(255,255,255,0.7);}.aa{opacity:0.05;}.ad{fill:rgba(255,255,255,0.67);opacity:0.31;}.af{fill:url(#c);}.ag{fill:url(#d);}.ah,.ai{stroke:none;}</style><linearGradient id="a" x1="0.5" x2="0.5" y2="1" gradientUnits="objectBoundingBox"><stop offset="0" stop-color="#182041"/><stop offset="1" stop-color="#182041"/></linearGradient><clipPath id="b"><rect class="a" width="1920" height="382" transform="translate(0 88)"/></clipPath><linearGradient id="c" x1="0.5" x2="0.5" y2="1" gradientUnits="objectBoundingBox"><stop offset="0" stop-color="#fff" stop-opacity="0"/><stop offset="0.494" stop-color="#fff"/><stop offset="1" stop-color="#fff"/><stop offset="1"/></linearGradient><linearGradient id="d" x1="0.5" x2="0.5" y2="1" gradientUnits="objectBoundingBox"><stop offset="0" stop-color="#fff" stop-opacity="0"/><stop offset="0.523" stop-color="#fff"/><stop offset="1" stop-color="#fff" stop-opacity="0.149"/><stop offset="1"/></linearGradient></defs><g transform="translate(0 -88)"><g transform="translate(1920 558) rotate(180)"><rect class="b" width="1920" height="382" transform="translate(0 88)"/></g><g class="c"><g transform="translate(32 -3)"><g class="d" transform="translate(1428.906 -60.958)"><path class="e" d="M1212.271,5138.648V4953.182l-160.622,92.729v185.471Z" transform="translate(-891.033 -4860.455)"/><path class="f" d="M1229.939,5231.382V5045.911l-160.619-92.729v185.466Z" transform="translate(-1069.32 -4860.455)"/><path class="g" d="M1212.268,4942.979l-160.619,92.732,160.619,92.741,160.621-92.741Z" transform="translate(-1051.646 -4942.979)"/></g><g class="h" transform="translate(-116.094 -120.958)"><path class="e" d="M1212.271,5138.648V4953.182l-160.622,92.729v185.471Z" transform="translate(-891.033 -4860.455)"/><path class="f" d="M1229.939,5231.382V5045.911l-160.619-92.729v185.466Z" transform="translate(-1069.32 -4860.455)"/><path class="g" d="M1212.268,4942.979l-160.619,92.732,160.619,92.741,160.621-92.741Z" transform="translate(-1051.646 -4942.979)"/></g><g class="i" transform="translate(1750.756 124.625)"><path class="g" d="M1212.271,5138.648V4953.182l-160.622,92.729v185.471Z" transform="translate(-891.034 -4860.455)"/><path class="f" d="M1229.939,5231.382V5045.911l-160.619-92.729v185.466Z" transform="translate(-1069.32 -4860.455)"/><path class="g" d="M1212.268,4942.979l-160.619,92.732,160.619,92.741,160.621-92.741Z" transform="translate(-1051.646 -4942.979)"/></g><g class="h" transform="translate(205.756 64.625)"><path class="j" d="M1212.271,5138.648V4953.182l-160.622,92.729v185.471Z" transform="translate(-891.034 -4860.455)"/><path class="k" d="M1229.939,5231.382V5045.911l-160.619-92.729v185.466Z" transform="translate(-1069.32 -4860.455)"/><path class="l" d="M1212.268,4942.979l-160.619,92.732,160.619,92.741,160.621-92.741Z" transform="translate(-1051.646 -4942.979)"/></g><g class="m" transform="translate(1430.203 310.208)"><path class="g" d="M1212.271,5138.648V4953.182l-160.622,92.729v185.471Z" transform="translate(-891.033 -4860.455)"/><path class="f" d="M1229.939,5231.382V5045.911l-160.619-92.729v185.466Z" transform="translate(-1069.32 -4860.455)"/><path class="g" d="M1212.268,4942.979l-160.619,92.732,160.619,92.741,160.621-92.741Z" transform="translate(-1051.646 -4942.979)"/></g><g class="h" transform="translate(-114.797 250.208)"><path class="g" d="M1212.271,5138.648V4953.182l-160.622,92.729v185.471Z" transform="translate(-891.033 -4860.455)"/><path class="f" d="M1229.939,5231.382V5045.911l-160.619-92.729v185.466Z" transform="translate(-1069.32 -4860.455)"/><path class="g" d="M1212.268,4942.979l-160.619,92.732,160.619,92.741,160.621-92.741Z" transform="translate(-1052.646 -4941.979)"/></g><g class="n" transform="translate(786.5 -60.958)"><path class="e" d="M1212.271,5138.648V4953.182l-160.622,92.729v185.471Z" transform="translate(-891.033 -4860.455)"/><path class="o" d="M1229.939,5231.382V5045.911l-160.619-92.729v185.466Z" transform="translate(-1069.32 -4860.455)"/><path class="p" d="M1212.268,4942.979l-160.619,92.732,160.619,92.741,160.621-92.741Z" transform="translate(-1051.647 -4942.979)"/></g><g class="q" transform="translate(1107.453 74.999)"><path class="r" d="M1231.353,280.705v186l-160.02-92.892V188.333Z" transform="translate(-1071.286 -46.514)"/><path class="s" d="M5261.071,1661.628l1.171,183.7-120.433,72.384-122.386-72.09-.91-185.677,122.417,69.935Z" transform="translate(-4980.311 -1496.19)"/><g class="t" transform="translate(25.577 0)"><g transform="translate(0)"><path class="u" d="M6756.271,2191.782,6634.4,2262.144l121.873,70.292.188-.116,121.8-69.886Z" transform="translate(-6621.667 -2098.39)"/><path class="v" d="M-290.23,1050.97s-74.073-76.823-75.434-77.647c-.883-.542,122.652-73.974,122.652-73.974s72.86,82.75,73.871,83.882S-290.23,1050.97-290.23,1050.97Z" transform="translate(432.937 -893.643)"/><path class="w" d="M-352.387,974.547l122.506-73.79-58.765-5.727-131.26,75.083Z" transform="translate(419.906 -895.03)"/><g transform="translate(0.043 75.034)"><path class="x" d="M526.139,4939.265l-143-82.338,67.777,4.477Z" transform="translate(-383.139 -4856.927)"/></g><g transform="translate(126.916 135.027)"><g transform="translate(0 3.957)"><g transform="translate(0 0)"><g class="y"><path class="ah" d="M 7.872210025787354 79.97126770019531 C 5.8750319480896 79.97126770019531 4.005232334136963 79.38637542724609 2.607232093811035 78.32435607910156 C 1.248376607894897 77.29185485839844 0.4999988079071045 75.92696380615234 0.4999988079071045 74.48117065429688 L 0.4999988079071045 74.39035797119141 L 0.4999988079071045 1.423778176307678 C 1.019618630409241 1.932771682739258 1.732214093208313 2.384256362915039 2.602887630462646 2.747656106948853 C 4.082254409790039 3.364967107772827 5.959765434265137 3.704933881759644 7.889576435089111 3.704933881759644 C 9.819021224975586 3.704933881759644 11.69651031494141 3.364978313446045 13.17618751525879 2.747689485549927 C 14.02702713012695 2.392528057098389 14.72696876525879 1.953223943710327 15.24333190917969 1.45842969417572 L 15.24333190917969 74.38520050048828 L 15.24333190917969 74.47710418701172 C 15.24333190917969 75.91590881347656 14.49367618560791 77.27919769287109 13.13245391845703 78.31584167480469 C 11.73068809509277 79.38335418701172 9.862565040588379 79.97126770019531 7.872210025787354 79.97126770019531 Z"/><path class="ai" d="M 7.872210025787354 79.47126770019531 C 9.753765106201172 79.47126770019531 11.51430988311768 78.91965484619141 12.82952117919922 77.91805267333984 C 14.06366539001465 76.97820281982422 14.74333190917969 75.75617980957031 14.74333190917969 74.47710418701172 L 14.74333190917969 74.38520050048828 L 14.74333190917969 2.491540431976318 C 14.34046363830566 2.755034446716309 13.88109302520752 2.99526047706604 13.3686990737915 3.209145069122314 C 11.82943248748779 3.851289510726929 9.883576393127441 4.204933643341064 7.889576435089111 4.204933643341064 C 5.895187854766846 4.204933643341064 3.949298858642578 3.851278305053711 2.410298824310303 3.209078311920166 C 1.882667422294617 2.988854646682739 1.41139543056488 2.740775108337402 0.9999988079071045 2.46800708770752 L 0.9999988079071045 74.39035797119141 L 0.9999988079071045 74.48117065429688 C 0.9999988079071045 75.76702117919922 1.678232192993164 76.99050903320313 2.909698724746704 77.92620849609375 C 4.221220970153809 78.92255401611328 5.983610153198242 79.47126770019531 7.872210025787354 79.47126770019531 M 7.872210025787354 80.47126770019531 C 5.766465663909912 80.47126770019531 3.789187669754028 79.85018157958984 2.304776668548584 78.72250366210938 C 0.8185543417930603 77.59322357177734 -1.188913984151441e-06 76.08699035644531 -1.188913984151441e-06 74.48117065429688 L -1.188913984151441e-06 74.39035797119141 L -1.188913984151441e-06 0.004167183302342892 L 0.1342543661594391 0.004167183302342892 C 0.4469099342823029 0.8901227116584778 1.391765475273132 1.700356125831604 2.795476675033569 2.286233901977539 C 4.215109825134277 2.878622770309448 6.024120807647705 3.204933881759644 7.889576435089111 3.204933881759644 C 9.755043029785156 3.204933881759644 11.56368732452393 2.878622770309448 12.98367691040039 2.286233901977539 C 14.3870210647583 1.700444936752319 15.33224296569824 0.8900338411331177 15.64489841461182 0.004167183302342892 L 15.74224281311035 0.004167183302342892 L 15.74333190917969 5.167643166714697e-07 L 15.74333190917969 74.38520050048828 L 15.74333190917969 74.47710418701172 C 15.74333190917969 77.78227996826172 12.21252059936523 80.47126770019531 7.872210025787354 80.47126770019531 Z"/></g></g></g><g class="z" transform="translate(0 0)"><ellipse class="ah" cx="7.871" cy="3.866" rx="7.871" ry="3.866"/><ellipse class="aj" cx="7.871" cy="3.866" rx="7.371" ry="3.366"/></g></g><g transform="translate(227.32 83.367)"><g transform="translate(0 3.957)"><g transform="translate(0 0)"><g class="y"><path class="ah" d="M 7.872210025787354 79.97126770019531 C 5.8750319480896 79.97126770019531 4.005232334136963 79.38637542724609 2.607232093811035 78.32435607910156 C 1.248376607894897 77.29185485839844 0.4999988079071045 75.92696380615234 0.4999988079071045 74.48117065429688 L 0.4999988079071045 74.39035797119141 L 0.4999988079071045 1.423778176307678 C 1.019618630409241 1.932771682739258 1.732214093208313 2.384256362915039 2.602887630462646 2.747656106948853 C 4.082254409790039 3.364967107772827 5.959765434265137 3.704933881759644 7.889576435089111 3.704933881759644 C 9.819021224975586 3.704933881759644 11.69651031494141 3.364978313446045 13.17618751525879 2.747689485549927 C 14.02702713012695 2.392528057098389 14.72696876525879 1.953223943710327 15.24333190917969 1.45842969417572 L 15.24333190917969 74.38520050048828 L 15.24333190917969 74.47710418701172 C 15.24333190917969 75.91590881347656 14.49367618560791 77.27919769287109 13.13245391845703 78.31584167480469 C 11.73068809509277 79.38335418701172 9.862565040588379 79.97126770019531 7.872210025787354 79.97126770019531 Z"/><path class="ai" d="M 7.872210025787354 79.47126770019531 C 9.753765106201172 79.47126770019531 11.51430988311768 78.91965484619141 12.82952117919922 77.91805267333984 C 14.06366539001465 76.97820281982422 14.74333190917969 75.75617980957031 14.74333190917969 74.47710418701172 L 14.74333190917969 74.38520050048828 L 14.74333190917969 2.491540431976318 C 14.34046363830566 2.755034446716309 13.88109302520752 2.99526047706604 13.3686990737915 3.209145069122314 C 11.82943248748779 3.851289510726929 9.883576393127441 4.204933643341064 7.889576435089111 4.204933643341064 C 5.895187854766846 4.204933643341064 3.949298858642578 3.851278305053711 2.410298824310303 3.209078311920166 C 1.882667422294617 2.988854646682739 1.41139543056488 2.740775108337402 0.9999988079071045 2.46800708770752 L 0.9999988079071045 74.39035797119141 L 0.9999988079071045 74.48117065429688 C 0.9999988079071045 75.76702117919922 1.678232192993164 76.99050903320313 2.909698724746704 77.92620849609375 C 4.221220970153809 78.92255401611328 5.983610153198242 79.47126770019531 7.872210025787354 79.47126770019531 M 7.872210025787354 80.47126770019531 C 5.766465663909912 80.47126770019531 3.789187669754028 79.85018157958984 2.304776668548584 78.72250366210938 C 0.8185543417930603 77.59322357177734 -1.188913984151441e-06 76.08699035644531 -1.188913984151441e-06 74.48117065429688 L -1.188913984151441e-06 74.39035797119141 L -1.188913984151441e-06 0.004167183302342892 L 0.1342543661594391 0.004167183302342892 C 0.4469099342823029 0.8901227116584778 1.391765475273132 1.700356125831604 2.795476675033569 2.286233901977539 C 4.215109825134277 2.878622770309448 6.024120807647705 3.204933881759644 7.889576435089111 3.204933881759644 C 9.755043029785156 3.204933881759644 11.56368732452393 2.878622770309448 12.98367691040039 2.286233901977539 C 14.3870210647583 1.700444936752319 15.33224296569824 0.8900338411331177 15.64489841461182 0.004167183302342892 L 15.74224281311035 0.004167183302342892 L 15.74333190917969 5.167643166714697e-07 L 15.74333190917969 74.38520050048828 L 15.74333190917969 74.47710418701172 C 15.74333190917969 77.78227996826172 12.21252059936523 80.47126770019531 7.872210025787354 80.47126770019531 Z"/></g></g></g><g class="z" transform="translate(0)"><ellipse class="ah" cx="7.871" cy="3.866" rx="7.871" ry="3.866"/><ellipse class="aj" cx="7.871" cy="3.866" rx="7.371" ry="3.366"/></g></g><g transform="translate(26.511 83.468)"><g transform="translate(0 3.957)"><g transform="translate(0 0)"><g class="y"><path class="ah" d="M 7.872210025787354 79.97126770019531 C 5.8750319480896 79.97126770019531 4.005232334136963 79.38637542724609 2.607232093811035 78.32435607910156 C 1.248376607894897 77.29185485839844 0.4999988079071045 75.92696380615234 0.4999988079071045 74.48117065429688 L 0.4999988079071045 74.39035797119141 L 0.4999988079071045 1.423778176307678 C 1.019618630409241 1.932771682739258 1.732214093208313 2.384256362915039 2.602887630462646 2.747656106948853 C 4.082254409790039 3.364967107772827 5.959765434265137 3.704933881759644 7.889576435089111 3.704933881759644 C 9.819021224975586 3.704933881759644 11.69651031494141 3.364978313446045 13.17618751525879 2.747689485549927 C 14.02702713012695 2.392528057098389 14.72696876525879 1.953223943710327 15.24333190917969 1.45842969417572 L 15.24333190917969 74.38520050048828 L 15.24333190917969 74.47710418701172 C 15.24333190917969 75.91590881347656 14.49367618560791 77.27919769287109 13.13245391845703 78.31584167480469 C 11.73068809509277 79.38335418701172 9.862565040588379 79.97126770019531 7.872210025787354 79.97126770019531 Z"/><path class="ai" d="M 7.872210025787354 79.47126770019531 C 9.753765106201172 79.47126770019531 11.51430988311768 78.91965484619141 12.82952117919922 77.91805267333984 C 14.06366539001465 76.97820281982422 14.74333190917969 75.75617980957031 14.74333190917969 74.47710418701172 L 14.74333190917969 74.38520050048828 L 14.74333190917969 2.491540431976318 C 14.34046363830566 2.755034446716309 13.88109302520752 2.99526047706604 13.3686990737915 3.209145069122314 C 11.82943248748779 3.851289510726929 9.883576393127441 4.204933643341064 7.889576435089111 4.204933643341064 C 5.895187854766846 4.204933643341064 3.949298858642578 3.851278305053711 2.410298824310303 3.209078311920166 C 1.882667422294617 2.988854646682739 1.41139543056488 2.740775108337402 0.9999988079071045 2.46800708770752 L 0.9999988079071045 74.39035797119141 L 0.9999988079071045 74.48117065429688 C 0.9999988079071045 75.76702117919922 1.678232192993164 76.99050903320313 2.909698724746704 77.92620849609375 C 4.221220970153809 78.92255401611328 5.983610153198242 79.47126770019531 7.872210025787354 79.47126770019531 M 7.872210025787354 80.47126770019531 C 5.766465663909912 80.47126770019531 3.789187669754028 79.85018157958984 2.304776668548584 78.72250366210938 C 0.8185543417930603 77.59322357177734 -1.188913984151441e-06 76.08699035644531 -1.188913984151441e-06 74.48117065429688 L -1.188913984151441e-06 74.39035797119141 L -1.188913984151441e-06 0.004167183302342892 L 0.1342543661594391 0.004167183302342892 C 0.4469099342823029 0.8901227116584778 1.391765475273132 1.700356125831604 2.795476675033569 2.286233901977539 C 4.215109825134277 2.878622770309448 6.024120807647705 3.204933881759644 7.889576435089111 3.204933881759644 C 9.755043029785156 3.204933881759644 11.56368732452393 2.878622770309448 12.98367691040039 2.286233901977539 C 14.3870210647583 1.700444936752319 15.33224296569824 0.8900338411331177 15.64489841461182 0.004167183302342892 L 15.74224281311035 0.004167183302342892 L 15.74333190917969 5.167643166714697e-07 L 15.74333190917969 74.38520050048828 L 15.74333190917969 74.47710418701172 C 15.74333190917969 77.78227996826172 12.21252059936523 80.47126770019531 7.872210025787354 80.47126770019531 Z"/></g></g></g><g class="z" transform="translate(0)"><ellipse class="ah" cx="7.871" cy="3.866" rx="7.871" ry="3.866"/><ellipse class="aj" cx="7.871" cy="3.866" rx="7.371" ry="3.366"/></g></g><g transform="translate(76.713 109.247)"><g transform="translate(0 3.957)"><g transform="translate(0 0)"><g class="y"><path class="ah" d="M 7.872210025787354 79.97126770019531 C 5.8750319480896 79.97126770019531 4.005232334136963 79.38637542724609 2.607232093811035 78.32435607910156 C 1.248376607894897 77.29185485839844 0.4999988079071045 75.92696380615234 0.4999988079071045 74.48117065429688 L 0.4999988079071045 74.39035797119141 L 0.4999988079071045 1.423778176307678 C 1.019618630409241 1.932771682739258 1.732214093208313 2.384256362915039 2.602887630462646 2.747656106948853 C 4.082254409790039 3.364967107772827 5.959765434265137 3.704933881759644 7.889576435089111 3.704933881759644 C 9.819021224975586 3.704933881759644 11.69651031494141 3.364978313446045 13.17618751525879 2.747689485549927 C 14.02702713012695 2.392528057098389 14.72696876525879 1.953223943710327 15.24333190917969 1.45842969417572 L 15.24333190917969 74.38520050048828 L 15.24333190917969 74.47710418701172 C 15.24333190917969 75.91590881347656 14.49367618560791 77.27919769287109 13.13245391845703 78.31584167480469 C 11.73068809509277 79.38335418701172 9.862565040588379 79.97126770019531 7.872210025787354 79.97126770019531 Z"/><path class="ai" d="M 7.872210025787354 79.47126770019531 C 9.753765106201172 79.47126770019531 11.51430988311768 78.91965484619141 12.82952117919922 77.91805267333984 C 14.06366539001465 76.97820281982422 14.74333190917969 75.75617980957031 14.74333190917969 74.47710418701172 L 14.74333190917969 74.38520050048828 L 14.74333190917969 2.491540431976318 C 14.34046363830566 2.755034446716309 13.88109302520752 2.99526047706604 13.3686990737915 3.209145069122314 C 11.82943248748779 3.851289510726929 9.883576393127441 4.204933643341064 7.889576435089111 4.204933643341064 C 5.895187854766846 4.204933643341064 3.949298858642578 3.851278305053711 2.410298824310303 3.209078311920166 C 1.882667422294617 2.988854646682739 1.41139543056488 2.740775108337402 0.9999988079071045 2.46800708770752 L 0.9999988079071045 74.39035797119141 L 0.9999988079071045 74.48117065429688 C 0.9999988079071045 75.76702117919922 1.678232192993164 76.99050903320313 2.909698724746704 77.92620849609375 C 4.221220970153809 78.92255401611328 5.983610153198242 79.47126770019531 7.872210025787354 79.47126770019531 M 7.872210025787354 80.47126770019531 C 5.766465663909912 80.47126770019531 3.789187669754028 79.85018157958984 2.304776668548584 78.72250366210938 C 0.8185543417930603 77.59322357177734 -1.188913984151441e-06 76.08699035644531 -1.188913984151441e-06 74.48117065429688 L -1.188913984151441e-06 74.39035797119141 L -1.188913984151441e-06 0.004167183302342892 L 0.1342543661594391 0.004167183302342892 C 0.4469099342823029 0.8901227116584778 1.391765475273132 1.700356125831604 2.795476675033569 2.286233901977539 C 4.215109825134277 2.878622770309448 6.024120807647705 3.204933881759644 7.889576435089111 3.204933881759644 C 9.755043029785156 3.204933881759644 11.56368732452393 2.878622770309448 12.98367691040039 2.286233901977539 C 14.3870210647583 1.700444936752319 15.33224296569824 0.8900338411331177 15.64489841461182 0.004167183302342892 L 15.74224281311035 0.004167183302342892 L 15.74333190917969 5.167643166714697e-07 L 15.74333190917969 74.38520050048828 L 15.74333190917969 74.47710418701172 C 15.74333190917969 77.78227996826172 12.21252059936523 80.47126770019531 7.872210025787354 80.47126770019531 Z"/></g></g></g><g class="z" transform="translate(0 0)"><ellipse class="ah" cx="7.871" cy="3.866" rx="7.871" ry="3.866"/><ellipse class="aj" cx="7.871" cy="3.866" rx="7.371" ry="3.366"/></g></g><g transform="translate(177.118 109.247)"><g transform="translate(0 3.957)"><g transform="translate(0 0)"><g class="y"><path class="ah" d="M 7.872210025787354 79.97126770019531 C 5.8750319480896 79.97126770019531 4.005232334136963 79.38637542724609 2.607232093811035 78.32435607910156 C 1.248376607894897 77.29185485839844 0.4999988079071045 75.92696380615234 0.4999988079071045 74.48117065429688 L 0.4999988079071045 74.39035797119141 L 0.4999988079071045 1.423778176307678 C 1.019618630409241 1.932771682739258 1.732214093208313 2.384256362915039 2.602887630462646 2.747656106948853 C 4.082254409790039 3.364967107772827 5.959765434265137 3.704933881759644 7.889576435089111 3.704933881759644 C 9.819021224975586 3.704933881759644 11.69651031494141 3.364978313446045 13.17618751525879 2.747689485549927 C 14.02702713012695 2.392528057098389 14.72696876525879 1.953223943710327 15.24333190917969 1.45842969417572 L 15.24333190917969 74.38520050048828 L 15.24333190917969 74.47710418701172 C 15.24333190917969 75.91590881347656 14.49367618560791 77.27919769287109 13.13245391845703 78.31584167480469 C 11.73068809509277 79.38335418701172 9.862565040588379 79.97126770019531 7.872210025787354 79.97126770019531 Z"/><path class="ai" d="M 7.872210025787354 79.47126770019531 C 9.753765106201172 79.47126770019531 11.51430988311768 78.91965484619141 12.82952117919922 77.91805267333984 C 14.06366539001465 76.97820281982422 14.74333190917969 75.75617980957031 14.74333190917969 74.47710418701172 L 14.74333190917969 74.38520050048828 L 14.74333190917969 2.491540431976318 C 14.34046363830566 2.755034446716309 13.88109302520752 2.99526047706604 13.3686990737915 3.209145069122314 C 11.82943248748779 3.851289510726929 9.883576393127441 4.204933643341064 7.889576435089111 4.204933643341064 C 5.895187854766846 4.204933643341064 3.949298858642578 3.851278305053711 2.410298824310303 3.209078311920166 C 1.882667422294617 2.988854646682739 1.41139543056488 2.740775108337402 0.9999988079071045 2.46800708770752 L 0.9999988079071045 74.39035797119141 L 0.9999988079071045 74.48117065429688 C 0.9999988079071045 75.76702117919922 1.678232192993164 76.99050903320313 2.909698724746704 77.92620849609375 C 4.221220970153809 78.92255401611328 5.983610153198242 79.47126770019531 7.872210025787354 79.47126770019531 M 7.872210025787354 80.47126770019531 C 5.766465663909912 80.47126770019531 3.789187669754028 79.85018157958984 2.304776668548584 78.72250366210938 C 0.8185543417930603 77.59322357177734 -1.188913984151441e-06 76.08699035644531 -1.188913984151441e-06 74.48117065429688 L -1.188913984151441e-06 74.39035797119141 L -1.188913984151441e-06 0.004167183302342892 L 0.1342543661594391 0.004167183302342892 C 0.4469099342823029 0.8901227116584778 1.391765475273132 1.700356125831604 2.795476675033569 2.286233901977539 C 4.215109825134277 2.878622770309448 6.024120807647705 3.204933881759644 7.889576435089111 3.204933881759644 C 9.755043029785156 3.204933881759644 11.56368732452393 2.878622770309448 12.98367691040039 2.286233901977539 C 14.3870210647583 1.700444936752319 15.33224296569824 0.8900338411331177 15.64489841461182 0.004167183302342892 L 15.74224281311035 0.004167183302342892 L 15.74333190917969 5.167643166714697e-07 L 15.74333190917969 74.38520050048828 L 15.74333190917969 74.47710418701172 C 15.74333190917969 77.78227996826172 12.21252059936523 80.47126770019531 7.872210025787354 80.47126770019531 Z"/></g></g></g><g class="z" transform="translate(0 0)"><ellipse class="ah" cx="7.871" cy="3.866" rx="7.871" ry="3.866"/><ellipse class="aj" cx="7.871" cy="3.866" rx="7.371" ry="3.366"/></g></g><g class="n" transform="translate(76.713 48.19)"><g transform="translate(0 3.957)"><g transform="translate(0 0)"><g class="y"><path class="ah" d="M 7.872210025787354 79.97126770019531 C 5.8750319480896 79.97126770019531 4.005232334136963 79.38637542724609 2.607232093811035 78.32435607910156 C 1.248376607894897 77.29185485839844 0.4999988079071045 75.92696380615234 0.4999988079071045 74.48117065429688 L 0.4999988079071045 74.39035797119141 L 0.4999988079071045 1.423778176307678 C 1.019618630409241 1.932771682739258 1.732214093208313 2.384256362915039 2.602887630462646 2.747656106948853 C 4.082254409790039 3.364967107772827 5.959765434265137 3.704933881759644 7.889576435089111 3.704933881759644 C 9.819021224975586 3.704933881759644 11.69651031494141 3.364978313446045 13.17618751525879 2.747689485549927 C 14.02702713012695 2.392528057098389 14.72696876525879 1.953223943710327 15.24333190917969 1.45842969417572 L 15.24333190917969 74.38520050048828 L 15.24333190917969 74.47710418701172 C 15.24333190917969 75.91590881347656 14.49367618560791 77.27919769287109 13.13245391845703 78.31584167480469 C 11.73068809509277 79.38335418701172 9.862565040588379 79.97126770019531 7.872210025787354 79.97126770019531 Z"/><path class="ai" d="M 7.872210025787354 79.47126770019531 C 9.753765106201172 79.47126770019531 11.51430988311768 78.91965484619141 12.82952117919922 77.91805267333984 C 14.06366539001465 76.97820281982422 14.74333190917969 75.75617980957031 14.74333190917969 74.47710418701172 L 14.74333190917969 74.38520050048828 L 14.74333190917969 2.491540431976318 C 14.34046363830566 2.755034446716309 13.88109302520752 2.99526047706604 13.3686990737915 3.209145069122314 C 11.82943248748779 3.851289510726929 9.883576393127441 4.204933643341064 7.889576435089111 4.204933643341064 C 5.895187854766846 4.204933643341064 3.949298858642578 3.851278305053711 2.410298824310303 3.209078311920166 C 1.882667422294617 2.988854646682739 1.41139543056488 2.740775108337402 0.9999988079071045 2.46800708770752 L 0.9999988079071045 74.39035797119141 L 0.9999988079071045 74.48117065429688 C 0.9999988079071045 75.76702117919922 1.678232192993164 76.99050903320313 2.909698724746704 77.92620849609375 C 4.221220970153809 78.92255401611328 5.983610153198242 79.47126770019531 7.872210025787354 79.47126770019531 M 7.872210025787354 80.47126770019531 C 5.766465663909912 80.47126770019531 3.789187669754028 79.85018157958984 2.304776668548584 78.72250366210938 C 0.8185543417930603 77.59322357177734 -1.188913984151441e-06 76.08699035644531 -1.188913984151441e-06 74.48117065429688 L -1.188913984151441e-06 74.39035797119141 L -1.188913984151441e-06 0.004167183302342892 L 0.1342543661594391 0.004167183302342892 C 0.4469099342823029 0.8901227116584778 1.391765475273132 1.700356125831604 2.795476675033569 2.286233901977539 C 4.215109825134277 2.878622770309448 6.024120807647705 3.204933881759644 7.889576435089111 3.204933881759644 C 9.755043029785156 3.204933881759644 11.56368732452393 2.878622770309448 12.98367691040039 2.286233901977539 C 14.3870210647583 1.700444936752319 15.33224296569824 0.8900338411331177 15.64489841461182 0.004167183302342892 L 15.74224281311035 0.004167183302342892 L 15.74333190917969 5.167643166714697e-07 L 15.74333190917969 74.38520050048828 L 15.74333190917969 74.47710418701172 C 15.74333190917969 77.78227996826172 12.21252059936523 80.47126770019531 7.872210025787354 80.47126770019531 Z"/></g></g></g><g class="z" transform="translate(0)"><ellipse class="ah" cx="7.871" cy="3.866" rx="7.871" ry="3.866"/><ellipse class="aj" cx="7.871" cy="3.866" rx="7.371" ry="3.366"/></g></g><g class="n" transform="translate(177.118 48.19)"><g transform="translate(0 3.957)"><g transform="translate(0 0)"><g class="y"><path class="ah" d="M 7.872210025787354 79.97126770019531 C 5.8750319480896 79.97126770019531 4.005232334136963 79.38637542724609 2.607232093811035 78.32435607910156 C 1.248376607894897 77.29185485839844 0.4999988079071045 75.92696380615234 0.4999988079071045 74.48117065429688 L 0.4999988079071045 74.39035797119141 L 0.4999988079071045 1.423778176307678 C 1.019618630409241 1.932771682739258 1.732214093208313 2.384256362915039 2.602887630462646 2.747656106948853 C 4.082254409790039 3.364967107772827 5.959765434265137 3.704933881759644 7.889576435089111 3.704933881759644 C 9.819021224975586 3.704933881759644 11.69651031494141 3.364978313446045 13.17618751525879 2.747689485549927 C 14.02702713012695 2.392528057098389 14.72696876525879 1.953223943710327 15.24333190917969 1.45842969417572 L 15.24333190917969 74.38520050048828 L 15.24333190917969 74.47710418701172 C 15.24333190917969 75.91590881347656 14.49367618560791 77.27919769287109 13.13245391845703 78.31584167480469 C 11.73068809509277 79.38335418701172 9.862565040588379 79.97126770019531 7.872210025787354 79.97126770019531 Z"/><path class="ai" d="M 7.872210025787354 79.47126770019531 C 9.753765106201172 79.47126770019531 11.51430988311768 78.91965484619141 12.82952117919922 77.91805267333984 C 14.06366539001465 76.97820281982422 14.74333190917969 75.75617980957031 14.74333190917969 74.47710418701172 L 14.74333190917969 74.38520050048828 L 14.74333190917969 2.491540431976318 C 14.34046363830566 2.755034446716309 13.88109302520752 2.99526047706604 13.3686990737915 3.209145069122314 C 11.82943248748779 3.851289510726929 9.883576393127441 4.204933643341064 7.889576435089111 4.204933643341064 C 5.895187854766846 4.204933643341064 3.949298858642578 3.851278305053711 2.410298824310303 3.209078311920166 C 1.882667422294617 2.988854646682739 1.41139543056488 2.740775108337402 0.9999988079071045 2.46800708770752 L 0.9999988079071045 74.39035797119141 L 0.9999988079071045 74.48117065429688 C 0.9999988079071045 75.76702117919922 1.678232192993164 76.99050903320313 2.909698724746704 77.92620849609375 C 4.221220970153809 78.92255401611328 5.983610153198242 79.47126770019531 7.872210025787354 79.47126770019531 M 7.872210025787354 80.47126770019531 C 5.766465663909912 80.47126770019531 3.789187669754028 79.85018157958984 2.304776668548584 78.72250366210938 C 0.8185543417930603 77.59322357177734 -1.188913984151441e-06 76.08699035644531 -1.188913984151441e-06 74.48117065429688 L -1.188913984151441e-06 74.39035797119141 L -1.188913984151441e-06 0.004167183302342892 L 0.1342543661594391 0.004167183302342892 C 0.4469099342823029 0.8901227116584778 1.391765475273132 1.700356125831604 2.795476675033569 2.286233901977539 C 4.215109825134277 2.878622770309448 6.024120807647705 3.204933881759644 7.889576435089111 3.204933881759644 C 9.755043029785156 3.204933881759644 11.56368732452393 2.878622770309448 12.98367691040039 2.286233901977539 C 14.3870210647583 1.700444936752319 15.33224296569824 0.8900338411331177 15.64489841461182 0.004167183302342892 L 15.74224281311035 0.004167183302342892 L 15.74333190917969 5.167643166714697e-07 L 15.74333190917969 74.38520050048828 L 15.74333190917969 74.47710418701172 C 15.74333190917969 77.78227996826172 12.21252059936523 80.47126770019531 7.872210025787354 80.47126770019531 Z"/></g></g></g><g class="z" transform="translate(0)"><ellipse class="ah" cx="7.871" cy="3.866" rx="7.871" ry="3.866"/><ellipse class="aj" cx="7.871" cy="3.866" rx="7.371" ry="3.366"/></g></g><g class="aa" transform="translate(126.916 24.446)"><g transform="translate(0 3.957)"><g transform="translate(0 0)"><g class="y"><path class="ah" d="M 7.872210025787354 79.97126770019531 C 5.8750319480896 79.97126770019531 4.005232334136963 79.38637542724609 2.607232093811035 78.32435607910156 C 1.248376607894897 77.29185485839844 0.4999988079071045 75.92696380615234 0.4999988079071045 74.48117065429688 L 0.4999988079071045 74.39035797119141 L 0.4999988079071045 1.423778176307678 C 1.019618630409241 1.932771682739258 1.732214093208313 2.384256362915039 2.602887630462646 2.747656106948853 C 4.082254409790039 3.364967107772827 5.959765434265137 3.704933881759644 7.889576435089111 3.704933881759644 C 9.819021224975586 3.704933881759644 11.69651031494141 3.364978313446045 13.17618751525879 2.747689485549927 C 14.02702713012695 2.392528057098389 14.72696876525879 1.953223943710327 15.24333190917969 1.45842969417572 L 15.24333190917969 74.38520050048828 L 15.24333190917969 74.47710418701172 C 15.24333190917969 75.91590881347656 14.49367618560791 77.27919769287109 13.13245391845703 78.31584167480469 C 11.73068809509277 79.38335418701172 9.862565040588379 79.97126770019531 7.872210025787354 79.97126770019531 Z"/><path class="ai" d="M 7.872210025787354 79.47126770019531 C 9.753765106201172 79.47126770019531 11.51430988311768 78.91965484619141 12.82952117919922 77.91805267333984 C 14.06366539001465 76.97820281982422 14.74333190917969 75.75617980957031 14.74333190917969 74.47710418701172 L 14.74333190917969 74.38520050048828 L 14.74333190917969 2.491540431976318 C 14.34046363830566 2.755034446716309 13.88109302520752 2.99526047706604 13.3686990737915 3.209145069122314 C 11.82943248748779 3.851289510726929 9.883576393127441 4.204933643341064 7.889576435089111 4.204933643341064 C 5.895187854766846 4.204933643341064 3.949298858642578 3.851278305053711 2.410298824310303 3.209078311920166 C 1.882667422294617 2.988854646682739 1.41139543056488 2.740775108337402 0.9999988079071045 2.46800708770752 L 0.9999988079071045 74.39035797119141 L 0.9999988079071045 74.48117065429688 C 0.9999988079071045 75.76702117919922 1.678232192993164 76.99050903320313 2.909698724746704 77.92620849609375 C 4.221220970153809 78.92255401611328 5.983610153198242 79.47126770019531 7.872210025787354 79.47126770019531 M 7.872210025787354 80.47126770019531 C 5.766465663909912 80.47126770019531 3.789187669754028 79.85018157958984 2.304776668548584 78.72250366210938 C 0.8185543417930603 77.59322357177734 -1.188913984151441e-06 76.08699035644531 -1.188913984151441e-06 74.48117065429688 L -1.188913984151441e-06 74.39035797119141 L -1.188913984151441e-06 0.004167183302342892 L 0.1342543661594391 0.004167183302342892 C 0.4469099342823029 0.8901227116584778 1.391765475273132 1.700356125831604 2.795476675033569 2.286233901977539 C 4.215109825134277 2.878622770309448 6.024120807647705 3.204933881759644 7.889576435089111 3.204933881759644 C 9.755043029785156 3.204933881759644 11.56368732452393 2.878622770309448 12.98367691040039 2.286233901977539 C 14.3870210647583 1.700444936752319 15.33224296569824 0.8900338411331177 15.64489841461182 0.004167183302342892 L 15.74224281311035 0.004167183302342892 L 15.74333190917969 5.167643166714697e-07 L 15.74333190917969 74.38520050048828 L 15.74333190917969 74.47710418701172 C 15.74333190917969 77.78227996826172 12.21252059936523 80.47126770019531 7.872210025787354 80.47126770019531 Z"/></g></g></g><g class="z" transform="translate(0 0)"><ellipse class="ah" cx="7.871" cy="3.866" rx="7.871" ry="3.866"/><ellipse class="aj" cx="7.871" cy="3.866" rx="7.371" ry="3.366"/></g></g></g></g><g class="t" transform="translate(0 48.727)"><path class="ab" d="M1212.271,5138.648V4953.182l-160.622,92.729v185.471Z" transform="translate(-891.033 -4860.455)"/><path class="ac" d="M1229.939,5231.382V5045.911l-160.619-92.729v185.466Z" transform="translate(-1069.32 -4860.455)"/><path class="ad" d="M1212.268,4942.979l-160.619,92.732,160.619,92.741,160.621-92.741Z" transform="translate(-1051.646 -4942.979)"/></g></g><g transform="translate(1158.441 338.775)"><g transform="translate(0 0)"><circle class="ae" cx="2.41" cy="2.41" r="2.41"/><ellipse class="ae" cx="2.324" cy="2.324" rx="2.324" ry="2.324" transform="translate(0 0.086)"/></g></g><g transform="translate(1366.099 299.222)"><g transform="translate(0 0)"><circle class="ae" cx="2.41" cy="2.41" r="2.41"/><ellipse class="ae" cx="2.324" cy="2.324" rx="2.324" ry="2.324" transform="translate(0 0.086)"/></g></g><path class="af" d="M310.253-323.579l-.22-.119L170.888-398.679l15.677-9.106.451.777-14.288,8.3,137.511,74.1,136.969-78.608-16.739-10.391.474-.764,18.019,11.184Z" transform="translate(957.888 723.481)"/><path class="ag" d="M310.253-323.579l-.22-.119L170.888-398.679l15.677-9.106.451.777-14.288,8.3,137.511,74.1,136.969-78.608-16.739-10.391.474-.764,18.019,11.184Z" transform="translate(957.888 683.927)"/></g></g></g></svg>