<?xml version="1.0" standalone="no"?><!DOCTYPE svg PUBLIC "-//W3C//DTD SVG 1.1//EN" "http://www.w3.org/Graphics/SVG/1.1/DTD/svg11.dtd"><svg t="1596534245186" class="icon" viewBox="0 0 1024 1024" version="1.1" xmlns="http://www.w3.org/2000/svg" p-id="38114" xmlns:xlink="http://www.w3.org/1999/xlink" width="200" height="200"><defs><style type="text/css"></style></defs><path d="M0 0m109.714286 0l201.142857 0q109.714286 0 109.714286 109.714286l0 804.571428q0 109.714286-109.714286 109.714286l-201.142857 0q-109.714286 0-109.714286-109.714286l0-804.571428q0-109.714286 109.714286-109.714286Z" p-id="38115"></path><path d="M475.428571 0m73.142858 0l402.285714 0q73.142857 0 73.142857 73.142857l0 256q0 73.142857-73.142857 73.142857l-402.285714 0q-73.142857 0-73.142858-73.142857l0-256q0-73.142857 73.142858-73.142857Z" p-id="38116"></path><path d="M475.428571 438.857143m73.142858 0l109.714285 0q73.142857 0 73.142857 73.142857l0 438.857143q0 73.142857-73.142857 73.142857l-109.714285 0q-73.142857 0-73.142858-73.142857l0-438.857143q0-73.142857 73.142858-73.142857Z" p-id="38117"></path><path d="M768 438.857143m73.142857 0l109.714286 0q73.142857 0 73.142857 73.142857l0 438.857143q0 73.142857-73.142857 73.142857l-109.714286 0q-73.142857 0-73.142857-73.142857l0-438.857143q0-73.142857 73.142857-73.142857Z" p-id="38118"></path></svg>