<?xml version="1.0" standalone="no"?><!DOCTYPE svg PUBLIC "-//W3C//DTD SVG 1.1//EN" "http://www.w3.org/Graphics/SVG/1.1/DTD/svg11.dtd"><svg t="1596534089927" class="icon" viewBox="0 0 1024 1024" version="1.1" xmlns="http://www.w3.org/2000/svg" p-id="876" xmlns:xlink="http://www.w3.org/1999/xlink" width="200" height="200"><defs><style type="text/css"></style></defs><path d="M153.4 216.1c12.3-17.2 24.6-33.2 37-48 9.6-13.3 19.7-25.8 30.3-37.5 10.6-11.7 18.6-20.3 24.1-25.8 7.5-7 15.6-13.3 24.1-18.7 8.6-5.5 20-8.2 34.4-8.2h423.6c8.9 0 19.2 2.1 30.8 6.4 11.6 4.3 22.9 13.1 33.9 26.4 5.5 7.8 12.7 17.6 21.6 29.3 8.9 11.7 17.5 23 25.7 34 9.6 13.3 19.2 27.3 28.7 42.2H153.4zM942 505.8c0 21.9-6.8 40.4-20.4 55.4-13.6 15.1-33 22.6-58.3 22.6H165.5c-24.6 0-44.2-7.5-58.8-22.6-14.6-15.1-21.9-33.5-21.9-55.4V359c0-21.9 6.5-40.7 19.4-56.5 13-15.7 34-23.6 63.1-23.6h694.9c29.8 0 50.5 7.9 62.2 23.6 11.7 15.7 17.5 34.6 17.5 56.5v146.8z m-315-73.3c0-11.8-6.6-20.1-13-25.1s-15-7.5-25.8-7.5H439.1c-10.8 0-19.7 3.2-26.6 9.5-6.9 6.3-11.4 14-11.4 23 1 11.7 5.8 20.3 12.2 25.8 6.4 5.4 15 8.1 25.8 8.1h149.1c22.6 0.1 37.8-11.2 38.8-33.8zM939.1 867c0 21.9-7.9 40.7-23.8 56.5-15.9 15.7-36.1 23.3-60.7 22.6h-692c-20.7 0-39.3-7.7-55.8-23.1C90.3 907.6 82 886.2 82 858.8V721.2c0-22.6 6.6-41.6 19.9-57 13.3-15.4 34.5-23.1 63.6-23.1h692.9c27.2 0 47.4 7.7 60.7 23.1 13.3 15.4 19.9 34.1 19.9 56V867z m-313.7-75.5c0-9.2-4.2-17.1-10.5-23.5-6.3-6.5-20.6-9.7-31.2-9.7H437.2c-10.6 0-19.3 3.2-26.1 9.7-6.8 6.5-11.3 14.3-11.3 23.5s4.5 17.1 11.3 23.5c6.8 6.5 15.5 9.7 26.1 9.7h146.5c10.6 0 23.7-3.2 30-9.7 6.3-6.4 11.7-14.2 11.7-23.5z" p-id="877"></path></svg>