<?xml version="1.0" standalone="no"?><!DOCTYPE svg PUBLIC "-//W3C//DTD SVG 1.1//EN" "http://www.w3.org/Graphics/SVG/1.1/DTD/svg11.dtd"><svg t="1596534066194" class="icon" viewBox="0 0 1026 1024" version="1.1" xmlns="http://www.w3.org/2000/svg" p-id="855" xmlns:xlink="http://www.w3.org/1999/xlink" width="200.390625" height="200"><defs><style type="text/css"></style></defs><path d="M780.288 266.24H507.904c-16.9984 0-30.72-13.7216-30.72-30.72s13.7216-30.72 30.72-30.72h248.4224C736.8704 88.4736 635.904 0 514.048 0c-135.7824 0-245.76 109.9776-245.76 245.76v272.384c0 16.9984-13.7216 30.72-30.72 30.72s-30.72-13.7216-30.72-30.72V269.7216C90.5216 289.1776 2.048 390.144 2.048 512c0 135.7824 109.9776 245.76 245.76 245.76h272.384c16.9984 0 30.72 13.7216 30.72 30.72s-13.7216 30.72-30.72 30.72H271.7696c19.456 116.3264 120.6272 204.8 242.2784 204.8 135.7824 0 245.76-109.9776 245.76-245.76v-20.48h1.024V505.856c0-16.9984 13.7216-30.72 30.72-30.72s30.72 13.7216 30.72 30.72v248.2176c115.712-19.8656 203.776-120.832 203.776-242.0736 0-135.7824-109.9776-245.76-245.76-245.76z" p-id="856"></path></svg>