<?xml version="1.0" standalone="no"?><!DOCTYPE svg PUBLIC "-//W3C//DTD SVG 1.1//EN" "http://www.w3.org/Graphics/SVG/1.1/DTD/svg11.dtd"><svg t="1596534096335" class="icon" viewBox="0 0 1024 1024" version="1.1" xmlns="http://www.w3.org/2000/svg" p-id="1012" xmlns:xlink="http://www.w3.org/1999/xlink" width="200" height="200"><defs><style type="text/css"></style></defs><path d="M827.1 285.4c0-45.3-44.9-45.3-44.9-45.3H242.6s-45 0-45 45.3v75.3h629.2l0.3-75.3zM674.5 109.5H346.7c-30 0-55.3 42.9-58.6 73.2-0.4 3.8-0.6 7.8-0.6 12.1h449.6c0-4.2-0.2-8.3-0.6-12.1-3.2-30.4-28.6-73.3-58.6-73.3h-3.4zM917 360.7l-28.1-28.3V406H135.8v-73.7l-28.1 28.3c-22.5 28.3-44.9 34-33.7 90.6 11.2 56.6 61.8 377.9 67.4 417.5C147 914 197.6 914 197.6 914h623.9s44.9 0 56.2-45.3c5.6-39.6 56.2-361 67.5-417.5 16.8-56.6-5.7-62.2-28.2-90.5zM692.2 604.1s0 45.3-44.9 45.3H377.4c-45 0-45-45.3-45-45.3v-90.6h61.9v73.6h230.4v-73.6h67.6l-0.1 90.6z m0 0" p-id="1013"></path></svg>