<?xml version="1.0" standalone="no"?><!DOCTYPE svg PUBLIC "-//W3C//DTD SVG 1.1//EN" "http://www.w3.org/Graphics/SVG/1.1/DTD/svg11.dtd"><svg t="1596534078691" class="icon" viewBox="0 0 1024 1024" version="1.1" xmlns="http://www.w3.org/2000/svg" p-id="987" xmlns:xlink="http://www.w3.org/1999/xlink" width="200" height="200"><defs><style type="text/css"></style></defs><path d="M951.916944 0H279.524073C245.661102 0 217.678528 27.779802 217.678528 61.845545V148.023762h565.734654c34.065743 0 61.845545 27.779802 61.845544 61.845545V987.50099h106.455446c34.065743 0 61.845545-27.779802 61.845544-61.845544v-863.809901C1013.762489 27.779802 985.779914 0 951.916944 0z" p-id="988"></path><path d="M717.106647 188.578218H62.557736C28.694766 188.578218 0.712192 216.35802 0.712192 250.423762v711.730693C0.712192 996.220198 28.694766 1024 62.557736 1024h654.548911c34.065743 0 61.845545-27.779802 61.845545-61.845545v-711.730693c0-34.065743-27.779802-61.845545-61.845545-61.845544zM586.318528 829.338614H174.690805c-16.830099 0-30.415842-13.788515-30.415841-30.415842s13.788515-30.415842 30.415841-30.415841h411.627723c16.830099 0 30.415842 13.788515 30.415842 30.415841s-13.585743 30.415842-30.415842 30.415842z m0-192.633664H174.690805c-16.830099 0-30.415842-13.788515-30.415841-30.415841s13.788515-30.415842 30.415841-30.415842h411.627723c16.830099 0 30.415842 13.788515 30.415842 30.415842s-13.585743 30.415842-30.415842 30.415841z m0-192.633663H174.690805c-16.830099 0-30.415842-13.788515-30.415841-30.415841s13.788515-30.415842 30.415841-30.415842h411.627723c16.830099 0 30.415842 13.788515 30.415842 30.415842s-13.585743 30.415842-30.415842 30.415841z" p-id="989"></path></svg>