<?xml version="1.0" standalone="no"?><!DOCTYPE svg PUBLIC "-//W3C//DTD SVG 1.1//EN" "http://www.w3.org/Graphics/SVG/1.1/DTD/svg11.dtd"><svg t="1605516479473" class="icon" viewBox="0 0 1096 1024" version="1.1" xmlns="http://www.w3.org/2000/svg" p-id="9644" xmlns:xlink="http://www.w3.org/1999/xlink" width="214.0625" height="200"><defs><style type="text/css"></style></defs><path d="M878.579882 1011.881657H218.130178c-115.12426 0-206.011834-90.887574-206.011835-206.011835V412.023669c0-115.12426 90.887574-206.011834 206.011835-206.011835h654.390532c115.12426 0 206.011834 90.887574 206.011834 206.011835v387.786982c6.059172 115.12426-84.828402 212.071006-199.952662 212.071006zM218.130178 284.781065c-72.710059 0-127.242604 60.591716-127.242604 127.242604v387.786982c0 72.710059 60.591716 127.242604 127.242604 127.242603h654.390532c72.710059 0 127.242604-60.591716 127.242604-127.242603V412.023669c0-72.710059-60.591716-127.242604-127.242604-127.242604H218.130178z" p-id="9645"></path><path d="M799.810651 393.846154c-24.236686 0-42.414201-18.177515-42.414201-36.35503V193.893491c0-60.591716-54.532544-103.005917-115.124261-103.005917h-181.775148c-66.650888 0-115.12426 48.473373-115.12426 103.005917v157.538462c0 18.177515-18.177515 36.35503-42.414201 36.355029-24.236686 6.059172-42.414201-12.118343-42.414201-36.355029V193.893491C260.544379 96.946746 345.372781 18.177515 460.497041 18.177515h181.775148C751.337278 18.177515 848.284024 90.887574 848.284024 193.893491v157.538462c-6.059172 24.236686-24.236686 42.414201-48.473373 42.414201z" fill="#2F54EA" p-id="9646"></path></svg>