<svg id="图层_1" data-name="图层 1" xmlns="http://www.w3.org/2000/svg" viewBox="0 0 200 866"><defs><style>.cls-1{fill:#eb3941;}.cls-2{fill:#3fbf70;}.cls-3{fill:#959799;}.cls-4{fill:#fca426;}</style></defs><title>审核状态2</title><path class="cls-1" d="M98,223.51a97.79,97.79,0,1,0,97.79,97.79A97.66,97.66,0,0,0,98,223.51m41.07,138.86a7.09,7.09,0,0,1-9.78,0L98,331.08,66.75,362.37A6.92,6.92,0,1,1,57,352.59L88.26,321.3,57,290a6.91,6.91,0,0,1,9.78-9.77L98,311.52l31.29-31.29a6.91,6.91,0,1,1,9.78,9.77l-31.29,31.3,31.29,31.29A6.11,6.11,0,0,1,139.11,362.37Z"/><path class="cls-2" d="M98,.24A97.79,97.79,0,1,0,195.83,98,97.66,97.66,0,0,0,98,.24ZM153.16,68.6l0,0h0l-69.4,69.19a7.38,7.38,0,0,1-10.43,0L43,107.59a7.34,7.34,0,0,1-.05-10.37l.05,0a7.38,7.38,0,0,1,10.43,0l25.12,25.06,64.18-64A7.36,7.36,0,0,1,153.16,68.6Z"/><path class="cls-3" d="M98,446.77a97.79,97.79,0,1,0,97.79,97.79A97.66,97.66,0,0,0,98,446.77Zm51.17,104.71H46.87a6.92,6.92,0,0,1,0-13.83H149.21a6.92,6.92,0,0,1,0,13.83Z"/><path class="cls-4" d="M97.89,670a97.79,97.79,0,1,0,97.79,97.79A97.65,97.65,0,0,0,97.89,670Zm47.29,141a7,7,0,0,1-9.57,2.56l-50.22-29a3.17,3.17,0,0,1-.36-.23A7,7,0,0,1,81,778V719a7,7,0,0,1,14,0v55l47.61,27.49A7,7,0,0,1,145.18,811Z"/></svg>