<?xml version="1.0" standalone="no"?><!DOCTYPE svg PUBLIC "-//W3C//DTD SVG 1.1//EN" "http://www.w3.org/Graphics/SVG/1.1/DTD/svg11.dtd"><svg t="1598953199172" class="icon" viewBox="0 0 1024 1024" version="1.1" xmlns="http://www.w3.org/2000/svg" p-id="2610" xmlns:xlink="http://www.w3.org/1999/xlink" width="32" height="32"><defs><style type="text/css"></style></defs><path d="M969.735816 409.040897c-6.958063-26.434494-31.723441-45.357967-73.461577-56.488818-4.730868-1.392637-9.738216-2.503674-15.027162-3.619831-10.296294-2.227194-20.03451 4.454389-22.261704 14.745563a18.964433 18.964433 0 0 0 14.745563 22.261704c4.454389 0.834558 8.903658 1.945595 12.799968 3.061752 26.992573 7.234542 43.407251 17.807315 47.027082 29.772726v0.276479c5.565426 20.592589-22.261704 54.261624-79.579961 91.545372-1.669116-22.261704-5.288947-44.799888-11.407331-67.061593a356.893828 356.893828 0 0 0-190.606884-229.564866 357.549186 357.549186 0 0 0-246.537624-22.819783c-153.041537 40.903578-255.99936 175.86132-264.068459 326.122705-32.834478 19.476431-59.545451 39.234462-79.579961 58.992492-11.407331 11.130852-20.310989 22.538184-26.992573 34.227115-6.676463 11.688931-10.572774 24.207299-10.572774 37.007267 0 5.007347 0.558079 10.019815 1.945596 14.745563v0.27648c12.523489 45.910925 79.86156 65.945435 172.241489 67.338071a361.814135 361.814135 0 0 0 97.945355 100.454149 356.868228 356.868228 0 0 0 201.737736 62.607204c30.888883 0 62.054245-3.89631 92.379929-12.24189 153.041537-40.903578 256.275839-176.1378 264.06846-326.675663 79.027002-47.303562 127.441601-98.503434 115.476191-144.419479-0.271359-0.261119-0.271359-0.542719-0.271359-0.542719zM62.330724 652.521889c0-0.281599 0-0.281599 0 0a18.851793 18.851793 0 0 1-0.834558-5.288947c0-4.730868 1.669116-10.854373 5.841906-18.641873 7.511021-13.358047 23.372742-30.330804 46.192524-48.13812a440.769458 440.769458 0 0 1 28.10361-19.758031c1.669116 22.261704 5.288947 44.799888 11.407331 67.338072 5.841905 22.261704 13.911005 43.407251 23.930821 63.723361-67.89615-3.619831-108.799728-18.646993-114.641634-39.234462z m518.122225 191.441441a318.770403 318.770403 0 0 1-263.233902-45.076367 321.227997 321.227997 0 0 1-73.738056-70.123345c88.765218-3.89631 193.668636-21.427146 293.006628-48.13812 99.619591-26.710973 199.234062-63.723361 277.979465-104.903417-15.86172 124.937928-105.179897 233.737656-234.014135 268.241249z m-53.427067-199.510541c-123.268812 33.110957-228.453829 47.027082-307.199232 48.13812-13.076447-23.372742-23.372742-48.13812-30.330804-74.296135-45.634446-170.019415 55.654261-345.599136 225.945035-391.233582a321.002717 321.002717 0 0 1 82.641714-10.854373 318.852323 318.852323 0 0 1 138.019495 31.441842c84.310829 40.345499 146.365074 115.199712 170.572373 205.357566 7.234542 26.434494 10.572774 53.145467 10.854373 79.579962-69.007187 38.405024-167.234142 78.750523-290.502954 111.8666z" fill="#CCCCCC" p-id="2611"></path><path d="M438.537144 301.075727c-78.468924 19.758031-141.634206 77.634366-168.626779 154.157695-3.338232 9.738216 1.669116 20.592589 11.407332 23.93082 1.945595 0.834558 4.17279 1.111037 6.123504 1.111037a18.800593 18.800593 0 0 0 17.807316-12.523488c22.819783-64.834398 76.241729-113.530596 142.468764-130.226875 10.019815-2.503674 16.1382-12.799968 13.634526-22.819783-2.498554-10.009575-12.794848-16.13308-22.814663-13.629406z m-144.695959 241.811876c-0.276479-10.296294-9.180137-18.641873-19.476431-18.088915-10.296294 0.276479-18.365394 9.180137-18.088915 19.476431 0.276479 8.627178 1.111037 17.530836 2.503674 26.158015a18.841553 18.841553 0 0 0 18.641873 16.1382c0.834558 0 1.945595 0 2.780153-0.27648 10.296294-1.392637 17.254357-11.130852 15.861721-21.427146a198.517264 198.517264 0 0 1-2.222075-21.980105z m560.976518-399.584281c-40.06902 0-72.903498 32.557999-72.903498 72.903497s32.557999 72.903498 72.903498 72.903498c40.345499 0 72.903498-32.557999 72.903498-72.903498s-32.557999-72.903498-72.903498-72.903497z m0 112.696038c-21.980105 0-39.792541-17.807315-39.792541-39.792541s17.807315-39.792541 39.792541-39.79254a39.782301 39.782301 0 0 1 39.79254 39.79254c0.276479 21.985225-17.812435 39.792541-39.79254 39.792541z" fill="#CCCCCC" p-id="2612"></path><path d="M313.041137 930.501354l-16.696278-5.565426-5.565426-16.696279c-1.392637-3.89631-4.730868-6.399984-8.903658-6.399984s-7.511021 2.503674-8.903657 6.399984l-5.565427 16.696279-16.696278 5.565426c-3.89631 1.392637-6.399984 4.730868-6.399984 8.903657 0 4.17279 2.503674 7.511021 6.399984 8.903658l16.696278 5.565426 5.565427 16.696279c1.392637 3.89631 4.730868 6.399984 8.903657 6.399984s7.511021-2.503674 8.903658-6.399984l5.565426-16.696279 16.696278-5.565426c3.89631-1.392637 6.399984-4.730868 6.399984-8.903658 0-4.17279-2.503674-7.511021-6.399984-8.903657zM476.10249 46.469004l16.696278 5.565426 5.565426 16.696278c1.392637 3.89631 4.730868 6.399984 8.903658 6.399984 4.17279 0 7.511021-2.503674 8.903658-6.399984l5.565426-16.696278 16.696278-5.565426c3.89631-1.392637 6.399984-4.730868 6.399984-8.903658s-2.503674-7.511021-6.399984-8.903658l-16.696278-5.565426-5.565426-16.696278C514.778873 2.503674 511.440641 0 507.267852 0s-7.511021 2.503674-8.903658 6.399984L492.798768 23.096262l-16.696278 5.565426c-3.89631 1.392637-6.399984 4.730868-6.399984 8.903658s2.503674 7.511021 6.399984 8.903658zM38.123425 425.737176c1.392637 3.89631 4.730868 6.399984 8.903657 6.399984s7.511021-2.503674 8.903658-6.399984l7.792621-23.654341 23.654341-7.792621c3.89631-1.392637 6.399984-4.730868 6.399984-8.903657s-2.503674-7.511021-6.399984-8.903658l-23.654341-7.792621-7.792621-23.654341c-1.392637-3.89631-4.730868-6.399984-8.903658-6.399984s-7.511021 2.503674-8.903657 6.399984l-7.792621 23.654341-23.654341 7.792621c-3.89631 1.392637-6.399984 4.730868-6.399984 8.903658s2.503674 7.511021 6.399984 8.903657l23.654341 7.792621 7.792621 23.654341zM215.93034 122.157775a18.918353 18.918353 0 1 0 37.841826 0.01536v-0.01536a18.918353 18.918353 0 1 0-37.841826-0.01536v0.01536zM478.887763 1005.073967a18.918353 18.918353 0 1 0 37.841825 0.01536v-0.01536a18.918353 18.918353 0 1 0-37.841825-0.01536v0.01536zM986.155615 572.936808a18.923473 18.923473 0 1 0 37.852065 0 18.923473 18.923473 0 0 0-37.852065 0zM648.0675 122.157775a18.923473 18.923473 0 0 0 37.846945 0 18.923473 18.923473 0 0 0-37.846945 0zM951.9285 770.778233l-23.654341-7.79262-7.79262-23.654341c-1.392637-3.89631-4.730868-6.399984-8.903658-6.399984s-7.511021 2.503674-8.903658 6.399984l-7.79262 23.654341-23.654341 7.79262c-3.89631 1.392637-6.399984 4.730868-6.399984 8.903658s2.503674 7.511021 6.399984 8.903658l23.654341 7.79262 7.79262 23.654341c1.392637 3.89631 4.730868 6.399984 8.903658 6.399984s7.511021-2.503674 8.903658-6.399984l7.79262-23.654341 23.654341-7.79262c3.89631-1.392637 6.399984-4.730868 6.399984-8.903658s-2.785273-7.511021-6.399984-8.903658z" fill="#E5E5E5" p-id="2613"></path></svg>