<?xml version="1.0" standalone="no"?><!DOCTYPE svg PUBLIC "-//W3C//DTD SVG 1.1//EN" "http://www.w3.org/Graphics/SVG/1.1/DTD/svg11.dtd"><svg t="1593403430511" class="icon" viewBox="0 0 1024 1024" version="1.1" xmlns="http://www.w3.org/2000/svg" p-id="2149" xmlns:xlink="http://www.w3.org/1999/xlink" width="200" height="200"><defs><style type="text/css"></style></defs><path d="M138.5 261.4h749c22.4 0 40.5-18.1 40.5-40.5s-18.1-40.5-40.5-40.5h-749c-22.4 0-40.5 18.1-40.5 40.5s18.1 40.5 40.5 40.5zM887.5 470.4h-749c-22.4 0-40.5 18.1-40.5 40.5s18.1 40.5 40.5 40.5h749c22.4 0 40.5-18.1 40.5-40.5s-18.1-40.5-40.5-40.5zM887.5 760.4h-749c-22.4 0-40.5 18.1-40.5 40.5s18.1 40.5 40.5 40.5h749c22.4 0 40.5-18.1 40.5-40.5s-18.1-40.5-40.5-40.5z" p-id="2150" fill="#ffffff"></path></svg>