<svg id="图层_1" data-name="图层 1" xmlns="http://www.w3.org/2000/svg" viewBox="0 0 512 512"><defs><style>.cls-1{fill:#dfecfd;}.cls-2{fill:#4988fd;}</style></defs><title>176</title><path class="cls-1" d="M320,256H704a64,64,0,0,1,64,64V704a64,64,0,0,1-64,64H320a64,64,0,0,1-64-64V320a64,64,0,0,1,64-64Zm0,0" transform="translate(-256 -256)"/><path class="cls-2" d="M358.4,396.8a38.4,38.4,0,1,0,38.4-38.4,38.4,38.4,0,0,0-38.4,38.4Zm0,0" transform="translate(-256 -256)"/><path class="cls-2" d="M384.55,588.72a16,16,0,0,1,27.7,0L472.5,692.79a16,16,0,0,1-13.85,24H338.15a16,16,0,0,1-13.85-24Zm0,0" transform="translate(-256 -256)"/><path class="cls-2" d="M552.57,484.6a16,16,0,0,1,27.66,0l121,208.16a16,16,0,0,1-13.84,24h-242a16,16,0,0,1-13.84-24Zm0,0" transform="translate(-256 -256)"/></svg>