<?xml version="1.0" standalone="no"?><!DOCTYPE svg PUBLIC "-//W3C//DTD SVG 1.1//EN" "http://www.w3.org/Graphics/SVG/1.1/DTD/svg11.dtd"><svg t="1593772007335" class="icon" viewBox="0 0 1024 1024" version="1.1" xmlns="http://www.w3.org/2000/svg" p-id="2535" xmlns:xlink="http://www.w3.org/1999/xlink" width="200" height="200"><defs><style type="text/css"></style></defs><path d="M508.903024 1014.209561c-14.460878 0-28.597073-4.096-40.885073-11.88839L87.514537 761.206634a70.181463 70.181463 0 0 1-32.54322-59.691707l0.199805-391.367805c0-24.600976 12.91239-47.703415 33.667122-60.316098L469.666341 18.357073a76.375415 76.375415 0 0 1 79.422439 0.049951l380.628293 231.848586a70.905756 70.905756 0 0 1 33.56722 60.341073l-0.199805 391.367805a70.181463 70.181463 0 0 1-32.618147 59.691707L549.713171 1002.346146a76.325463 76.325463 0 0 1-40.835122 11.838439zM125.952 700.416l379.579317 240.515122a6.343805 6.343805 0 0 0 6.76839 0L892.12878 700.81561l0.224781-389.12-379.67922-231.274147a6.343805 6.343805 0 0 0-6.593561 0l-379.879024 230.899513-0.249756 389.12z m382.326634 193.635902h-0.099902c-19.605854-0.024976-35.465366-16.259122-35.390439-36.214634l0.599414-252.153756c0.049951-19.930537 15.934439-36.039805 35.465366-36.039805h0.099903c19.605854 0.049951 35.465366 16.259122 35.415414 36.214634l-0.599414 252.153757c-0.049951 19.930537-15.934439 36.039805-35.490342 36.039804z m-39.31161-365.917658a42.20878 42.20878 0 0 1-20.48-5.244878l-268.487804-148.929561c-18.706732-10.339902-24.650927-32.568195-13.312-49.626537 11.338927-17.083317 35.665171-22.503024 54.346926-12.163122l268.487805 148.929561c18.681756 10.339902 24.625951 32.568195 13.287025 49.651513-7.442732 11.189073-20.48 17.383024-33.841952 17.383024z m121.431415 9.915317c-11.988293 0-23.676878-6.193951-30.370341-17.383024a36.514341 36.514341 0 0 1 11.938341-49.651513l240.839805-148.904585a35.115707 35.115707 0 0 1 48.75239 12.138146 36.514341 36.514341 0 0 1-11.913366 49.651513l-240.86478 148.904585c-5.74439 3.546537-12.113171 5.244878-18.382049 5.244878z m-247.208585-247.058732c0 24.401171 19.431024 44.206829 43.407609 44.20683s43.40761-19.805659 43.40761-44.20683c0-24.426146-19.431024-44.206829-43.40761-44.206829s-43.40761 19.780683-43.407609 44.206829zM255.700293 640.549463c0 24.401171 19.431024 44.206829 43.407609 44.20683s43.40761-19.805659 43.40761-44.20683c0-24.426146-19.431024-44.206829-43.40761-44.206829s-43.40761 19.780683-43.407609 44.206829zM582.930732 290.965854c0 24.401171 19.431024 44.206829 43.407609 44.206829s43.40761-19.805659 43.40761-44.206829c0-24.426146-19.431024-44.206829-43.40761-44.20683s-43.40761 19.780683-43.407609 44.20683z m12.987317 466.744195c0 24.426146 19.406049 44.206829 43.382634 44.206829 23.976585 0 43.40761-19.780683 43.40761-44.206829 0-24.401171-19.431024-44.206829-43.40761-44.206829s-43.40761 19.805659-43.40761 44.206829z m91.160975-117.085659c0 24.401171 19.406049 44.206829 43.382635 44.20683 23.976585 0 43.432585-19.805659 43.432585-44.20683 0-24.426146-19.456-44.206829-43.432585-44.206829-23.976585 0-43.40761 19.780683-43.40761 44.206829z m91.160976-117.13561c0 24.426146 19.431024 44.206829 43.382634 44.20683 23.976585 0 43.432585-19.780683 43.432586-44.20683 0-24.401171-19.456-44.206829-43.432586-44.206829-23.976585 0-43.40761 19.805659-43.40761 44.206829z" fill="#515151" p-id="2536"></path></svg>