<?xml version="1.0" standalone="no"?><!DOCTYPE svg PUBLIC "-//W3C//DTD SVG 1.1//EN" "http://www.w3.org/Graphics/SVG/1.1/DTD/svg11.dtd"><svg t="1601002948743" class="icon" viewBox="0 0 1024 1024" version="1.1" xmlns="http://www.w3.org/2000/svg" p-id="3167" xmlns:xlink="http://www.w3.org/1999/xlink" width="200" height="200"><defs><style type="text/css"></style></defs><path d="M512 0C229.2 0 0 229.2 0 512s229.2 512 512 512 512-229.2 512-512C1023.2 229.5 794.5 0.8 512 0z" fill="#FF6262" p-id="3168"></path><path d="M511.8 654.1c-31.4 0-56.9-25.4-56.9-56.7V255.8c-0.8-31.4 24.1-57.5 55.5-58.3 31.3-0.8 57.3 23.8 58.3 55v344.3c0.1 31.4-25.3 56.9-56.7 57h-0.1l-0.1 0.3z m0 170.6c-31.4 0-56.9-25.4-56.9-56.7v-0.1c0-31.4 25.4-56.9 56.8-56.9h0.2c31.4 0 56.9 25.4 56.9 56.7v0.2c-0.1 31.4-25.6 56.8-57 56.8z" fill="#FFFFFF" p-id="3169"></path></svg>