<?xml version="1.0" encoding="utf-8"?>
<!-- Generator: Adobe Illustrator 23.0.2, SVG Export Plug-In . SVG Version: 6.00 Build 0)  -->
<svg version="1.1" id="图层_1" xmlns="http://www.w3.org/2000/svg" xmlns:xlink="http://www.w3.org/1999/xlink" x="0px" y="0px"
	 viewBox="0 0 200 200" style="enable-background:new 0 0 200 200;" xml:space="preserve">
<style type="text/css">
	.st0{fill:#67C23A;}
	.st1{fill:#FFFFFF;}
</style>
<path class="st0" d="M0,100c0,55.2,44.8,100,100,100s100-44.8,100-100S155.2,0,100,0S0,44.8,0,100z"/>
<path class="st1" d="M162.4,96.2l-54.7-57.1c-4.2-4.5-11.1-4.5-15.4-0.1c0,0-0.1,0.1-0.1,0.1L37.6,96.2c-6.9,7.2-2,19.4,7.8,19.4
	h25.1v37.2c0,6.3,4.9,11.4,10.9,11.4h37.3c6,0,10.9-5.1,10.9-11.4v-37.2h25.1C164.4,115.6,169.2,103.4,162.4,96.2L162.4,96.2z"/>
</svg>
