<?xml version="1.0" standalone="no"?><!DOCTYPE svg PUBLIC "-//W3C//DTD SVG 1.1//EN" "http://www.w3.org/Graphics/SVG/1.1/DTD/svg11.dtd"><svg t="1599445242564" class="icon" viewBox="0 0 1024 1024" version="1.1" xmlns="http://www.w3.org/2000/svg" p-id="3440" width="64" height="64" xmlns:xlink="http://www.w3.org/1999/xlink"><defs><style type="text/css"></style></defs><path d="M0 339.53792h1022.0032v344.92416H0z" fill="#F9605D" p-id="3441"></path><path d="M1016.5248 339.53792V64.73728c0-34.11968-29.19424-64.44032-63.86688-64.44032H63.87712C29.20448 0.29696 0 30.6176 0 64.73728v274.80064h1016.5248z" fill="#53C7F7" p-id="3442"></path><path d="M0 684.46208v274.80064c0 34.11968 29.20448 64.44032 63.87712 64.44032h896.07168c34.68288 0 63.87712-30.32064 63.87712-64.44032V684.46208H0z" fill="#7DCF3B" p-id="3443"></path><path d="M399.6672 0.29696H627.8144V1023.6928H399.6672z" fill="#FDB042" p-id="3444"></path><path d="M627.80416 443.77088v144.03584H388.73088V443.77088h239.07328z m38.32832-58.74688H350.40256c-5.4784 0-14.60224 5.6832-14.60224 15.1552v229.3248c0 5.6832 5.4784 15.1552 14.60224 15.1552h315.72992c5.46816 0 14.592-5.6832 14.592-15.1552V400.1792c-3.64544-11.3664-9.1136-15.1552-14.592-15.1552z" fill="#FFFFFF" p-id="3445"></path></svg>