<?xml version="1.0" encoding="utf-8"?>
<!-- Generator: Adobe Illustrator 19.2.0, SVG Export Plug-In . SVG Version: 6.00 Build 0)  -->
<svg version="1.1" id="图层_1" xmlns="http://www.w3.org/2000/svg" xmlns:xlink="http://www.w3.org/1999/xlink" x="0px" y="0px"
	 viewBox="0 0 500 213.4" style="enable-background:new 0 0 500 213.4;" xml:space="preserve">
<style type="text/css">
	.st0{fill:none;}
	.st1{fill:#E97046;}
	.st2{fill:#8FA76A;}
	.st3{fill:#F7CD42;}
	.st4{fill:#6D92B7;}
</style>
<g>
	<g>
		<path class="st0" d="M185,167.7c14.6-16.6,23.5-38.3,23.5-62.1c0-18.9-5.6-36.4-15.2-51.2l-81.3,52.4L185,167.7z"/>
		<path class="st0" d="M35.6,156.2c16.7,26,45.9,43.3,79.1,43.3c28,0,53.2-12.3,70.4-31.8l-73-60.8L35.6,156.2z"/>
		<path class="st0" d="M40.9,47.5c-12.6,16-20.2,36.2-20.2,58.1c0,18.6,5.4,36,14.8,50.6l76.5-49.3L40.9,47.5z"/>
		<path class="st0" d="M114.6,11.7c-29.9,0-56.5,14-73.7,35.8l71.2,59.3l81.3-52.4C176.6,28.7,147.6,11.7,114.6,11.7z"/>
		<path class="st1" d="M114.6,11.7c32.9,0,62,17,78.7,42.7l9.8-6.3C184.3,19.2,151.7,0,114.6,0C81.2,0,51.3,15.7,32,40.1l8.9,7.4
			C58.1,25.7,84.8,11.7,114.6,11.7z"/>
		<path class="st2" d="M203.2,48.1l-9.8,6.3c9.6,14.7,15.2,32.3,15.2,51.2c0,23.8-8.9,45.6-23.5,62.1l8.9,7.4
			c16.3-18.6,26.2-43,26.2-69.6C220.1,84.4,213.9,64.7,203.2,48.1z"/>
		<path class="st3" d="M114.6,199.5c-33.2,0-62.4-17.3-79.1-43.3l-9.7,6.3c18.8,29.2,51.6,48.6,88.8,48.6c31.6,0,59.9-13.9,79.3-36
			l-8.9-7.4C167.8,187.2,142.6,199.5,114.6,199.5z"/>
	</g>
	<path class="st4" d="M20.7,105.6c0-21.9,7.5-42.1,20.2-58.1L32,40.1c-14.3,18-22.8,40.8-22.8,65.5c0,20.9,6.1,40.5,16.7,56.9
		l9.7-6.3C26.2,141.6,20.7,124.2,20.7,105.6z"/>
</g>
<path d="M0,176.7c2.1-1.5,3.5-2.5,4.8-3.6c6.2-4.8,12.4-9.5,18.5-14.4c2.8-2.2,5.3-4.8,8.2-7c8.2-6.3,16.6-12.4,24.8-18.7
	c10.1-7.8,20.2-15.7,30.3-23.5c1.3-1,1.4-1.9,0.2-3.4C76.8,94,67,81.6,56.9,69.4c-5.4-6.5-11-12.9-16.5-19.4
	c-0.4-0.4-0.8-1.3-0.6-1.6c0.3-0.5,1.1-1,1.7-1c2.1,0,4.1,0.3,6.2,0.3c16,0,32,0.1,48.1-0.1c3,0,4.7,1.1,6.4,3.4
	c7.2,10,14.7,19.9,22,29.9c1.2,1.6,2.1,1.5,3.5,0.3c12.8-10.6,25.7-21.1,38.6-31.6c1.4-1.1,3.5-1.9,5.3-1.9c19.9-0.1,39.9,0,59.8,0
	c1.8,0,3.6,0,5.4,0c0.3,0.4,0.6,0.8,1,1.2c-1,0.5-2.1,0.9-3,1.6c-6.2,4.7-12.4,9.4-18.6,14.2c-11.5,8.8-23,17.7-34.5,26.5
	c-9.3,7.2-18.6,14.3-27.9,21.5c-1.2,0.9-2.2,1.8-0.8,3.6c10,12.8,19.9,25.6,29.8,38.4c3.9,5,8,9.7,11.9,14.6
	c1.8,2.2,3.2,4.7,5.1,7.6c-4,0.2-7.3,0.6-10.6,0.6c-15.7,0-31.4-0.1-47.1-0.3c-1.4,0-3.3-1-4-2.1c-6.9-9.9-13.6-19.9-20.3-29.9
	c-0.6-0.9-1.3-1.6-1.9-2.5c-1-1.7-1.9-1.3-3.2-0.2c-14,11.2-27.9,22.3-42,33.4c-1.1,0.9-2.8,1.4-4.3,1.4c-21.4,0.1-42.8,0-64.3,0
	C1.9,177.3,1.5,177.1,0,176.7z"/>
<path d="M361.1,90.7c3.1-2.3,5.5-4.2,8-5.9c10.8-7.3,23-9.2,35.7-8.2c4.6,0.4,9.3,1.2,13.6,2.8c10.9,4.1,15.4,12.2,13.4,23.7
	c-1.2,7.4-3,14.7-4.7,22c-1.7,7.4-3.5,14.8-5.1,22.2c-0.5,2.3-1.6,3.1-3.8,3.1c-13-0.1-26,0-39,0c-4,0-4-0.1-3.1-3.9
	c2.8-12,5.7-24.1,8.4-36.1c0.4-1.7,0.5-3.5,0.4-5.2c-0.5-4.6-2.7-6.4-7.3-6.9c-12.1-1.3-18.4,5.4-20.7,15.3
	c-2.7,11.4-5.5,22.8-8.2,34.3c-0.4,1.9-1.3,2.6-3.2,2.6c-13.5,0-27,0-40.6,0c-2.2,0-2.7-1.1-2.2-3c2.7-11.5,5.6-23,8.1-34.6
	c2.3-10.4,4.4-20.9,6.5-31.4c0.4-1.9,1.3-2.5,2.9-2.5c2.5,0,5,0.1,7.5,0.1c10.6,0,21.2-0.1,31.8-0.1c3.2,0,3.7,0.6,3,3.7
	C362.1,84.9,361.7,87.5,361.1,90.7z"/>
<path d="M262.8,120.4c-11.2,0-22.5,0.1-33.7-0.1c-2.8,0-4.2,0.9-4.1,3.7c0,2-0.1,4,0.2,5.9c0.6,3.8,2.9,6.3,6.6,7.1
	c4.8,1,9.8,1.1,14.4-1.1c1.8-0.9,3.7-2.2,4.8-3.8c1.5-2.3,3.3-2.7,5.8-2.7c12.7,0.1,25.4,0,38.1,0c2.7,0,3.1,0.5,1.8,2.8
	c-3.3,5.8-8.4,9.7-14.4,12.4c-13.7,6.3-28.4,8.1-43.2,8.1c-8.9,0-17.8-1.1-26.7-1.5c-8.5-0.5-15.9-3.9-22.4-8.9
	c-8.7-6.6-10-15.9-8.1-25.9c2.7-14.1,11.1-23.7,23.4-30.9c10.5-6.2,21.9-7.3,33.4-8.6c11.1-1.2,22.3-1.3,33.2,1.1
	c6.6,1.4,13.4,3.6,19.2,6.9c9,5,12.7,13.6,12.1,24c-0.6,11.5-0.6,11.6-11.8,11.6C281.8,120.4,272.3,120.4,262.8,120.4L262.8,120.4z
	 M244.3,106.5L244.3,106.5c4.1,0,8.3,0.2,12.4-0.1c1-0.1,2.6-1.1,2.9-2c1.7-5-1.3-10.6-6.3-12.3c-8.9-3.1-20,2-23.4,10.8
	c-1.1,2.8-0.6,3.5,2.5,3.5C236.4,106.5,240.3,106.5,244.3,106.5z"/>
<path d="M222,197.4c1.8,0,3.5,0.1,5.3,0c2.1-0.1,3.3,0.2,3.8,2.7c0.5,2.8,3.3,3,5.3,2c1.6-0.8,2.7-2.8,4-4.2c-1.3-1-2.5-2.4-4-3
	c-3.3-1.3-6.7-2.2-10.1-3.1c-11.8-3.1-10.6-12.4-5.5-20c3.4-5.1,8.9-7.2,14.8-8.3c6.2-1.1,12.4-1.1,18.5,0.8c4.9,1.6,8.1,6.2,7.3,11
	c-0.2,0.9-1.6,2.2-2.4,2.3c-4,0.3-8.1,0.2-12.1,0c-1,0-2.2-0.9-2.8-1.8c-1.8-2.4-6-2.9-7.8-0.5c-1.4,1.8-0.4,3.2,1.4,3.9
	c3.5,1.2,7.1,2.3,10.7,3.3c4.9,1.4,9.6,3.3,10.5,8.9c0.9,5.6-1.1,10.7-5.2,14.7c-7.3,7.1-16.5,7.6-25.9,7c-2.8-0.2-5.6-0.8-8.2-1.8
	c-4.8-1.7-7.3-5.8-7.2-10.9c0.1-2.2,1-3.3,3.2-3.2C217.6,197.4,219.8,197.3,222,197.4L222,197.4z"/>
<path d="M289.8,198.6c-2.9,0-5.8,0.1-8.7,0c-2.1-0.1-3.2,0.7-3.1,2.8c0,2.2,1.2,3.6,3.4,3.6c1.1,0,2.6-0.3,3.1-1.1
	c2.2-2.9,5.2-2.6,8.2-2.4c1.3,0.1,2.7-0.1,4.1,0c1,0.1,1.9,0.4,2.8,0.7c-0.4,1-0.5,2.2-1.1,3c-2.8,3.7-6.4,6.3-11,7.1
	c-5.7,1-11.6,1.8-17.2-0.5c-4.9-1.9-7.2-5.8-7.4-10.9c-0.8-16.5,18.5-28.9,33.3-21.5c5,2.5,7,6.6,6.5,13.3c-0.4,5.5-0.6,5.7-6,5.8
	C294.4,198.6,292.1,198.5,289.8,198.6C289.8,198.5,289.8,198.6,289.8,198.6z M284.5,192.4c8.4,0,5.4-1.8,4.4-3.1
	c-1.2-1.1-2.2-2.8-3.5-3.1c-2.1-0.5-6.4,4-5.7,5.3C280.2,192.6,282.2,192.4,284.5,192.4z"/>
<path d="M409.4,198.5c-2.9,0-5.8,0-8.7,0c-2,0-3.5,0.5-3.4,2.9c0.1,2.6,1.6,3.5,3.8,3.5c1,0,2.2-0.4,2.8-1c4.1-4.6,9.5-1.5,14.2-2.4
	c0,0,0.9,1.9,0.6,2.5c-3,5.5-8.1,7.9-14,8.8c-3.7,0.5-7.5,0.5-11.2,0.2c-6.7-0.6-11.2-5.7-11.1-12.4c0.4-19,18.5-26.5,32.4-21.4
	c5.7,2.1,8.1,7.1,7.2,14c-0.7,5.4-0.7,5.4-6,5.4C413.8,198.6,411.6,198.6,409.4,198.5L409.4,198.5z M403.6,191.9
	c1.9-0.8,4.4,0.4,4.5-2.6c0-2-1.2-3.3-3.4-3.2c-2.2,0-5.5,2.5-4.8,3.8C400.5,190.8,402.3,191.2,403.6,191.9z"/>
<path d="M358.5,197.5c2.2-5.3,4.5-10.5,6.5-15.8c0.8-2.2,2-3.2,4.3-3.1c4.2,0.1,8.4,0,13,0c-0.4,1.3-0.4,2.1-0.8,2.8
	c-4.9,9.6-10,19.2-14.9,28.8c-0.9,1.7-2,2.4-3.9,2.3c-5.4-0.1-10.8,0-16.2,0c-2.2,0-3.1-1-3.3-3.2c-0.7-9.1-1.4-18.2-2.2-27.3
	c-0.2-2.5,0.4-3.6,3.2-3.5c3.4,0.2,6.9,0.1,10.3,0c2.1-0.1,2.8,0.8,2.8,2.8c-0.1,4.2-0.2,8.3-0.2,12.5c0,1.2,0.3,2.5,0.4,3.7
	C357.8,197.5,358.2,197.5,358.5,197.5z"/>
<path d="M447.9,181.1c1-0.6,2-1.5,3.1-1.9c1.6-0.5,3.3-0.8,5-0.7c2,0.1,2.4,1.3,1.8,3.2c-0.7,2.3-1.2,4.6-1.6,7
	c-0.3,1.7-1,2.4-2.7,2.1c-1-0.2-2.1-0.3-3.1-0.4c-3.9-0.3-5.8,1.2-6.6,5c-1,4.6-1.9,9.1-2.8,13.7c-0.5,2.5-1.7,3.7-4.5,3.6
	c-3.2-0.2-6.4,0-9.6-0.1c-2,0-2.8-0.8-2.3-2.9c2-9.1,4.1-18.2,5.9-27.4c0.5-2.6,1.5-3.8,4.3-3.6c2.6,0.2,5.2-0.2,7.8,0
	c1.8,0.2,3.6,0.9,5.4,1.4C447.9,180.4,447.9,180.7,447.9,181.1z"/>
<path d="M328.8,180.7c1.4-0.7,3-1.8,4.9-2.4c3-1,4.7,0.6,4.3,3.7c-0.4,2.4-0.7,4.7-1.4,7c-0.2,0.8-1.6,1.5-2.5,1.7
	c-1.1,0.2-2.2-0.2-3.4-0.3c-3.4-0.3-5.3,1.1-6.1,4.4c-1.1,4.9-2.2,9.7-3.1,14.6c-0.4,2.3-1.5,3.4-4,3.3c-3.2-0.2-6.4,0-9.6,0
	c-2.2,0-3.2-0.8-2.6-3.3c2.1-9.4,4.2-18.8,6.2-28.3c0.4-1.8,1.3-2.4,3-2.4c3.5,0,7.1-0.2,10.6,0
	C326.1,178.7,327.3,179.8,328.8,180.7z"/>
<path d="M494.1,182.9c-0.7,1.7-1,3.6-2.1,5c-0.8,1.1-2.4,2.2-3.8,2.3c-0.9,0.1-2.2-1.5-2.9-2.6c-0.8-1.2-1-2.7-1.5-4
	c-0.4,0.1-0.7,0.1-1.1,0.2c-0.1,1.2,0.1,2.5-0.3,3.7c-0.4,1.1-1.3,2-2,3c-0.8-1-2.3-1.8-2.4-2.9c-0.3-2.7-0.3-5.4,0-8.1
	c0.1-0.8,1.3-1.6,2.2-2.1c0.4-0.3,1.2,0.1,1.8,0c3.5-0.6,5.2,0.9,5.5,4.4c0.1,0.9,0.5,1.7,0.8,2.5c0.4,0.1,0.7,0.1,1.1,0.2
	c0.4-1.3,1.1-2.6,1.3-4c0.2-2.6,1.5-3.4,3.9-3.1c0.9,0.1,1.9,0.1,2.8,0c1.9-0.1,2.6,0.6,2.5,2.6c-0.2,2.6-0.1,5.2,0,7.8
	c0.1,1.7-0.5,2.6-2.2,2.7c-1.9,0.1-2.7-0.8-2.7-2.6c0-1.6,0-3.1,0-4.7C494.8,183,494.5,182.9,494.1,182.9z"/>
<path d="M468.9,177.2c1.7,0,3.3-0.1,5,0.1c0.7,0.1,1.3,0.9,2,1.4c-0.6,0.5-1.1,1.3-1.7,1.3c-2.3,0.1-2.7,1.4-2.6,3.4
	c0.1,1.5,0.3,3.2-0.1,4.6c-0.3,0.9-1.7,2.2-2.4,2.1c-1-0.2-2.2-1.3-2.6-2.4c-0.4-0.9,0.1-2.2,0.1-3.4c0.1-2.3,0.1-4.5-3.1-4.6
	c-0.4,0-0.8-0.9-1.3-1.4c0.5-0.4,1-1.1,1.6-1.2C465.3,177.1,467.1,177.2,468.9,177.2L468.9,177.2z"/>
</svg>
