<?xml version="1.0" standalone="no"?><!DOCTYPE svg PUBLIC "-//W3C//DTD SVG 1.1//EN" "http://www.w3.org/Graphics/SVG/1.1/DTD/svg11.dtd"><svg t="1604043160241" class="icon" viewBox="0 0 1024 1024" version="1.1" xmlns="http://www.w3.org/2000/svg" p-id="31768" xmlns:xlink="http://www.w3.org/1999/xlink" width="200" height="200"><defs><style type="text/css"></style></defs><path d="M923 513c0 117.9-49.7 224.1-129.3 298.8-9 8.5-18.4 16.6-28.2 24.2-9 7.1-18.3 13.7-27.9 20-23.5 15.4-48.7 28.5-75.2 38.9C616.1 913 565.7 923 513 923c-226.4 0-410-183.6-410-410 0-111.5 44.5-212.6 116.8-286.5 19.7-20.2 41.5-38.4 65.1-54.1 9.5-6.4 19.3-12.4 29.3-17.9 10.8-6 21.9-11.5 33.3-16.5 50.5-22.6 106.6-35 165.5-35 226.4 0 410 183.6 410 410z" fill="#FFEE4D" p-id="31769"></path><path d="M737.6 856.1c-23.5 15.4-48.7 28.5-75.2 38.9L219.8 226.5c19.7-20.2 41.5-38.4 65.1-54.1l452.7 683.7zM793.7 811.8c-9 8.5-18.4 16.6-28.2 24.2L314.1 154.4c10.8-6 21.9-11.5 33.3-16.5l446.3 673.9z" fill="#FEF9B6" p-id="31770"></path><path d="M513 513m-296.9 0a296.9 296.9 0 1 0 593.8 0 296.9 296.9 0 1 0-593.8 0Z" fill="#FFCA21" p-id="31771"></path><path d="M624.2 551.5c-0.6 0.5-0.8 1.3-0.7 2.1l24.9 145c0 0.2 0.1 0.4 0.1 0.6 0.2 2.2-0.9 4.2-2.5 5.3-1.7 1.2-4.1 1.6-6.3 0.4l-130.2-68.5c-0.3-0.2-0.7-0.3-1.1-0.3-0.4 0-0.8 0.1-1.1 0.3L377.1 705c-2.2 1.2-4.6 0.8-6.4-0.5-1.7-1.3-2.8-3.4-2.4-5.9l24.9-145v-0.1c0.1-0.7-0.1-1.4-0.7-2L287.2 448.8c-1.8-1.7-2.2-4.1-1.5-6.2 0.7-2 2.4-3.8 4.8-4.1l10.4-1.5 134.5-19.6 0.6-0.1c0.8-0.1 1.4-0.6 1.8-1.3L503 284.2c1.1-2.2 3.3-3.3 5.4-3.3 2.1 0 4.3 1.1 5.4 3.3l65 132c0.4 0.7 1 1.1 1.7 1.2l145.8 21.2c2.4 0.4 4.1 2 4.8 4 0.7 2 0.3 4.4-1.5 6.2L624.2 551.5z" fill="#FFF48F" p-id="31772"></path><path d="M726.3 438.6l-145.8-21.2-1.2-0.2-0.1-0.4-69.6 96.5c-0.4 0.5 0.1 1.2 0.8 1l220.7-71.7c-0.7-2-2.4-3.6-4.8-4zM503 284.2l-65.1 131.9c-0.3 0.7-1 1.2-1.8 1.3l-0.6 0.1 71.7 95.9c0 0.1 0.1 0.1 0.1 0.1 0.4 0.3 1.1 0.1 1.1-0.5V280.9c-2.2 0-4.3 1.1-5.4 3.3z" fill="#FFE14D" p-id="31773"></path><path d="M507.3 513.5l-69.8-96.6-0.2 0.4-1.8 0.3L301 437.1l-10.4 1.5c-2.5 0.3-4.2 2.1-4.8 4.1L508.4 515l-1.1-1.5zM623.3 552.4l0.3-0.3-115.1-37h-0.1v0.1L646 704.5c1.6-1.2 2.7-3.1 2.5-5.3l-25.2-146.8z" fill="#FFE14D" p-id="31774"></path><path d="M508.4 515.1l-115.3 37 0.3 0.3-0.2 1.1v0.1l-24.9 145c-0.4 2.5 0.7 4.6 2.4 5.9l137.7-189.4z" fill="#FFE14D" p-id="31775"></path><path d="M718.7 254.9s-27.5 3.8-34.5 11.5c-7.9 8.6-8.6 33.1-8.6 33.1s-2.5-26.4-10.1-33.1c-9-7.9-35.9-11.5-35.9-11.5s26.9 0.6 34.5-7.2c7.8-8 10.1-33.1 10.1-33.1s3.8 25.9 11.5 33.1c8.4 7.9 33 7.2 33 7.2zM322.2 778.8s-18.3 2.5-23 7.7c-5.3 5.7-5.8 22-5.8 22s-1.6-17.6-6.7-22c-6-5.3-24-7.7-24-7.7s17.9 0.4 23-4.8c5.2-5.3 6.7-22 6.7-22s2.5 17.3 7.7 22c5.6 5.2 22.1 4.8 22.1 4.8zM279.7 651.5s-18.3 2.5-23 7.7c-5.3 5.7-5.8 22-5.8 22s-1.6-17.6-6.7-22c-6-5.3-24-7.7-24-7.7s17.9 0.4 23-4.8c5.2-5.3 6.7-22 6.7-22s2.5 17.3 7.7 22c5.7 5.3 22.1 4.8 22.1 4.8z" fill="#FFFFFF" p-id="31776"></path></svg>