<?xml version="1.0" standalone="no"?><!DOCTYPE svg PUBLIC "-//W3C//DTD SVG 1.1//EN" "http://www.w3.org/Graphics/SVG/1.1/DTD/svg11.dtd"><svg t="1604039795376" class="icon" viewBox="0 0 1024 1024" version="1.1" xmlns="http://www.w3.org/2000/svg" p-id="20631" xmlns:xlink="http://www.w3.org/1999/xlink" width="200" height="200"><defs><style type="text/css"></style></defs><path d="M153 512.4c0 197.9 160.4 358.4 358.4 358.4 197.9 0 358.4-160.4 358.4-358.4 0-197.9-160.4-358.4-358.4-358.4-198 0-358.4 160.4-358.4 358.4z m0 0" fill="#20B759" p-id="20632"></path><path d="M469 622.4L333.2 486.7c-9.4-9.4-24.6-9.4-33.9 0-9.4 9.4-9.4 24.6 0 33.9L435 656.3c9.4 9.4 24.6 9.4 33.9 0 9.5-9.2 9.5-24.4 0.1-33.9z m0 0" fill="#FFFFFF" p-id="20633"></path><path d="M723.9 368.5c-9.4-9.4-24.6-9.4-33.9 0l-248.9 249c-9.4 9.4-9.4 24.6 0 33.9 9.4 9.4 24.6 9.4 33.9 0l248.9-248.9c9.4-9.4 9.4-24.6 0-34z m0 0" fill="#FFFFFF" p-id="20634"></path></svg>