<?xml version="1.0" standalone="no"?><!DOCTYPE svg PUBLIC "-//W3C//DTD SVG 1.1//EN" "http://www.w3.org/Graphics/SVG/1.1/DTD/svg11.dtd"><svg t="1611235701257" class="icon" viewBox="0 0 1024 1024" version="1.1" xmlns="http://www.w3.org/2000/svg" p-id="2955" xmlns:xlink="http://www.w3.org/1999/xlink" width="200" height="200"><defs><style type="text/css"></style></defs><path d="M1005.24032 321.68448c-12.08832-12.83072-28.16-16.65024-45.23008-16.65024H106.6752c-17.1008 0-33.21344-9.4976-45.24544-22.29248-12.12416-12.86656-18.7392-32.35328-18.7392-50.4832 0-18.1504 6.61504-33.58208 18.70336-46.4128 12.06272-12.83584 28.18048-16.65536 45.28128-16.65536H277.3504c11.77088 0 21.32992-10.14272 21.32992-22.6304 0-12.4928-9.55392-22.66624-21.32992-22.66624H106.6752c-28.48768 0-55.28576 9.35424-75.4688 30.76096C11.08992 176.01024 0 202.05056 0 232.25344c0 1.6384 0.36864 3.21024 0.4352 4.84864H0v650.10688c0 30.27968 11.0848 61.92128 31.2064 83.28192 20.17792 21.4016 46.976 36.38784 75.4688 36.38784h853.33504c17.07008 0 33.1776-10.30144 45.23008-23.13216 12.05248-12.84096 18.75968-33.11104 18.75968-51.28192V366.45888c0-18.15552-6.64064-31.97952-18.75968-44.7744z m-23.88992 610.82624c0 6.03136-2.23232 14.94016-6.28224 19.21024-4.03968 4.3008-9.40032 9.86112-15.05792 9.86112H106.6752c-17.1008 0-33.21344-10.26048-45.28128-23.11168-12.08832-12.8-18.70336-33.1008-18.70336-51.26144V324.28032c18.432 15.55968 40.50432 26.04032 63.98464 26.04032h853.33504c5.6576 0 11.01824-0.88576 15.05792 3.3792 4.00896 4.26496 6.28224 6.72768 6.28224 12.75904v566.05184zM849.03936 169.14944h4.27008c5.71904 0 11.0592-0.88576 15.08864 3.42016 4.02944 4.29056 6.25152 6.71744 6.25152 12.75904v33.792c0 12.48768 9.5488 22.66112 21.36064 22.66112 11.78112 0 21.30944-10.1376 21.30944-22.66112v-33.792c0-18.15552-6.62528-31.98464-18.72896-44.77952-12.1088-12.83072-28.19072-16.66048-45.28128-16.66048h-4.27008c-11.81184 0-21.32992 10.14272-21.32992 22.66624 0 12.52352 9.51808 22.59456 21.32992 22.59456zM308.13696 273.21344l320.09216-208.44032a20.19328 20.19328 0 0 1 16.88064-0.95744c5.57056 2.18624 9.90208 6.62528 12.18048 12.42112l100.86912 185.64096 39.31136-17.58208-100.85888-185.67168c-6.8096-17.17248-20.1984-30.75072-36.68992-37.26848a60.8256 60.8256 0 0 0-50.74944 2.82624L289.14176 232.6016l18.9952 40.61184z m536.63232 525.36832H640c-14.15168 0-25.6 11.66848-25.6 26.07104 0 14.3616 11.44832 26.05056 25.6 26.05056h204.76928c14.15168 0 25.62048-11.68896 25.62048-26.05056 0-14.44352-11.4688-26.07104-25.62048-26.07104z" fill="#ffffff" p-id="2956"></path></svg>