<?xml version="1.0" standalone="no"?><!DOCTYPE svg PUBLIC "-//W3C//DTD SVG 1.1//EN" "http://www.w3.org/Graphics/SVG/1.1/DTD/svg11.dtd"><svg t="1608693936762" class="icon" viewBox="0 0 1025 1024" version="1.1" xmlns="http://www.w3.org/2000/svg" p-id="11939" xmlns:xlink="http://www.w3.org/1999/xlink" width="200.1953125" height="200"><defs><style type="text/css"></style></defs><path d="M464.712 488.106c-102.515 6.825-184.53 58.032-184.53 126.297s82.015 116.052 184.53 112.633 184.53-64.845 184.53-136.503c0-64.883-82.04-105.884-184.53-102.427z m71.796 170.616c-30.757 41.001-95.69 58.07-153.773 27.364-27.338-13.663-27.338-44.383-27.338-44.383s-13.663-95.565 88.84-105.809c102.515-13.675 123.066 85.321 92.271 122.828z" fill="#FB5555" p-id="11940"></path><path d="M464.762 597.358c-6.837 6.826-6.837 13.65-3.418 20.488 3.368 3.394 10.193 3.394 17.031 0 6.838-6.837 10.257-13.662 6.838-20.488-3.369-3.431-13.625-6.85-20.45 0z m-44.445 10.22c-20.488 3.406-34.163 17.106-34.163 34.125 0 13.663 13.675 27.3 34.163 23.907 17.082 0 34.176-13.7 37.57-30.732 0.025-17.057-17.07-30.707-37.57-27.3z" fill="#FB5555" p-id="11941"></path><path d="M512.551 0C229.476 0 0 229.175 0 512s229.476 512 512.551 512 512.551-229.175 512.551-511.95S795.626 0 512.551 0z m228.975 634.928C697.08 723.68 560.39 764.631 457.887 757.806c-99.071-6.825-222.112-37.57-235.787-153.56 0 0-6.826-51.207 44.42-119.472 0 0 75.139-98.933 160.598-129.69 88.914-27.35 99.096 20.475 99.096 47.789-6.838 27.3-13.663 40.95 17.094 30.706 0 0 85.421-37.57 119.597-3.406 27.326 27.313 3.406 64.845 3.406 64.845s-10.244 13.576 13.7 16.982c27.339 3.419 102.503 40.951 61.515 122.928z m10.244-198.03c-3.419 13.663-10.257 20.488-23.932 20.488-10.244 0-20.5-10.244-20.5-20.488v-10.244c0-30.707-23.945-58.02-58.096-58.02-10.269 0-20.513-10.244-20.513-20.476s10.244-20.475 20.513-20.475c58.083 0 102.503 44.382 102.503 98.934v10.244z m78.583 17.07v6.887c-3.406 10.244-13.663 17.07-27.326 13.638a23.343 23.343 0 0 1-23.919-23.882v-3.469c3.406-6.863 3.406-17.056 3.406-23.882 0-71.695-61.489-129.715-133.234-129.715a23.356 23.356 0 0 1-23.932-23.895c0-13.637 10.244-23.794 23.957-23.894 102.502 0 184.505 81.927 184.505 180.898-0.038 10.282-3.457 17.082-3.457 27.313z" fill="#FB5555" p-id="11942"></path></svg>