<?xml version="1.0" standalone="no"?><!DOCTYPE svg PUBLIC "-//W3C//DTD SVG 1.1//EN" "http://www.w3.org/Graphics/SVG/1.1/DTD/svg11.dtd"><svg t="1614849969516" class="icon" viewBox="0 0 1024 1024" version="1.1" xmlns="http://www.w3.org/2000/svg" p-id="7557" xmlns:xlink="http://www.w3.org/1999/xlink" width="200" height="200"><defs><style type="text/css"></style></defs><path d="M512 114.9c-219.6 0-397.5 178-397.5 397.5S292.4 910 512 910s397.5-178 397.5-397.5-178-397.6-397.5-397.6z m0 768c-204.6 0-370.4-165.8-370.4-370.4S307.4 142 512 142s370.4 165.8 370.4 370.4S716.6 882.9 512 882.9z" p-id="7558" fill="#bfbfbf"></path><path d="M344.5 570.9c19.9 0 22.9-4.2 25.8-31.6 7.4 4.6 20.9 9.5 29.2 11.1-5 38.4-15.1 49.3-53.5 49.3h-61.6c-42.1 0-54.7-8.5-54.7-42.1v-89.1h30v23.9h82.9v-36.8H223.2V427h149.7v102.8h-30.2v-8.9h-82.9v36.6c0 12.3 2.8 13.5 24.8 13.5h59.9zM596.7 510.3v20.9H471.9v6h-28.4v-48.3c-3.2 3.2-6.2 6.4-9.3 9.1-3.8-5.6-13.5-17.7-19.1-23.1 17.7-14.1 35.2-37 45.3-59.6l26.8 8.7c-1.8 3.8-3.8 7.8-5.8 11.5h25c-1.4-4.2-3.2-8.3-4.8-12.1l26.8-7.6c3.2 6 6.6 13.3 8.7 19.7h54.3v19.7h-55.1v6.2H581v18.1h-44.5v6H581v18.1h-44.5v6.8h60.2z m-154.5 29.2h142.9v66.4h-30.2v-7.2H471v7.2h-28.8v-66.4z m28.9 22.5v14.3H555V562h-83.9z m37.1-106.8h-36.4v6.2h36.4v-6.2z m0 24.3h-36.4v6h36.4v-6z m-36.3 30.8h36.4v-6.8h-36.4v6.8zM655.1 504.3c-2.4 10.1-7.2 20.1-15.7 27.8-3.2-4.2-12.1-12.5-16.7-15.3 11.7-10.3 13.1-23.3 13.1-33.8v-15.3H713v36.6h-57.9z m76.2 34.4v7h76.9v20.7h-76.9v13.3h29.8v-10.9h28v36.8h-28v-4.2H645.4v-33.2H674v11.5h29.4v-13.3h-75.1v-20.7h28.6c-4.6-3.4-9.9-6.8-13.7-8.9 10.1-7.8 19.3-20.7 23.5-31.2l25.2 6.8c-1 2.2-2.2 4.2-3.4 6.4h36.2c-2.2-5.4-6.4-12.7-9.9-17.1 7.8-0.8 14.9-2.2 21.7-4-4.4-3.8-8.1-8-11.5-12.7l9.9-2.8h-14.5v-16.9h5.8c-4.4-4-10.1-8.9-13.7-10.9 14.5-5.8 16.1-12.1 16.1-19.5V422h59v18.7c0 3.8 0.2 5.8 3.2 5.8h4.6c2.8 0 8.5-0.4 11.1-1.4 0.4 5.8 0.6 11.3 1.4 16.9-2.8 1.2-7.8 1.4-11.9 1.4h-11.3c-16.7 0-19.9-7.8-19.9-22.5h-14.7c-0.8 8.9-4 17.9-13.5 24.4h46.1l4-0.6 13.3 4.6c-4.6 11.7-11.3 21.1-19.9 28.2 9.3 2.4 20.1 4 31.4 5-5 4.8-11.3 14.1-14.3 20.3-4.4-0.6-8.5-1.4-12.5-2.2v18.3h-53.4z m-18.9-91.6v16.1h-78.9v-16.1h27.2v-4.6h-32.2v-16.3h32.2v-9.7h25v9.7h32.4v16.3h-32.4v4.6h26.7z m-55.1 35.1v1.4c0 2 0 4.2-0.2 6.4h7.6v-7.8h-7.4z m46.1 56.5h-28.6c-2 2.4-4 4.8-6.2 7h34.8v-7z m-12.9-56.5h-8.2v7.8h8.2v-7.8z m87.1 36.4c-7.6-2-14.5-4.6-20.9-7.6-8 3.2-16.7 5.6-26.2 7.6h47.1zM747.4 482c3 2.6 6.4 5 10.3 7.2 3.8-2 7.2-4.6 10.1-7.2h-20.4zM637.8 647.6h193.3v3.6H637.8zM186 647.6h193.3v3.6H186zM637.8 376.5h193.3v3.6H637.8zM186 376.5h193.3v3.6H186z" p-id="7559" fill="#bfbfbf"></path><path d="M970.2 534.8l21.3-22.6-25.9-26.8h-0.6c0-0.4 0-0.8-0.1-1.2l0.6-0.1 22.3-30.3-28.9-23.5-0.4 0.1-2.7 0.3 2.6-0.7 0.4-0.1 18.5-32.8-31.6-19.8-0.2 0.1-2.3 0.6 2.2-0.8 0.2-0.1 14.4-34.8-33.6-15.8 10.1-36.1-35.3-11.7c-0.2-0.4-0.5-0.7-0.7-1.1l5.7-37.1-26.9-5.4 1.8-27.7-29-3.2-0.8-29.5-36.8-0.7c-0.5-0.4-1-0.9-1.5-1.3l-5.6-36.7-36.4 3.8c-0.4-0.3-0.8-0.5-1.2-0.8l-9.9-35.6-35.4 8.1c-0.5-0.3-1-0.5-1.5-0.8l-14.1-34L675.1 89l-0.9 0.3-0.5-0.8-17.9-31.9-32.3 16.2c-0.9-0.2-1.8-0.5-2.7-0.7l-21.7-29.5-22.8 15.2L558 37l-22.8 18.2L513.7 35l-26.1 25.2c-0.9 0-1.8 0.1-2.8 0.2l-29.5-21.7-22.8 28.1c-0.7 0.1-1.4 0.3-2 0.4l-31.8-18-19.2 30.6c-0.6 0.2-1.2 0.4-1.9 0.6l-33.8-14-15.4 32.8-0.4 0.8-0.8-0.2-35.3-9.9-11.5 34.6c-0.7 0.4-1.4 0.8-2 1.2l-36.4-5.5-5.4 26.9-27.7-1.8-3.2 29-29.5 0.8-0.7 37c-0.4 0.4-0.8 0.8-1.1 1.3l-36.9 5.6 3.8 36.9c-0.1 0.2-0.2 0.3-0.3 0.5l-36.1 10.1 8.3 36.3c-0.1 0.1-0.1 0.2-0.2 0.3l-34.8 14.4 12.6 34.9-32.7 18.4L74.8 404l0.3 0.1c-0.1 0.3-0.2 0.7-0.3 1l-0.3-0.1-30.3 22.3 15.2 22.8-20.8 18.3 19.2 24.1-21.3 20.2L63 537.5c0.1 1.8 0.2 3.6 0.3 5.5L40 571.3l29.4 21.3 2.5 1.8-1.6 2.6-19.7 30.9 31.9 17.7L85 647l-1.2 2.5-16 33.3 34 13.8 2.1 0.8-0.7 2.1-12 35.1 35.7 9.8c0.7 1.2 1.5 2.4 2.2 3.6l-7.6 36.6 28.6 4.1-3.5 28.9 30.6 1.8-0.8 31 37.5-1.3c0.9 0.8 1.8 1.6 2.6 2.3l3.7 37.7 37.2-5.9 1.7-0.3 0.4 1.7 8.2 37.1 36.2-10.4 1.6-0.5 0.5 1.6 12.6 35.9 34.8-14.7c0.6 0.2 1.1 0.4 1.7 0.6l16.8 34.2 32.9-18.8c1 0.2 1.9 0.5 2.9 0.7l20.9 32 23.1-17.3 18 22.9 22.9-20.4 21.3 22.5 25.9-27.9c0.9 0 1.8-0.1 2.8-0.2l29.7 24.4 22.2-30.7 0.8-1.2 1.2 0.8 32.3 20.6 18.3-33.1 0.7-1.3 1.4 0.7 34.4 16.5 14.2-35 0.5-1.2 1.2 0.4 36 12.3 9.9-36.4c0.9-0.5 1.9-1.1 2.8-1.7l37.2 7.8 4.1-28.6 28.9 3.5 1.8-30.6 31 0.8-1.3-37.4c0.8-0.9 1.7-1.9 2.5-2.8L890 806l-5.9-36.7-0.3-2.2 2.2-0.5 36.6-8.1-9.6-35.3-0.7-2.3 2.3-0.8 35.1-12.3-14.3-33.8-0.9-2.2 2.2-1 33.2-16.3-18.1-31.7c0.4-1.6 0.8-3.3 1.2-4.9l30.8-20.1-17.3-23.1 22.9-18-19.2-21.9z m-40.8-10.9c-0.1 5.2-0.4 10.5-0.8 15.7-0.5 6.8-1.1 13.6-1.9 20.4-0.7 6-1.5 12-2.5 17.9-1.8 10.8-3.9 21.5-6.5 32.1-0.3 1.1-0.5 2.2-0.8 3.3-3.8 15-8.4 29.7-13.8 44-0.5 1.5-1.1 2.9-1.7 4.4-5.5 14.2-11.8 28-18.7 41.3-0.7 1.2-1.3 2.5-2 3.7-7.2 13.5-15.2 26.6-23.8 39.2-0.8 1.2-1.6 2.3-2.4 3.4-8.9 12.8-18.6 25-28.8 36.6-0.7 0.9-1.5 1.7-2.3 2.6-7.8 8.7-16 17.1-24.5 25.1-3.8 3.6-7.7 7.1-11.7 10.6-5.1 4.5-10.3 8.8-15.6 13-4.8 3.8-9.6 7.4-14.5 11-8.8 6.4-17.8 12.4-27.1 18l-3 1.8c-13.1 7.8-26.7 15-40.7 21.4-1.4 0.7-2.9 1.3-4.3 2-13.7 6.1-27.8 11.4-42.2 16-1.4 0.4-2.7 0.9-4.1 1.3-14.5 4.4-29.3 8.1-44.4 10.9-1.4 0.3-2.8 0.5-4.2 0.8-15.1 2.7-30.5 4.6-46.2 5.5-1.1 0.1-2.3 0.2-3.5 0.2-7.8 0.5-15.7 0.7-23.7 0.7-3.8 0-7.6-0.1-11.3-0.2-5.3-0.1-10.6-0.4-15.8-0.7-6.8-0.4-13.5-1-20.1-1.8-6.1-0.7-12.1-1.5-18-2.4-10.8-1.7-21.4-3.8-31.9-6.3-1.2-0.3-2.3-0.5-3.4-0.8-15-3.7-29.6-8.2-43.9-13.5-1.5-0.5-3-1.1-4.5-1.7-14.1-5.4-27.9-11.6-41.2-18.5-1.3-0.7-2.5-1.3-3.8-2-13.5-7.2-26.6-15-39.2-23.6-1.2-0.8-2.3-1.6-3.5-2.4-12.8-8.9-25-18.4-36.7-28.7-0.9-0.7-1.7-1.5-2.6-2.3-8.7-7.8-17.1-15.9-25.2-24.4-3.6-3.8-7.2-7.7-10.6-11.6-4.5-5.1-8.8-10.2-13.1-15.5-3.8-4.7-7.5-9.5-11-14.4-6.4-8.8-12.5-17.8-18.2-27.1-0.6-1-1.2-2-1.8-2.9-7.9-13.1-15.1-26.7-21.6-40.7-0.7-1.4-1.3-2.8-1.9-4.2-6.2-13.7-11.6-27.9-16.2-42.4-0.5-1.3-0.9-2.6-1.3-4-4.5-14.5-8.2-29.4-11.2-44.6-0.3-1.3-0.5-2.7-0.8-4-2.8-15.2-4.7-30.7-5.7-46.4-0.1-1.1-0.2-2.2-0.2-3.3-0.5-8.3-0.8-16.7-0.8-25.2 0-3.4 0-6.7 0.1-10.1 0.1-5.2 0.3-10.5 0.7-15.7 0.4-6.9 1-13.7 1.8-20.4 0.7-6 1.4-12 2.4-17.9 1.7-10.9 3.8-21.6 6.3-32.2 0.3-1.1 0.5-2.2 0.8-3.3 3.7-15.1 8.3-29.9 13.6-44.3 0.5-1.4 1-2.9 1.6-4.3 5.4-14.3 11.6-28.2 18.6-41.7 0.6-1.2 1.2-2.4 1.9-3.6 7.2-13.7 15.1-26.9 23.8-39.6 0.7-1.1 1.5-2.2 2.3-3.3 8.9-12.9 18.6-25.3 28.9-37.1l2.1-2.4c7.9-8.8 16.1-17.3 24.6-25.5 3.8-3.6 7.6-7.1 11.5-10.5 5.2-4.6 10.4-9 15.8-13.3 4.7-3.7 9.5-7.4 14.3-10.9 8.9-6.5 18-12.6 27.4-18.4 0.9-0.6 1.8-1.1 2.7-1.7 13.2-8 27-15.3 41.1-21.8 1.4-0.6 2.7-1.2 4.1-1.8 13.9-6.2 28.1-11.7 42.8-16.3 1.3-0.4 2.5-0.8 3.8-1.2 14.7-4.5 29.7-8.3 45-11.2 1.3-0.2 2.6-0.5 3.8-0.7 15.3-2.8 31-4.7 46.8-5.7 1-0.1 2.1-0.1 3.1-0.2 7.9-0.5 15.9-0.7 24-0.7 3.9 0 7.7 0.1 11.6 0.2 5.2 0.1 10.4 0.4 15.5 0.7 6.9 0.4 13.8 1 20.6 1.8 6 0.7 11.9 1.5 17.8 2.4 11 1.7 21.8 3.9 32.4 6.5 1 0.2 2.1 0.5 3.1 0.8 15.2 3.8 30 8.4 44.4 13.8 1.4 0.5 2.8 1 4.2 1.6 14.3 5.5 28.2 11.8 41.7 18.8 1.2 0.6 2.4 1.2 3.5 1.8 13.7 7.3 26.9 15.3 39.6 24 1.1 0.7 2.2 1.5 3.3 2.3 12.9 9 25.3 18.7 37 29.1l2.4 2.1c8.8 7.9 17.3 16.2 25.4 24.8 3.6 3.8 7.1 7.6 10.5 11.5 4.5 5.2 8.9 10.5 13.2 15.9 3.7 4.7 7.4 9.5 10.9 14.4 6.4 8.9 12.5 18 18.2 27.4 0.6 0.9 1.1 1.9 1.7 2.8 7.9 13.2 15.1 26.9 21.5 41.1 0.6 1.4 1.3 2.7 1.9 4.1 6.1 13.8 11.5 28.1 16.1 42.7l1.2 3.9c4.5 14.6 8.1 29.5 10.9 44.8 0.3 1.3 0.5 2.7 0.7 4 2.7 15.3 4.5 30.8 5.5 46.6 0.1 1.1 0.1 2.2 0.2 3.3 0.4 7.4 0.6 14.9 0.6 22.5 0.1 4.3 0 8.6-0.1 12.8z" p-id="7560" fill="#bfbfbf"></path><path d="M403 659.4l2.2-2.5c2.3 2.5 5.5 4 8.9 4 4.3 0 7-2.2 7-5.5 0-3.4-2.4-4.5-5.4-5.9l-4.6-2c-2.9-1.3-6.5-3.4-6.5-8.1 0-4.8 4.2-8.3 9.8-8.3 3.8 0 7.1 1.6 9.2 3.9l-1.9 2.3c-2-1.9-4.3-3-7.3-3-3.7 0-6.2 1.9-6.2 4.9 0 3.3 2.9 4.5 5.3 5.5l4.6 2c3.6 1.6 6.6 3.8 6.6 8.5 0 5-4.1 8.9-10.7 8.9-4.5 0.1-8.3-1.8-11-4.7zM430.9 647.6c0-10.1 5.6-16.3 13.4-16.3 7.9 0 13.4 6.2 13.4 16.3 0 10.1-5.6 16.6-13.4 16.6-7.9 0-13.4-6.5-13.4-16.6z m23.1 0c0-8.1-3.9-13.1-9.8-13.1s-9.7 5-9.7 13.1c0 8.2 3.9 13.4 9.7 13.4 6 0 9.8-5.3 9.8-13.4zM466.4 631.8h3.6v28.7h14v3h-17.6v-31.7zM491.4 631.8h7.8c9.8 0 14.8 5.8 14.8 15.7 0 10-5.1 16-14.7 16h-7.9v-31.7z m7.5 28.8c7.7 0 11.4-4.9 11.4-13.1s-3.7-12.8-11.4-12.8H495v25.8h3.9zM532.3 647.6c0-10.1 5.6-16.3 13.4-16.3 7.9 0 13.4 6.2 13.4 16.3 0 10.1-5.6 16.6-13.4 16.6-7.9 0-13.4-6.5-13.4-16.6z m23.2 0c0-8.1-3.9-13.1-9.8-13.1s-9.7 5-9.7 13.1c0 8.2 3.9 13.4 9.7 13.4 5.9 0 9.8-5.3 9.8-13.4zM567.7 650.7v-18.9h3.6v18.9c0 7.8 3.4 10.2 7.6 10.2 4.3 0 7.8-2.4 7.8-10.2v-18.9h3.4v18.9c0 10.1-5 13.4-11.2 13.4-6.2 0.1-11.2-3.3-11.2-13.4zM607.3 634.9h-9.7v-3h23v3h-9.7v28.7h-3.6v-28.7z" p-id="7561" fill="#bfbfbf"></path></svg>